<?xml version="1.0" encoding="utf-8" ?>
<svg xmlns="http://www.w3.org/2000/svg" xmlns:ev="http://www.w3.org/2001/xml-events" xmlns:xlink="http://www.w3.org/1999/xlink" baseProfile="full" height="32px" version="1.1" viewBox="0 0 32 32" width="32px">
  <defs/>
  <g id="x407742_r64_g119_b66_a1.0">
    <path d="M 11,5 13,5 13,4 15,4 15,3 18,3 18,4 20,4 20,5 22,5 22,11 21,11 21,13 20,13 20,14 19,14 13,14 13,13 12,13 12,11 11,11 z" fill="#407742" fill-opacity="1.0" id="x407742_r64_g119_b66_a1.0_shape1"/>
    <path d="M 6,12 8,12 8,13 5,13 5,9 6,9 z" fill="#407742" fill-opacity="1.0" id="x407742_r64_g119_b66_a1.0_shape2"/>
    <path d="M 26,10 26,13 28,13 28,14 25,14 25,11 25,10 z" fill="#407742" fill-opacity="1.0" id="x407742_r64_g119_b66_a1.0_shape3"/>
    <path d="M 4,5 5,5 5,6 5,9 4,9 4,7 z" fill="#407742" fill-opacity="1.0" id="x407742_r64_g119_b66_a1.0_shape4"/>
    <path d="M 24,10 24,6 25,6 25,10 z" fill="#407742" fill-opacity="1.0" id="x407742_r64_g119_b66_a1.0_shape5"/>
    <path d="M 30,7 30,10 29,10 29,7 z" fill="#407742" fill-opacity="1.0" id="x407742_r64_g119_b66_a1.0_shape6"/>
    <path d="M 9,9 9,12 8,12 8,9 z" fill="#407742" fill-opacity="1.0" id="x407742_r64_g119_b66_a1.0_shape7"/>
    <path d="M 29,13 28,13 28,10 29,10 z" fill="#407742" fill-opacity="1.0" id="x407742_r64_g119_b66_a1.0_shape8"/>
    <path d="M 7,2 8,2 8,3 8,4 7,4 7,3 z" fill="#407742" fill-opacity="1.0" id="x407742_r64_g119_b66_a1.0_shape9"/>
    <path d="M 9,4 9,6 8,6 8,4 z" fill="#407742" fill-opacity="1.0" id="x407742_r64_g119_b66_a1.0_shape10"/>
    <path d="M 28,5 29,5 29,6 29,7 28,7 28,6 z" fill="#407742" fill-opacity="1.0" id="x407742_r64_g119_b66_a1.0_shape11"/>
    <path d="M 6,4 6,5 5,5 5,4 z" fill="#407742" fill-opacity="1.0" id="x407742_r64_g119_b66_a1.0_shape12"/>
    <path d="M 27,5 27,4 28,4 28,5 z" fill="#407742" fill-opacity="1.0" id="x407742_r64_g119_b66_a1.0_shape13"/>
    <path d="M 25,6 25,5 26,5 26,6 z" fill="#407742" fill-opacity="1.0" id="x407742_r64_g119_b66_a1.0_shape14"/>
    <path d="M 9,14 8,14 8,13 9,13 z" fill="#407742" fill-opacity="1.0" id="x407742_r64_g119_b66_a1.0_shape15"/>
    <path d="M 28,15 28,14 29,14 29,15 z" fill="#407742" fill-opacity="1.0" id="x407742_r64_g119_b66_a1.0_shape16"/>
  </g>
  <g id="x000000_r0_g0_b0_a1.0">
    <path d="M 23,5 24,5 24,8 24,11 23,11 23,14 23,15 21,15 21,16 19,16 18,16 18,17 19,17 19,18 18,18 18,19 18,30 17,30 17,24 17,16 16,16 16,30 15,30 15,19 14,19 14,18 15,18 15,16 12,16 12,15 10,15 10,11 9,11 9,5 10,5 10,10 11,10 11,14 13,14 13,15 20,15 20,14 22,14 22,10 23,10 z" fill="#000000" fill-opacity="1.0" id="x000000_r0_g0_b0_a1.0_shape1"/>
    <path d="M 12,3 12,2 14,2 14,1 19,1 19,2 21,2 21,3 22,3 22,4 20,4 20,3 18,3 18,2 15,2 15,3 13,3 13,4 11,4 11,3 z" fill="#000000" fill-opacity="1.0" id="x000000_r0_g0_b0_a1.0_shape2"/>
    <path d="M 11,5 10,5 10,4 11,4 z" fill="#000000" fill-opacity="1.0" id="x000000_r0_g0_b0_a1.0_shape3"/>
    <path d="M 23,4 23,5 22,5 22,4 z" fill="#000000" fill-opacity="1.0" id="x000000_r0_g0_b0_a1.0_shape4"/>
    <path d="M 14,31 14,30 15,30 15,31 z" fill="#000000" fill-opacity="1.0" id="x000000_r0_g0_b0_a1.0_shape5"/>
    <path d="M 19,30 19,31 18,31 18,30 z" fill="#000000" fill-opacity="1.0" id="x000000_r0_g0_b0_a1.0_shape6"/>
  </g>
  <g id="x004100_r0_g65_b0_a1.0">
    <path d="M 4,9 5,9 5,13 6,13 8,13 8,14 5,14 4,14 z" fill="#004100" fill-opacity="1.0" id="x004100_r0_g65_b0_a1.0_shape1"/>
    <path d="M 25,14 28,14 28,15 24,15 24,10 25,10 z" fill="#004100" fill-opacity="1.0" id="x004100_r0_g65_b0_a1.0_shape2"/>
    <path d="M 30,10 30,7 31,7 31,11 30,11 30,13 29,13 29,10 z" fill="#004100" fill-opacity="1.0" id="x004100_r0_g65_b0_a1.0_shape3"/>
    <path d="M 20,14 20,15 14,15 13,15 13,14 14,14 z" fill="#004100" fill-opacity="1.0" id="x004100_r0_g65_b0_a1.0_shape4"/>
    <path d="M 11,10 10,10 10,8 10,5 11,5 11,6 z" fill="#004100" fill-opacity="1.0" id="x004100_r0_g65_b0_a1.0_shape5"/>
    <path d="M 22,10 22,5 23,5 23,10 z" fill="#004100" fill-opacity="1.0" id="x004100_r0_g65_b0_a1.0_shape6"/>
    <path d="M 4,9 3,9 3,8 3,5 4,5 4,7 z" fill="#004100" fill-opacity="1.0" id="x004100_r0_g65_b0_a1.0_shape7"/>
    <path d="M 11,11 12,11 12,13 13,13 13,14 11,14 z" fill="#004100" fill-opacity="1.0" id="x004100_r0_g65_b0_a1.0_shape8"/>
    <path d="M 22,14 20,14 20,13 21,13 21,11 22,11 z" fill="#004100" fill-opacity="1.0" id="x004100_r0_g65_b0_a1.0_shape9"/>
    <path d="M 15,2 18,2 18,3 15,3 z" fill="#004100" fill-opacity="1.0" id="x004100_r0_g65_b0_a1.0_shape10"/>
    <path d="M 6,1 8,1 8,2 6,2 z" fill="#004100" fill-opacity="1.0" id="x004100_r0_g65_b0_a1.0_shape11"/>
    <path d="M 6,4 5,4 5,3 5,2 6,2 6,3 z" fill="#004100" fill-opacity="1.0" id="x004100_r0_g65_b0_a1.0_shape12"/>
    <path d="M 8,3 8,2 9,2 9,3 9,4 8,4 z" fill="#004100" fill-opacity="1.0" id="x004100_r0_g65_b0_a1.0_shape13"/>
    <path d="M 14,4 13,4 13,3 14,3 15,3 15,4 z" fill="#004100" fill-opacity="1.0" id="x004100_r0_g65_b0_a1.0_shape14"/>
    <path d="M 18,3 20,3 20,4 18,4 z" fill="#004100" fill-opacity="1.0" id="x004100_r0_g65_b0_a1.0_shape15"/>
    <path d="M 26,4 26,3 27,3 28,3 28,4 27,4 z" fill="#004100" fill-opacity="1.0" id="x004100_r0_g65_b0_a1.0_shape16"/>
    <path d="M 13,4 13,5 12,5 11,5 11,4 12,4 z" fill="#004100" fill-opacity="1.0" id="x004100_r0_g65_b0_a1.0_shape17"/>
    <path d="M 21,5 20,5 20,4 21,4 22,4 22,5 z" fill="#004100" fill-opacity="1.0" id="x004100_r0_g65_b0_a1.0_shape18"/>
    <path d="M 30,6 30,7 29,7 29,6 29,5 30,5 z" fill="#004100" fill-opacity="1.0" id="x004100_r0_g65_b0_a1.0_shape19"/>
    <path d="M 5,4 5,5 4,5 4,4 z" fill="#004100" fill-opacity="1.0" id="x004100_r0_g65_b0_a1.0_shape20"/>
    <path d="M 9,5 9,4 10,4 10,5 z" fill="#004100" fill-opacity="1.0" id="x004100_r0_g65_b0_a1.0_shape21"/>
    <path d="M 26,4 26,5 25,5 25,4 z" fill="#004100" fill-opacity="1.0" id="x004100_r0_g65_b0_a1.0_shape22"/>
    <path d="M 28,4 29,4 29,5 28,5 z" fill="#004100" fill-opacity="1.0" id="x004100_r0_g65_b0_a1.0_shape23"/>
    <path d="M 25,5 25,6 24,6 24,5 z" fill="#004100" fill-opacity="1.0" id="x004100_r0_g65_b0_a1.0_shape24"/>
    <path d="M 10,12 9,12 9,11 10,11 z" fill="#004100" fill-opacity="1.0" id="x004100_r0_g65_b0_a1.0_shape25"/>
    <path d="M 8,12 9,12 9,13 8,13 z" fill="#004100" fill-opacity="1.0" id="x004100_r0_g65_b0_a1.0_shape26"/>
    <path d="M 29,13 29,14 28,14 28,13 z" fill="#004100" fill-opacity="1.0" id="x004100_r0_g65_b0_a1.0_shape27"/>
  </g>
  <g id="x78a779_r120_g167_b121_a1.0">
    <path d="M 8,12 6,12 6,9 5,9 5,5 6,5 6,2 7,2 7,4 8,4 8,6 9,6 9,8 9,9 8,9 8,10 z" fill="#78a779" fill-opacity="1.0" id="x78a779_r120_g167_b121_a1.0_shape1"/>
    <path d="M 25,6 26,6 26,4 27,4 27,5 28,5 28,7 29,7 29,10 28,10 28,13 26,13 26,10 25,10 z" fill="#78a779" fill-opacity="1.0" id="x78a779_r120_g167_b121_a1.0_shape2"/>
  </g>
  <g id="x424100_r66_g65_b0_a1.0">
    <path d="M 28,28 27,28 27,22 27,15 28,15 28,19 z" fill="#424100" fill-opacity="1.0" id="x424100_r66_g65_b0_a1.0_shape1"/>
    <path d="M 8,26 7,26 7,14 8,14 z" fill="#424100" fill-opacity="1.0" id="x424100_r66_g65_b0_a1.0_shape2"/>
    <path d="M 16,16 17,16 17,28 16,28 z" fill="#424100" fill-opacity="1.0" id="x424100_r66_g65_b0_a1.0_shape3"/>
    <path d="M 9,27 9,28 8,28 7,28 7,27 8,27 z" fill="#424100" fill-opacity="1.0" id="x424100_r66_g65_b0_a1.0_shape4"/>
    <path d="M 27,29 29,29 29,30 27,30 z" fill="#424100" fill-opacity="1.0" id="x424100_r66_g65_b0_a1.0_shape5"/>
    <path d="M 17,30 16,30 16,29 17,29 z" fill="#424100" fill-opacity="1.0" id="x424100_r66_g65_b0_a1.0_shape6"/>
    <path d="M 15,31 15,30 16,30 16,31 z" fill="#424100" fill-opacity="1.0" id="x424100_r66_g65_b0_a1.0_shape7"/>
    <path d="M 17,31 17,30 18,30 18,31 z" fill="#424100" fill-opacity="1.0" id="x424100_r66_g65_b0_a1.0_shape8"/>
  </g>
  <g id="x797842_r121_g120_b66_a1.0">
    <path d="M 26,15 27,15 27,28 26,28 z" fill="#797842" fill-opacity="1.0" id="x797842_r121_g120_b66_a1.0_shape1"/>
    <path d="M 6,14 7,14 7,26 6,26 z" fill="#797842" fill-opacity="1.0" id="x797842_r121_g120_b66_a1.0_shape2"/>
    <path d="M 7,26 8,26 8,27 7,27 z" fill="#797842" fill-opacity="1.0" id="x797842_r121_g120_b66_a1.0_shape3"/>
    <path d="M 7,28 6,28 6,27 7,27 z" fill="#797842" fill-opacity="1.0" id="x797842_r121_g120_b66_a1.0_shape4"/>
    <path d="M 28,28 28,29 27,29 27,28 z" fill="#797842" fill-opacity="1.0" id="x797842_r121_g120_b66_a1.0_shape5"/>
    <path d="M 27,29 27,30 26,30 26,29 z" fill="#797842" fill-opacity="1.0" id="x797842_r121_g120_b66_a1.0_shape6"/>
    <path d="M 16,30 17,30 17,31 16,31 z" fill="#797842" fill-opacity="1.0" id="x797842_r121_g120_b66_a1.0_shape7"/>
  </g>
  <g id="xa9a879_r169_g168_b121_a1.0">
    <path d="M 6,26 7,26 7,27 6,27 z" fill="#a9a879" fill-opacity="1.0" id="xa9a879_r169_g168_b121_a1.0_shape1"/>
    <path d="M 5,28 5,27 6,27 6,28 z" fill="#a9a879" fill-opacity="1.0" id="xa9a879_r169_g168_b121_a1.0_shape2"/>
    <path d="M 27,29 26,29 26,28 27,28 z" fill="#a9a879" fill-opacity="1.0" id="xa9a879_r169_g168_b121_a1.0_shape3"/>
    <path d="M 26,30 25,30 25,29 26,29 z" fill="#a9a879" fill-opacity="1.0" id="xa9a879_r169_g168_b121_a1.0_shape4"/>
  </g>
  <g id="x797979_r121_g121_b121_a1.0">
    <path d="M 11,16 11,15 12,15 12,16 z" fill="#797979" fill-opacity="1.0" id="x797979_r121_g121_b121_a1.0_shape1"/>
    <path d="M 22,16 21,16 21,15 22,15 z" fill="#797979" fill-opacity="1.0" id="x797979_r121_g121_b121_a1.0_shape2"/>
  </g>
  <g id="x3dacff_r61_g172_b255_a1.0">
    <path d="M 17,28 17,29 16,29 16,28 z" fill="#3dacff" fill-opacity="1.0" id="x3dacff_r61_g172_b255_a1.0_shape1"/>
  </g>
</svg>
