<?xml version="1.0" encoding="utf-8" ?>
<svg xmlns="http://www.w3.org/2000/svg" xmlns:ev="http://www.w3.org/2001/xml-events" xmlns:xlink="http://www.w3.org/1999/xlink" baseProfile="full" height="32px" version="1.1" viewBox="0 0 32 32" width="32px">
  <defs/>
  <g id="x407742_r64_g119_b66_a1.0">
    <path d="M 7,19 7,16 8,16 8,7 9,7 9,6 10,6 10,5 11,5 11,4 13,4 13,3 15,3 19,3 19,4 21,4 21,5 22,5 22,6 23,6 23,7 24,7 24,16 25,16 25,19 z" fill="#407742" fill-opacity="1.0" id="x407742_r64_g119_b66_a1.0_shape1"/>
  </g>
  <g id="x000000_r0_g0_b0_a1.0">
    <path d="M 15,21 15,27 14,27 14,24 14,21 10,21 5,21 5,14 6,14 6,10 6,5 7,5 7,4 8,4 8,3 10,3 10,2 11,2 11,1 21,1 21,2 22,2 22,3 23,3 24,3 24,4 25,4 25,5 26,5 26,6 26,14 27,14 27,21 25,21 18,21 18,22 18,27 17,27 17,21 z M 24,6 24,5 23,5 23,4 21,4 21,3 20,3 20,2 12,2 12,3 11,3 11,4 9,4 9,5 8,5 8,6 7,6 7,11 7,15 6,15 6,20 26,20 26,15 25,15 25,6 z" fill="#000000" fill-opacity="1.0" id="x000000_r0_g0_b0_a1.0_shape1"/>
    <path d="M 14,28 15,28 15,29 14,29 z" fill="#000000" fill-opacity="1.0" id="x000000_r0_g0_b0_a1.0_shape2"/>
    <path d="M 17,28 18,28 18,29 17,29 z" fill="#000000" fill-opacity="1.0" id="x000000_r0_g0_b0_a1.0_shape3"/>
    <path d="M 13,29 14,29 14,30 13,30 z" fill="#000000" fill-opacity="1.0" id="x000000_r0_g0_b0_a1.0_shape4"/>
    <path d="M 19,30 18,30 18,29 19,29 z" fill="#000000" fill-opacity="1.0" id="x000000_r0_g0_b0_a1.0_shape5"/>
    <path d="M 12,31 12,30 13,30 13,31 z" fill="#000000" fill-opacity="1.0" id="x000000_r0_g0_b0_a1.0_shape6"/>
    <path d="M 19,31 19,30 20,30 20,31 z" fill="#000000" fill-opacity="1.0" id="x000000_r0_g0_b0_a1.0_shape7"/>
  </g>
  <g id="x004100_r0_g65_b0_a1.0">
    <path d="M 24,16 24,7 23,7 23,6 22,6 22,5 21,5 21,4 23,4 23,5 24,5 24,6 25,6 25,15 26,15 26,20 6,20 6,15 7,15 7,6 8,6 8,5 9,5 9,4 11,4 11,5 10,5 10,6 9,6 9,7 8,7 8,16 7,16 7,19 25,19 25,16 z" fill="#004100" fill-opacity="1.0" id="x004100_r0_g65_b0_a1.0_shape1"/>
    <path d="M 12,3 12,2 17,2 20,2 20,3 21,3 21,4 19,4 19,3 14,3 13,3 13,4 12,4 11,4 11,3 z" fill="#004100" fill-opacity="1.0" id="x004100_r0_g65_b0_a1.0_shape2"/>
  </g>
  <g id="x424100_r66_g65_b0_a1.0">
    <path d="M 17,27 15,27 15,21 17,21 z" fill="#424100" fill-opacity="1.0" id="x424100_r66_g65_b0_a1.0_shape1"/>
    <path d="M 17,28 17,29 16,29 15,29 15,28 16,28 z" fill="#424100" fill-opacity="1.0" id="x424100_r66_g65_b0_a1.0_shape2"/>
    <path d="M 14,29 15,29 15,30 14,30 z" fill="#424100" fill-opacity="1.0" id="x424100_r66_g65_b0_a1.0_shape3"/>
    <path d="M 18,29 18,30 17,30 17,29 z" fill="#424100" fill-opacity="1.0" id="x424100_r66_g65_b0_a1.0_shape4"/>
    <path d="M 14,30 14,31 13,31 13,30 z" fill="#424100" fill-opacity="1.0" id="x424100_r66_g65_b0_a1.0_shape5"/>
    <path d="M 19,30 19,31 18,31 18,30 z" fill="#424100" fill-opacity="1.0" id="x424100_r66_g65_b0_a1.0_shape6"/>
  </g>
  <g id="x797842_r121_g120_b66_a1.0">
    <path d="M 15,29 17,29 17,30 15,30 z" fill="#797842" fill-opacity="1.0" id="x797842_r121_g120_b66_a1.0_shape1"/>
    <path d="M 14,31 14,30 15,30 15,31 z" fill="#797842" fill-opacity="1.0" id="x797842_r121_g120_b66_a1.0_shape2"/>
    <path d="M 17,31 17,30 18,30 18,31 z" fill="#797842" fill-opacity="1.0" id="x797842_r121_g120_b66_a1.0_shape3"/>
  </g>
  <g id="xa9a9a9_r169_g169_b169_a1.0">
    <path d="M 15,27 15,28 14,28 14,27 z" fill="#a9a9a9" fill-opacity="1.0" id="xa9a9a9_r169_g169_b169_a1.0_shape1"/>
    <path d="M 18,27 18,28 17,28 17,27 z" fill="#a9a9a9" fill-opacity="1.0" id="xa9a9a9_r169_g169_b169_a1.0_shape2"/>
  </g>
  <g id="xffffff_r255_g255_b255_a1.0">
    <path d="M 15,27 17,27 17,28 15,28 z" fill="#ffffff" fill-opacity="1.0" id="xffffff_r255_g255_b255_a1.0_shape1"/>
  </g>
  <g id="xa9a879_r169_g168_b121_a1.0">
    <path d="M 15,31 15,30 16,30 17,30 17,31 16,31 z" fill="#a9a879" fill-opacity="1.0" id="xa9a879_r169_g168_b121_a1.0_shape1"/>
  </g>
</svg>
