<?xml version="1.0" encoding="utf-8" ?>
<svg xmlns="http://www.w3.org/2000/svg" xmlns:ev="http://www.w3.org/2001/xml-events" xmlns:xlink="http://www.w3.org/1999/xlink" baseProfile="full" height="32px" version="1.1" viewBox="0 0 32 32" width="32px">
  <defs/>
  <g id="x004100_r0_g65_b0_a1.0">
    <path d="M 18,20 19,20 19,17 20,17 20,21 19,21 19,23 18,23 z" fill="#004100" fill-opacity="1.0" id="x004100_r0_g65_b0_a1.0_shape1"/>
    <path d="M 13,20 13,17 14,17 14,20 z" fill="#004100" fill-opacity="1.0" id="x004100_r0_g65_b0_a1.0_shape2"/>
    <path d="M 15,20 15,23 14,23 14,20 z" fill="#004100" fill-opacity="1.0" id="x004100_r0_g65_b0_a1.0_shape3"/>
    <path d="M 15,24 15,23 18,23 18,24 z" fill="#004100" fill-opacity="1.0" id="x004100_r0_g65_b0_a1.0_shape4"/>
    <path d="M 17,15 16,15 16,14 17,14 z" fill="#004100" fill-opacity="1.0" id="x004100_r0_g65_b0_a1.0_shape5"/>
    <path d="M 16,15 16,16 15,16 15,15 z" fill="#004100" fill-opacity="1.0" id="x004100_r0_g65_b0_a1.0_shape6"/>
    <path d="M 17,15 18,15 18,16 17,16 z" fill="#004100" fill-opacity="1.0" id="x004100_r0_g65_b0_a1.0_shape7"/>
    <path d="M 14,17 14,16 15,16 15,17 z" fill="#004100" fill-opacity="1.0" id="x004100_r0_g65_b0_a1.0_shape8"/>
    <path d="M 19,17 18,17 18,16 19,16 z" fill="#004100" fill-opacity="1.0" id="x004100_r0_g65_b0_a1.0_shape9"/>
  </g>
  <g id="x407742_r64_g119_b66_a1.0">
    <path d="M 15,23 15,20 16,20 16,22 17,22 17,20 18,20 18,23 z" fill="#407742" fill-opacity="1.0" id="x407742_r64_g119_b66_a1.0_shape1"/>
    <path d="M 14,17 15,17 15,19 15,20 14,20 14,19 z" fill="#407742" fill-opacity="1.0" id="x407742_r64_g119_b66_a1.0_shape2"/>
    <path d="M 19,20 18,20 18,17 19,17 z" fill="#407742" fill-opacity="1.0" id="x407742_r64_g119_b66_a1.0_shape3"/>
    <path d="M 17,15 17,16 16,16 16,15 z" fill="#407742" fill-opacity="1.0" id="x407742_r64_g119_b66_a1.0_shape4"/>
    <path d="M 16,17 15,17 15,16 16,16 z" fill="#407742" fill-opacity="1.0" id="x407742_r64_g119_b66_a1.0_shape5"/>
    <path d="M 18,17 17,17 17,16 18,16 z" fill="#407742" fill-opacity="1.0" id="x407742_r64_g119_b66_a1.0_shape6"/>
    <path d="M 16,26 15,26 15,25 16,25 z" fill="#407742" fill-opacity="1.0" id="x407742_r64_g119_b66_a1.0_shape7"/>
  </g>
  <g id="x78a779_r120_g167_b121_a1.0">
    <path d="M 17,22 16,22 16,20 15,20 15,17 16,17 16,16 17,16 17,17 18,17 18,20 17,20 z" fill="#78a779" fill-opacity="1.0" id="x78a779_r120_g167_b121_a1.0_shape1"/>
  </g>
  <g id="x424100_r66_g65_b0_a1.0">
    <path d="M 16,24 17,24 17,27 16,27 z" fill="#424100" fill-opacity="1.0" id="x424100_r66_g65_b0_a1.0_shape1"/>
    <path d="M 16,30 16,28 17,28 17,30 z" fill="#424100" fill-opacity="1.0" id="x424100_r66_g65_b0_a1.0_shape2"/>
  </g>
  <g id="xa9a879_r169_g168_b121_a1.0">
    <path d="M 15,29 16,29 16,30 15,30 z" fill="#a9a879" fill-opacity="1.0" id="xa9a879_r169_g168_b121_a1.0_shape1"/>
    <path d="M 18,29 18,30 17,30 17,29 z" fill="#a9a879" fill-opacity="1.0" id="xa9a879_r169_g168_b121_a1.0_shape2"/>
  </g>
  <g id="xffffff_r255_g255_b255_a1.0">
    <path d="M 17,27 17,28 16,28 16,27 z" fill="#ffffff" fill-opacity="1.0" id="xffffff_r255_g255_b255_a1.0_shape1"/>
  </g>
</svg>
