<?xml version="1.0" encoding="utf-8" ?>
<svg xmlns="http://www.w3.org/2000/svg" xmlns:ev="http://www.w3.org/2001/xml-events" xmlns:xlink="http://www.w3.org/1999/xlink" baseProfile="full" height="32px" version="1.1" viewBox="0 0 32 32" width="32px">
  <defs/>
  <g id="x005900_r0_g89_b0_a1.0">
    <path d="M 23,19 23,20 21,20 17,20 17,18 15,18 15,15 14,15 14,13 15,13 15,12 16,12 16,9 16,7 19,7 19,6 26,6 26,7 27,7 27,8 28,8 28,12 28,15 27,15 27,18 26,18 26,19 25,19 z M 27,12 27,9 26,9 26,12 z M 24,10 24,9 23,9 23,10 z M 23,16 22,16 22,17 23,17 23,18 24,18 24,17 23,17 z M 22,18 20,18 20,19 22,19 z M 17,16 17,15 16,15 16,16 17,16 17,17 19,17 19,16 18,16 z M 17,9 18,9 18,8 17,8 z M 22,9 22,7 21,7 20,7 20,8 21,8 21,9 z M 25,17 25,18 26,18 26,17 z M 23,12 23,13 24,13 25,13 25,12 24,12 z M 18,13 17,13 17,14 18,14 19,14 19,13 z M 21,15 20,15 20,16 21,16 z M 20,11 20,12 21,12 21,11 z M 27,14 26,14 26,15 27,15 z" fill="#005900" fill-opacity="1.0" id="x005900_r0_g89_b0_a1.0_shape1"/>
    <path d="M 7,12 9,12 9,13 7,13 z" fill="#005900" fill-opacity="1.0" id="x005900_r0_g89_b0_a1.0_shape2"/>
    <path d="M 7,17 8,17 8,18 7,18 6,18 6,17 z" fill="#005900" fill-opacity="1.0" id="x005900_r0_g89_b0_a1.0_shape3"/>
    <path d="M 12,1 11,1 11,0 12,0 z" fill="#005900" fill-opacity="1.0" id="x005900_r0_g89_b0_a1.0_shape4"/>
    <path d="M 10,7 10,6 11,6 11,7 z" fill="#005900" fill-opacity="1.0" id="x005900_r0_g89_b0_a1.0_shape5"/>
    <path d="M 9,8 9,7 10,7 10,8 z" fill="#005900" fill-opacity="1.0" id="x005900_r0_g89_b0_a1.0_shape6"/>
    <path d="M 8,8 9,8 9,9 8,9 z" fill="#005900" fill-opacity="1.0" id="x005900_r0_g89_b0_a1.0_shape7"/>
    <path d="M 10,9 11,9 11,10 10,10 z" fill="#005900" fill-opacity="1.0" id="x005900_r0_g89_b0_a1.0_shape8"/>
    <path d="M 10,12 9,12 9,11 10,11 z" fill="#005900" fill-opacity="1.0" id="x005900_r0_g89_b0_a1.0_shape9"/>
    <path d="M 6,14 6,13 7,13 7,14 z" fill="#005900" fill-opacity="1.0" id="x005900_r0_g89_b0_a1.0_shape10"/>
    <path d="M 11,14 10,14 10,13 11,13 z" fill="#005900" fill-opacity="1.0" id="x005900_r0_g89_b0_a1.0_shape11"/>
    <path d="M 5,15 5,14 6,14 6,15 z" fill="#005900" fill-opacity="1.0" id="x005900_r0_g89_b0_a1.0_shape12"/>
    <path d="M 9,15 10,15 10,16 9,16 z" fill="#005900" fill-opacity="1.0" id="x005900_r0_g89_b0_a1.0_shape13"/>
    <path d="M 9,16 9,17 8,17 8,16 z" fill="#005900" fill-opacity="1.0" id="x005900_r0_g89_b0_a1.0_shape14"/>
    <path d="M 6,18 6,19 5,19 5,18 z" fill="#005900" fill-opacity="1.0" id="x005900_r0_g89_b0_a1.0_shape15"/>
    <path d="M 4,20 4,19 5,19 5,20 z" fill="#005900" fill-opacity="1.0" id="x005900_r0_g89_b0_a1.0_shape16"/>
  </g>
  <g id="x004100_r0_g65_b0_a1.0">
    <path d="M 14,9 13,9 13,10 14,10 14,11 13,11 13,12 12,12 12,15 13,15 13,18 14,18 14,19 6,19 6,18 8,18 8,17 9,17 9,16 10,16 10,14 11,14 11,13 10,13 10,14 7,14 7,13 9,13 9,12 10,12 10,10 11,10 11,9 9,9 9,8 10,8 10,7 11,7 11,5 10,5 10,4 11,4 11,2 11,1 13,1 13,2 12,2 12,3 13,3 13,4 14,4 14,5 12,5 12,6 13,6 13,7 14,7 z" fill="#004100" fill-opacity="1.0" id="x004100_r0_g65_b0_a1.0_shape1"/>
    <path d="M 27,15 28,15 28,18 27,18 z" fill="#004100" fill-opacity="1.0" id="x004100_r0_g65_b0_a1.0_shape2"/>
    <path d="M 26,20 23,20 23,19 26,19 z" fill="#004100" fill-opacity="1.0" id="x004100_r0_g65_b0_a1.0_shape3"/>
    <path d="M 18,17 17,17 17,16 18,16 19,16 19,17 z" fill="#004100" fill-opacity="1.0" id="x004100_r0_g65_b0_a1.0_shape4"/>
    <path d="M 20,7 21,7 21,8 20,8 z" fill="#004100" fill-opacity="1.0" id="x004100_r0_g65_b0_a1.0_shape5"/>
    <path d="M 22,9 21,9 21,8 22,8 z" fill="#004100" fill-opacity="1.0" id="x004100_r0_g65_b0_a1.0_shape6"/>
    <path d="M 23,13 23,12 24,12 24,13 z" fill="#004100" fill-opacity="1.0" id="x004100_r0_g65_b0_a1.0_shape7"/>
    <path d="M 17,14 17,13 18,13 18,14 z" fill="#004100" fill-opacity="1.0" id="x004100_r0_g65_b0_a1.0_shape8"/>
    <path d="M 27,15 26,15 26,14 27,14 z" fill="#004100" fill-opacity="1.0" id="x004100_r0_g65_b0_a1.0_shape9"/>
    <path d="M 23,16 23,17 22,17 22,16 z" fill="#004100" fill-opacity="1.0" id="x004100_r0_g65_b0_a1.0_shape10"/>
    <path d="M 26,18 25,18 25,17 26,17 z" fill="#004100" fill-opacity="1.0" id="x004100_r0_g65_b0_a1.0_shape11"/>
    <path d="M 17,18 17,19 16,19 16,18 z" fill="#004100" fill-opacity="1.0" id="x004100_r0_g65_b0_a1.0_shape12"/>
    <path d="M 20,19 20,18 21,18 21,19 z" fill="#004100" fill-opacity="1.0" id="x004100_r0_g65_b0_a1.0_shape13"/>
    <path d="M 26,18 27,18 27,19 26,19 z" fill="#004100" fill-opacity="1.0" id="x004100_r0_g65_b0_a1.0_shape14"/>
    <path d="M 5,19 6,19 6,20 5,20 z" fill="#004100" fill-opacity="1.0" id="x004100_r0_g65_b0_a1.0_shape15"/>
  </g>
  <g id="x4e9151_r78_g145_b81_a1.0">
    <path d="M 17,6 17,5 22,5 24,5 24,6 23,6 z" fill="#4e9151" fill-opacity="1.0" id="x4e9151_r78_g145_b81_a1.0_shape1"/>
    <path d="M 14,11 14,7 15,7 15,11 z" fill="#4e9151" fill-opacity="1.0" id="x4e9151_r78_g145_b81_a1.0_shape2"/>
    <path d="M 12,12 13,12 13,14 13,15 12,15 12,14 z" fill="#4e9151" fill-opacity="1.0" id="x4e9151_r78_g145_b81_a1.0_shape3"/>
    <path d="M 13,15 14,15 14,18 13,18 z" fill="#4e9151" fill-opacity="1.0" id="x4e9151_r78_g145_b81_a1.0_shape4"/>
    <path d="M 11,2 10,2 10,1 11,1 z" fill="#4e9151" fill-opacity="1.0" id="x4e9151_r78_g145_b81_a1.0_shape5"/>
    <path d="M 10,4 10,3 11,3 11,4 z" fill="#4e9151" fill-opacity="1.0" id="x4e9151_r78_g145_b81_a1.0_shape6"/>
    <path d="M 9,5 9,4 10,4 10,5 z" fill="#4e9151" fill-opacity="1.0" id="x4e9151_r78_g145_b81_a1.0_shape7"/>
    <path d="M 16,6 16,7 15,7 15,6 z" fill="#4e9151" fill-opacity="1.0" id="x4e9151_r78_g145_b81_a1.0_shape8"/>
    <path d="M 8,8 8,7 9,7 9,8 z" fill="#4e9151" fill-opacity="1.0" id="x4e9151_r78_g145_b81_a1.0_shape9"/>
    <path d="M 8,9 7,9 7,8 8,8 z" fill="#4e9151" fill-opacity="1.0" id="x4e9151_r78_g145_b81_a1.0_shape10"/>
    <path d="M 9,10 10,10 10,11 9,11 z" fill="#4e9151" fill-opacity="1.0" id="x4e9151_r78_g145_b81_a1.0_shape11"/>
    <path d="M 9,12 8,12 8,11 9,11 z" fill="#4e9151" fill-opacity="1.0" id="x4e9151_r78_g145_b81_a1.0_shape12"/>
    <path d="M 13,11 14,11 14,12 13,12 z" fill="#4e9151" fill-opacity="1.0" id="x4e9151_r78_g145_b81_a1.0_shape13"/>
    <path d="M 6,12 7,12 7,13 6,13 z" fill="#4e9151" fill-opacity="1.0" id="x4e9151_r78_g145_b81_a1.0_shape14"/>
    <path d="M 6,13 6,14 5,14 5,13 z" fill="#4e9151" fill-opacity="1.0" id="x4e9151_r78_g145_b81_a1.0_shape15"/>
    <path d="M 5,15 4,15 4,14 5,14 z" fill="#4e9151" fill-opacity="1.0" id="x4e9151_r78_g145_b81_a1.0_shape16"/>
    <path d="M 10,14 10,15 9,15 9,14 z" fill="#4e9151" fill-opacity="1.0" id="x4e9151_r78_g145_b81_a1.0_shape17"/>
    <path d="M 8,15 9,15 9,16 8,16 z" fill="#4e9151" fill-opacity="1.0" id="x4e9151_r78_g145_b81_a1.0_shape18"/>
    <path d="M 7,16 8,16 8,17 7,17 z" fill="#4e9151" fill-opacity="1.0" id="x4e9151_r78_g145_b81_a1.0_shape19"/>
    <path d="M 5,17 6,17 6,18 5,18 z" fill="#4e9151" fill-opacity="1.0" id="x4e9151_r78_g145_b81_a1.0_shape20"/>
    <path d="M 4,18 5,18 5,19 4,19 z" fill="#4e9151" fill-opacity="1.0" id="x4e9151_r78_g145_b81_a1.0_shape21"/>
    <path d="M 15,19 14,19 14,18 15,18 z" fill="#4e9151" fill-opacity="1.0" id="x4e9151_r78_g145_b81_a1.0_shape22"/>
    <path d="M 3,20 3,19 4,19 4,20 z" fill="#4e9151" fill-opacity="1.0" id="x4e9151_r78_g145_b81_a1.0_shape23"/>
    <path d="M 16,19 16,20 15,20 15,19 z" fill="#4e9151" fill-opacity="1.0" id="x4e9151_r78_g145_b81_a1.0_shape24"/>
  </g>
  <g id="x407742_r64_g119_b66_a1.0">
    <path d="M 16,11 16,12 15,12 15,13 14,13 14,15 13,15 13,12 14,12 14,11 15,11 15,9 15,7 16,7 z" fill="#407742" fill-opacity="1.0" id="x407742_r64_g119_b66_a1.0_shape1"/>
    <path d="M 19,6 19,7 16,7 16,6 z" fill="#407742" fill-opacity="1.0" id="x407742_r64_g119_b66_a1.0_shape2"/>
    <path d="M 27,9 27,12 26,12 26,9 z" fill="#407742" fill-opacity="1.0" id="x407742_r64_g119_b66_a1.0_shape3"/>
    <path d="M 14,18 14,15 15,15 15,18 z" fill="#407742" fill-opacity="1.0" id="x407742_r64_g119_b66_a1.0_shape4"/>
    <path d="M 22,7 22,8 21,8 21,7 z" fill="#407742" fill-opacity="1.0" id="x407742_r64_g119_b66_a1.0_shape5"/>
    <path d="M 17,8 18,8 18,9 17,9 z" fill="#407742" fill-opacity="1.0" id="x407742_r64_g119_b66_a1.0_shape6"/>
    <path d="M 23,10 23,9 24,9 24,10 z" fill="#407742" fill-opacity="1.0" id="x407742_r64_g119_b66_a1.0_shape7"/>
    <path d="M 21,11 21,12 20,12 20,11 z" fill="#407742" fill-opacity="1.0" id="x407742_r64_g119_b66_a1.0_shape8"/>
    <path d="M 25,12 25,13 24,13 24,12 z" fill="#407742" fill-opacity="1.0" id="x407742_r64_g119_b66_a1.0_shape9"/>
    <path d="M 18,13 19,13 19,14 18,14 z" fill="#407742" fill-opacity="1.0" id="x407742_r64_g119_b66_a1.0_shape10"/>
    <path d="M 17,15 17,16 16,16 16,15 z" fill="#407742" fill-opacity="1.0" id="x407742_r64_g119_b66_a1.0_shape11"/>
    <path d="M 21,15 21,16 20,16 20,15 z" fill="#407742" fill-opacity="1.0" id="x407742_r64_g119_b66_a1.0_shape12"/>
    <path d="M 24,18 23,18 23,17 24,17 z" fill="#407742" fill-opacity="1.0" id="x407742_r64_g119_b66_a1.0_shape13"/>
    <path d="M 15,18 16,18 16,19 15,19 z" fill="#407742" fill-opacity="1.0" id="x407742_r64_g119_b66_a1.0_shape14"/>
    <path d="M 21,18 22,18 22,19 21,19 z" fill="#407742" fill-opacity="1.0" id="x407742_r64_g119_b66_a1.0_shape15"/>
    <path d="M 16,20 16,19 17,19 17,20 z" fill="#407742" fill-opacity="1.0" id="x407742_r64_g119_b66_a1.0_shape16"/>
  </g>
  <g id="x000000_r0_g0_b0_a1.0">
    <path d="M 21,27 21,20 22,20 22,21 23,21 23,20 24,20 24,22 23,22 23,23 22,23 22,24 22,28 22,30 21,30 z" fill="#000000" fill-opacity="1.0" id="x000000_r0_g0_b0_a1.0_shape1"/>
    <path d="M 12,19 13,19 13,20 14,20 14,21 13,21 13,29 12,29 12,26 z" fill="#000000" fill-opacity="1.0" id="x000000_r0_g0_b0_a1.0_shape2"/>
    <path d="M 13,29 14,29 14,30 13,30 z" fill="#000000" fill-opacity="1.0" id="x000000_r0_g0_b0_a1.0_shape3"/>
    <path d="M 22,30 23,30 23,31 22,31 z" fill="#000000" fill-opacity="1.0" id="x000000_r0_g0_b0_a1.0_shape4"/>
  </g>
  <g id="x919050_r145_g144_b80_a1.0">
    <path d="M 10,22 9,22 9,21 10,21 10,19 11,19 11,29 10,29 10,28 z" fill="#919050" fill-opacity="1.0" id="x919050_r145_g144_b80_a1.0_shape1"/>
    <path d="M 20,30 19,30 19,28 19,23 18,23 18,22 19,22 19,20 20,20 z" fill="#919050" fill-opacity="1.0" id="x919050_r145_g144_b80_a1.0_shape2"/>
    <path d="M 17,23 18,23 18,24 17,24 z" fill="#919050" fill-opacity="1.0" id="x919050_r145_g144_b80_a1.0_shape3"/>
    <path d="M 9,30 9,29 10,29 10,30 z" fill="#919050" fill-opacity="1.0" id="x919050_r145_g144_b80_a1.0_shape4"/>
    <path d="M 19,30 19,31 18,31 18,30 z" fill="#919050" fill-opacity="1.0" id="x919050_r145_g144_b80_a1.0_shape5"/>
  </g>
  <g id="x424100_r66_g65_b0_a1.0">
    <path d="M 11,19 12,19 12,29 11,29 z" fill="#424100" fill-opacity="1.0" id="x424100_r66_g65_b0_a1.0_shape1"/>
    <path d="M 21,30 20,30 20,21 20,20 21,20 21,21 z" fill="#424100" fill-opacity="1.0" id="x424100_r66_g65_b0_a1.0_shape2"/>
    <path d="M 10,30 10,29 11,29 11,30 z" fill="#424100" fill-opacity="1.0" id="x424100_r66_g65_b0_a1.0_shape3"/>
    <path d="M 13,29 13,30 12,30 12,29 z" fill="#424100" fill-opacity="1.0" id="x424100_r66_g65_b0_a1.0_shape4"/>
    <path d="M 19,31 19,30 20,30 20,31 z" fill="#424100" fill-opacity="1.0" id="x424100_r66_g65_b0_a1.0_shape5"/>
    <path d="M 22,31 21,31 21,30 22,30 z" fill="#424100" fill-opacity="1.0" id="x424100_r66_g65_b0_a1.0_shape6"/>
  </g>
  <g id="xb6b6aa_r182_g182_b170_a1.0">
    <path d="M 12,30 11,30 11,29 12,29 z" fill="#b6b6aa" fill-opacity="1.0" id="xb6b6aa_r182_g182_b170_a1.0_shape1"/>
    <path d="M 21,31 20,31 20,30 21,30 z" fill="#b6b6aa" fill-opacity="1.0" id="xb6b6aa_r182_g182_b170_a1.0_shape2"/>
  </g>
</svg>
