<?xml version="1.0" encoding="utf-8" ?>
<svg xmlns="http://www.w3.org/2000/svg" xmlns:ev="http://www.w3.org/2001/xml-events" xmlns:xlink="http://www.w3.org/1999/xlink" baseProfile="full" height="32px" version="1.1" viewBox="0 0 32 32" width="32px">
  <defs/>
  <g id="x005900_r0_g89_b0_a1.0">
    <path d="M 15,7 15,6 22,6 22,7 23,7 23,8 24,8 24,15 23,15 23,14 22,14 22,15 23,15 23,18 22,18 22,17 21,17 21,18 22,18 22,19 19,19 19,20 13,20 13,18 11,18 11,15 10,15 10,13 11,13 11,12 12,12 12,7 z M 20,9 19,9 19,10 20,10 z M 19,17 19,18 20,18 20,17 19,17 19,16 18,16 18,17 z M 13,14 15,14 15,13 13,13 z M 13,16 13,15 12,15 12,16 13,16 13,17 15,17 15,16 z M 16,7 16,8 17,8 17,9 18,9 18,8 18,7 z M 21,12 19,12 19,13 21,13 z M 17,16 17,15 16,15 16,16 z M 16,18 16,19 17,19 18,19 18,18 17,18 z M 13,8 13,9 14,9 14,8 z M 23,9 22,9 22,12 23,12 z M 16,11 16,12 17,12 17,11 z" fill="#005900" fill-opacity="1.0" id="x005900_r0_g89_b0_a1.0_shape1"/>
  </g>
  <g id="x407742_r64_g119_b66_a1.0">
    <path d="M 12,12 11,12 11,13 10,13 10,15 9,15 9,12 10,12 10,11 11,11 11,7 12,7 12,10 z" fill="#407742" fill-opacity="1.0" id="x407742_r64_g119_b66_a1.0_shape1"/>
    <path d="M 12,7 12,6 15,6 15,7 z" fill="#407742" fill-opacity="1.0" id="x407742_r64_g119_b66_a1.0_shape2"/>
    <path d="M 23,12 22,12 22,9 23,9 z" fill="#407742" fill-opacity="1.0" id="x407742_r64_g119_b66_a1.0_shape3"/>
    <path d="M 11,15 11,18 10,18 10,15 z" fill="#407742" fill-opacity="1.0" id="x407742_r64_g119_b66_a1.0_shape4"/>
    <path d="M 17,8 17,7 18,7 18,8 z" fill="#407742" fill-opacity="1.0" id="x407742_r64_g119_b66_a1.0_shape5"/>
    <path d="M 13,8 14,8 14,9 13,9 z" fill="#407742" fill-opacity="1.0" id="x407742_r64_g119_b66_a1.0_shape6"/>
    <path d="M 19,9 20,9 20,10 19,10 z" fill="#407742" fill-opacity="1.0" id="x407742_r64_g119_b66_a1.0_shape7"/>
    <path d="M 17,11 17,12 16,12 16,11 z" fill="#407742" fill-opacity="1.0" id="x407742_r64_g119_b66_a1.0_shape8"/>
    <path d="M 21,12 21,13 20,13 20,12 z" fill="#407742" fill-opacity="1.0" id="x407742_r64_g119_b66_a1.0_shape9"/>
    <path d="M 14,14 14,13 15,13 15,14 z" fill="#407742" fill-opacity="1.0" id="x407742_r64_g119_b66_a1.0_shape10"/>
    <path d="M 12,16 12,15 13,15 13,16 z" fill="#407742" fill-opacity="1.0" id="x407742_r64_g119_b66_a1.0_shape11"/>
    <path d="M 17,15 17,16 16,16 16,15 z" fill="#407742" fill-opacity="1.0" id="x407742_r64_g119_b66_a1.0_shape12"/>
    <path d="M 20,17 20,18 19,18 19,17 z" fill="#407742" fill-opacity="1.0" id="x407742_r64_g119_b66_a1.0_shape13"/>
    <path d="M 12,18 12,19 11,19 11,18 z" fill="#407742" fill-opacity="1.0" id="x407742_r64_g119_b66_a1.0_shape14"/>
    <path d="M 17,18 18,18 18,19 17,19 z" fill="#407742" fill-opacity="1.0" id="x407742_r64_g119_b66_a1.0_shape15"/>
    <path d="M 13,19 13,20 12,20 12,19 z" fill="#407742" fill-opacity="1.0" id="x407742_r64_g119_b66_a1.0_shape16"/>
  </g>
  <g id="x4e9151_r78_g145_b81_a1.0">
    <path d="M 20,5 20,6 15,6 13,6 13,5 14,5 z" fill="#4e9151" fill-opacity="1.0" id="x4e9151_r78_g145_b81_a1.0_shape1"/>
    <path d="M 11,7 11,11 10,11 10,7 z" fill="#4e9151" fill-opacity="1.0" id="x4e9151_r78_g145_b81_a1.0_shape2"/>
    <path d="M 9,15 8,15 8,12 9,12 z" fill="#4e9151" fill-opacity="1.0" id="x4e9151_r78_g145_b81_a1.0_shape3"/>
    <path d="M 10,18 9,18 9,15 10,15 z" fill="#4e9151" fill-opacity="1.0" id="x4e9151_r78_g145_b81_a1.0_shape4"/>
    <path d="M 12,6 12,7 11,7 11,6 z" fill="#4e9151" fill-opacity="1.0" id="x4e9151_r78_g145_b81_a1.0_shape5"/>
    <path d="M 10,12 9,12 9,11 10,11 z" fill="#4e9151" fill-opacity="1.0" id="x4e9151_r78_g145_b81_a1.0_shape6"/>
    <path d="M 10,18 11,18 11,19 10,19 z" fill="#4e9151" fill-opacity="1.0" id="x4e9151_r78_g145_b81_a1.0_shape7"/>
    <path d="M 11,20 11,19 12,19 12,20 z" fill="#4e9151" fill-opacity="1.0" id="x4e9151_r78_g145_b81_a1.0_shape8"/>
  </g>
  <g id="x004100_r0_g65_b0_a1.0">
    <path d="M 23,15 24,15 24,18 23,18 z" fill="#004100" fill-opacity="1.0" id="x004100_r0_g65_b0_a1.0_shape1"/>
    <path d="M 19,20 19,19 22,19 22,20 z" fill="#004100" fill-opacity="1.0" id="x004100_r0_g65_b0_a1.0_shape2"/>
    <path d="M 13,17 13,16 14,16 15,16 15,17 14,17 z" fill="#004100" fill-opacity="1.0" id="x004100_r0_g65_b0_a1.0_shape3"/>
    <path d="M 16,7 17,7 17,8 16,8 z" fill="#004100" fill-opacity="1.0" id="x004100_r0_g65_b0_a1.0_shape4"/>
    <path d="M 17,8 18,8 18,9 17,9 z" fill="#004100" fill-opacity="1.0" id="x004100_r0_g65_b0_a1.0_shape5"/>
    <path d="M 20,12 20,13 19,13 19,12 z" fill="#004100" fill-opacity="1.0" id="x004100_r0_g65_b0_a1.0_shape6"/>
    <path d="M 13,13 14,13 14,14 13,14 z" fill="#004100" fill-opacity="1.0" id="x004100_r0_g65_b0_a1.0_shape7"/>
    <path d="M 23,15 22,15 22,14 23,14 z" fill="#004100" fill-opacity="1.0" id="x004100_r0_g65_b0_a1.0_shape8"/>
    <path d="M 19,17 18,17 18,16 19,16 z" fill="#004100" fill-opacity="1.0" id="x004100_r0_g65_b0_a1.0_shape9"/>
    <path d="M 22,17 22,18 21,18 21,17 z" fill="#004100" fill-opacity="1.0" id="x004100_r0_g65_b0_a1.0_shape10"/>
    <path d="M 13,19 12,19 12,18 13,18 z" fill="#004100" fill-opacity="1.0" id="x004100_r0_g65_b0_a1.0_shape11"/>
    <path d="M 17,18 17,19 16,19 16,18 z" fill="#004100" fill-opacity="1.0" id="x004100_r0_g65_b0_a1.0_shape12"/>
    <path d="M 22,18 23,18 23,19 22,19 z" fill="#004100" fill-opacity="1.0" id="x004100_r0_g65_b0_a1.0_shape13"/>
  </g>
  <g id="x000000_r0_g0_b0_a1.0">
    <path d="M 20,22 19,22 19,23 18,23 18,30 17,30 17,20 18,20 18,21 19,21 19,20 20,20 z" fill="#000000" fill-opacity="1.0" id="x000000_r0_g0_b0_a1.0_shape1"/>
    <path d="M 19,30 19,31 18,31 18,30 z" fill="#000000" fill-opacity="1.0" id="x000000_r0_g0_b0_a1.0_shape2"/>
  </g>
  <g id="x919050_r145_g144_b80_a1.0">
    <path d="M 14,22 15,22 15,20 16,20 16,30 15,30 15,23 14,23 z" fill="#919050" fill-opacity="1.0" id="x919050_r145_g144_b80_a1.0_shape1"/>
    <path d="M 14,23 14,24 13,24 13,23 z" fill="#919050" fill-opacity="1.0" id="x919050_r145_g144_b80_a1.0_shape2"/>
    <path d="M 14,31 14,30 15,30 15,31 z" fill="#919050" fill-opacity="1.0" id="x919050_r145_g144_b80_a1.0_shape3"/>
  </g>
  <g id="x424100_r66_g65_b0_a1.0">
    <path d="M 16,20 17,20 17,30 16,30 z" fill="#424100" fill-opacity="1.0" id="x424100_r66_g65_b0_a1.0_shape1"/>
    <path d="M 15,31 15,30 16,30 16,31 z" fill="#424100" fill-opacity="1.0" id="x424100_r66_g65_b0_a1.0_shape2"/>
    <path d="M 17,31 17,30 18,30 18,31 z" fill="#424100" fill-opacity="1.0" id="x424100_r66_g65_b0_a1.0_shape3"/>
  </g>
  <g id="xb6b6aa_r182_g182_b170_a1.0">
    <path d="M 16,30 17,30 17,31 16,31 z" fill="#b6b6aa" fill-opacity="1.0" id="xb6b6aa_r182_g182_b170_a1.0_shape1"/>
  </g>
</svg>
