<?xml version="1.0" encoding="utf-8" ?>
<svg xmlns="http://www.w3.org/2000/svg" xmlns:ev="http://www.w3.org/2001/xml-events" xmlns:xlink="http://www.w3.org/1999/xlink" baseProfile="full" height="32px" version="1.1" viewBox="0 0 32 32" width="32px">
  <defs/>
  <g id="x004100_r0_g65_b0_a1.0">
    <path d="M 23,15 24,15 24,16 22,16 22,15 19,15 19,16 20,16 20,17 21,17 21,18 23,18 23,19 24,19 24,20 25,20 25,21 22,21 22,20 11,20 11,19 13,19 13,18 14,18 14,17 15,17 15,15 16,15 16,14 15,14 15,15 12,15 12,14 14,14 14,13 15,13 15,11 16,11 16,10 14,10 14,9 15,9 15,8 16,8 16,6 15,6 15,5 16,5 16,2 18,2 18,3 17,3 17,4 18,4 18,5 19,5 19,6 17,6 17,7 18,7 18,8 20,8 20,9 21,9 21,10 18,10 18,11 19,11 19,12 18,12 18,13 19,13 19,12 20,12 20,13 22,13 22,14 23,14 z M 19,17 18,17 18,18 19,18 z" fill="#004100" fill-opacity="1.0" id="x004100_r0_g65_b0_a1.0_shape1"/>
    <path d="M 10,21 10,20 11,20 11,21 z" fill="#004100" fill-opacity="1.0" id="x004100_r0_g65_b0_a1.0_shape2"/>
  </g>
  <g id="x005900_r0_g89_b0_a1.0">
    <path d="M 14,14 12,14 12,13 14,13 z" fill="#005900" fill-opacity="1.0" id="x005900_r0_g89_b0_a1.0_shape1"/>
    <path d="M 11,18 13,18 13,19 11,19 z" fill="#005900" fill-opacity="1.0" id="x005900_r0_g89_b0_a1.0_shape2"/>
    <path d="M 16,2 16,1 17,1 17,2 z" fill="#005900" fill-opacity="1.0" id="x005900_r0_g89_b0_a1.0_shape3"/>
    <path d="M 15,8 15,7 16,7 16,8 z" fill="#005900" fill-opacity="1.0" id="x005900_r0_g89_b0_a1.0_shape4"/>
    <path d="M 14,9 14,8 15,8 15,9 z" fill="#005900" fill-opacity="1.0" id="x005900_r0_g89_b0_a1.0_shape5"/>
    <path d="M 13,9 14,9 14,10 13,10 z" fill="#005900" fill-opacity="1.0" id="x005900_r0_g89_b0_a1.0_shape6"/>
    <path d="M 16,10 16,11 15,11 15,10 z" fill="#005900" fill-opacity="1.0" id="x005900_r0_g89_b0_a1.0_shape7"/>
    <path d="M 15,12 15,13 14,13 14,12 z" fill="#005900" fill-opacity="1.0" id="x005900_r0_g89_b0_a1.0_shape8"/>
    <path d="M 18,13 18,12 19,12 19,13 z" fill="#005900" fill-opacity="1.0" id="x005900_r0_g89_b0_a1.0_shape9"/>
    <path d="M 11,15 11,14 12,14 12,15 z" fill="#005900" fill-opacity="1.0" id="x005900_r0_g89_b0_a1.0_shape10"/>
    <path d="M 16,15 15,15 15,14 16,14 z" fill="#005900" fill-opacity="1.0" id="x005900_r0_g89_b0_a1.0_shape11"/>
    <path d="M 11,15 11,16 10,16 10,15 z" fill="#005900" fill-opacity="1.0" id="x005900_r0_g89_b0_a1.0_shape12"/>
    <path d="M 14,17 14,16 15,16 15,17 z" fill="#005900" fill-opacity="1.0" id="x005900_r0_g89_b0_a1.0_shape13"/>
    <path d="M 14,18 13,18 13,17 14,17 z" fill="#005900" fill-opacity="1.0" id="x005900_r0_g89_b0_a1.0_shape14"/>
    <path d="M 19,18 18,18 18,17 19,17 z" fill="#005900" fill-opacity="1.0" id="x005900_r0_g89_b0_a1.0_shape15"/>
    <path d="M 10,19 11,19 11,20 10,20 z" fill="#005900" fill-opacity="1.0" id="x005900_r0_g89_b0_a1.0_shape16"/>
    <path d="M 10,21 9,21 9,20 10,20 z" fill="#005900" fill-opacity="1.0" id="x005900_r0_g89_b0_a1.0_shape17"/>
  </g>
  <g id="x4e9151_r78_g145_b81_a1.0">
    <path d="M 15,2 16,2 16,3 15,3 z" fill="#4e9151" fill-opacity="1.0" id="x4e9151_r78_g145_b81_a1.0_shape1"/>
    <path d="M 15,5 15,4 16,4 16,5 z" fill="#4e9151" fill-opacity="1.0" id="x4e9151_r78_g145_b81_a1.0_shape2"/>
    <path d="M 14,6 14,5 15,5 15,6 z" fill="#4e9151" fill-opacity="1.0" id="x4e9151_r78_g145_b81_a1.0_shape3"/>
    <path d="M 13,8 14,8 14,9 13,9 z" fill="#4e9151" fill-opacity="1.0" id="x4e9151_r78_g145_b81_a1.0_shape4"/>
    <path d="M 12,9 13,9 13,10 12,10 z" fill="#4e9151" fill-opacity="1.0" id="x4e9151_r78_g145_b81_a1.0_shape5"/>
    <path d="M 15,11 15,12 14,12 14,11 z" fill="#4e9151" fill-opacity="1.0" id="x4e9151_r78_g145_b81_a1.0_shape6"/>
    <path d="M 13,12 14,12 14,13 13,13 z" fill="#4e9151" fill-opacity="1.0" id="x4e9151_r78_g145_b81_a1.0_shape7"/>
    <path d="M 12,13 12,14 11,14 11,13 z" fill="#4e9151" fill-opacity="1.0" id="x4e9151_r78_g145_b81_a1.0_shape8"/>
    <path d="M 11,14 11,15 10,15 10,14 z" fill="#4e9151" fill-opacity="1.0" id="x4e9151_r78_g145_b81_a1.0_shape9"/>
    <path d="M 9,15 10,15 10,16 9,16 z" fill="#4e9151" fill-opacity="1.0" id="x4e9151_r78_g145_b81_a1.0_shape10"/>
    <path d="M 15,16 14,16 14,15 15,15 z" fill="#4e9151" fill-opacity="1.0" id="x4e9151_r78_g145_b81_a1.0_shape11"/>
    <path d="M 13,17 13,16 14,16 14,17 z" fill="#4e9151" fill-opacity="1.0" id="x4e9151_r78_g145_b81_a1.0_shape12"/>
    <path d="M 12,17 13,17 13,18 12,18 z" fill="#4e9151" fill-opacity="1.0" id="x4e9151_r78_g145_b81_a1.0_shape13"/>
    <path d="M 10,18 11,18 11,19 10,19 z" fill="#4e9151" fill-opacity="1.0" id="x4e9151_r78_g145_b81_a1.0_shape14"/>
    <path d="M 10,20 9,20 9,19 10,19 z" fill="#4e9151" fill-opacity="1.0" id="x4e9151_r78_g145_b81_a1.0_shape15"/>
    <path d="M 8,20 9,20 9,21 8,21 z" fill="#4e9151" fill-opacity="1.0" id="x4e9151_r78_g145_b81_a1.0_shape16"/>
  </g>
  <g id="x919050_r145_g144_b80_a1.0">
    <path d="M 14,22 15,22 15,20 16,20 16,30 15,30 15,23 14,23 z" fill="#919050" fill-opacity="1.0" id="x919050_r145_g144_b80_a1.0_shape1"/>
    <path d="M 14,31 14,30 15,30 15,31 z" fill="#919050" fill-opacity="1.0" id="x919050_r145_g144_b80_a1.0_shape2"/>
  </g>
  <g id="x424100_r66_g65_b0_a1.0">
    <path d="M 16,20 17,20 17,30 16,30 z" fill="#424100" fill-opacity="1.0" id="x424100_r66_g65_b0_a1.0_shape1"/>
    <path d="M 15,31 15,30 16,30 16,31 z" fill="#424100" fill-opacity="1.0" id="x424100_r66_g65_b0_a1.0_shape2"/>
    <path d="M 17,31 17,30 18,30 18,31 z" fill="#424100" fill-opacity="1.0" id="x424100_r66_g65_b0_a1.0_shape3"/>
  </g>
  <g id="x000000_r0_g0_b0_a1.0">
    <path d="M 17,23 17,20 18,20 18,21 19,21 19,22 18,22 18,30 17,30 z" fill="#000000" fill-opacity="1.0" id="x000000_r0_g0_b0_a1.0_shape1"/>
    <path d="M 19,30 19,31 18,31 18,30 z" fill="#000000" fill-opacity="1.0" id="x000000_r0_g0_b0_a1.0_shape2"/>
  </g>
  <g id="xb6b6aa_r182_g182_b170_a1.0">
    <path d="M 16,30 17,30 17,31 16,31 z" fill="#b6b6aa" fill-opacity="1.0" id="xb6b6aa_r182_g182_b170_a1.0_shape1"/>
  </g>
</svg>
