<?xml version="1.0" encoding="utf-8" ?>
<svg xmlns="http://www.w3.org/2000/svg" xmlns:ev="http://www.w3.org/2001/xml-events" xmlns:xlink="http://www.w3.org/1999/xlink" baseProfile="full" height="32px" version="1.1" viewBox="0 0 32 32" width="32px">
  <defs/>
  <g id="x004100_r0_g65_b0_a1.0">
    <path d="M 20,10 20,11 21,11 21,12 18,12 18,13 19,13 19,14 18,14 18,15 19,15 19,14 20,14 20,15 21,15 22,15 22,16 23,16 23,17 24,17 24,18 22,18 22,17 19,17 18,17 16,17 16,16 15,16 15,17 14,17 12,17 12,16 14,16 14,15 15,15 15,14 15,13 16,13 16,12 15,12 14,12 14,11 15,11 15,10 16,10 16,9 16,8 15,8 15,7 16,7 16,6 16,5 16,4 17,4 18,4 18,5 17,5 17,6 18,6 18,7 19,7 19,8 18,8 17,8 17,9 18,9 18,10 z" fill="#004100" fill-opacity="1.0" id="x004100_r0_g65_b0_a1.0_shape1"/>
  </g>
  <g id="x424100_r66_g65_b0_a1.0">
    <path d="M 17,19 17,21 16,21 16,17 17,17 17,18 20,18 20,19 18,19 z" fill="#424100" fill-opacity="1.0" id="x424100_r66_g65_b0_a1.0_shape1"/>
    <path d="M 16,24 17,24 17,27 17,31 16,31 16,27 z" fill="#424100" fill-opacity="1.0" id="x424100_r66_g65_b0_a1.0_shape2"/>
    <path d="M 17,22 17,23 16,23 16,22 z" fill="#424100" fill-opacity="1.0" id="x424100_r66_g65_b0_a1.0_shape3"/>
  </g>
  <g id="x005900_r0_g89_b0_a1.0">
    <path d="M 17,4 16,4 16,3 16,2 17,2 17,3 z" fill="#005900" fill-opacity="1.0" id="x005900_r0_g89_b0_a1.0_shape1"/>
    <path d="M 13,15 14,15 14,16 13,16 12,16 12,15 z" fill="#005900" fill-opacity="1.0" id="x005900_r0_g89_b0_a1.0_shape2"/>
    <path d="M 16,10 15,10 15,9 16,9 z" fill="#005900" fill-opacity="1.0" id="x005900_r0_g89_b0_a1.0_shape3"/>
    <path d="M 15,10 15,11 14,11 14,10 z" fill="#005900" fill-opacity="1.0" id="x005900_r0_g89_b0_a1.0_shape4"/>
    <path d="M 13,11 14,11 14,12 13,12 z" fill="#005900" fill-opacity="1.0" id="x005900_r0_g89_b0_a1.0_shape5"/>
    <path d="M 16,12 16,13 15,13 15,12 z" fill="#005900" fill-opacity="1.0" id="x005900_r0_g89_b0_a1.0_shape6"/>
    <path d="M 15,14 15,15 14,15 14,14 z" fill="#005900" fill-opacity="1.0" id="x005900_r0_g89_b0_a1.0_shape7"/>
    <path d="M 18,15 18,14 19,14 19,15 z" fill="#005900" fill-opacity="1.0" id="x005900_r0_g89_b0_a1.0_shape8"/>
    <path d="M 11,17 11,16 12,16 12,17 z" fill="#005900" fill-opacity="1.0" id="x005900_r0_g89_b0_a1.0_shape9"/>
    <path d="M 16,17 15,17 15,16 16,16 z" fill="#005900" fill-opacity="1.0" id="x005900_r0_g89_b0_a1.0_shape10"/>
    <path d="M 10,18 10,17 11,17 11,18 z" fill="#005900" fill-opacity="1.0" id="x005900_r0_g89_b0_a1.0_shape11"/>
  </g>
  <g id="x4e9151_r78_g145_b81_a1.0">
    <path d="M 15,5 15,4 16,4 16,5 z" fill="#4e9151" fill-opacity="1.0" id="x4e9151_r78_g145_b81_a1.0_shape1"/>
    <path d="M 16,6 16,7 15,7 15,6 z" fill="#4e9151" fill-opacity="1.0" id="x4e9151_r78_g145_b81_a1.0_shape2"/>
    <path d="M 15,7 15,8 14,8 14,7 z" fill="#4e9151" fill-opacity="1.0" id="x4e9151_r78_g145_b81_a1.0_shape3"/>
    <path d="M 14,10 14,11 13,11 13,10 z" fill="#4e9151" fill-opacity="1.0" id="x4e9151_r78_g145_b81_a1.0_shape4"/>
    <path d="M 12,11 13,11 13,12 12,12 z" fill="#4e9151" fill-opacity="1.0" id="x4e9151_r78_g145_b81_a1.0_shape5"/>
    <path d="M 14,14 14,13 15,13 15,14 z" fill="#4e9151" fill-opacity="1.0" id="x4e9151_r78_g145_b81_a1.0_shape6"/>
    <path d="M 14,15 13,15 13,14 14,14 z" fill="#4e9151" fill-opacity="1.0" id="x4e9151_r78_g145_b81_a1.0_shape7"/>
    <path d="M 11,16 11,15 12,15 12,16 z" fill="#4e9151" fill-opacity="1.0" id="x4e9151_r78_g145_b81_a1.0_shape8"/>
    <path d="M 10,16 11,16 11,17 10,17 z" fill="#4e9151" fill-opacity="1.0" id="x4e9151_r78_g145_b81_a1.0_shape9"/>
    <path d="M 10,17 10,18 9,18 9,17 z" fill="#4e9151" fill-opacity="1.0" id="x4e9151_r78_g145_b81_a1.0_shape10"/>
  </g>
  <g id="x000000_r0_g0_b0_a1.0">
    <path d="M 14,24 15,24 15,25 16,25 16,26 15,26 15,31 14,31 14,28 14,25 z" fill="#000000" fill-opacity="1.0" id="x000000_r0_g0_b0_a1.0_shape1"/>
    <path d="M 18,20 18,21 17,21 17,20 z" fill="#000000" fill-opacity="1.0" id="x000000_r0_g0_b0_a1.0_shape2"/>
    <path d="M 16,22 16,21 17,21 17,22 z" fill="#000000" fill-opacity="1.0" id="x000000_r0_g0_b0_a1.0_shape3"/>
  </g>
  <g id="xff2600_r255_g38_b0_a1.0">
    <path d="M 14,23 13,23 13,22 13,21 16,21 16,22 14,22 z" fill="#ff2600" fill-opacity="1.0" id="xff2600_r255_g38_b0_a1.0_shape1"/>
    <path d="M 13,20 13,19 14,19 14,20 z" fill="#ff2600" fill-opacity="1.0" id="xff2600_r255_g38_b0_a1.0_shape2"/>
  </g>
  <g id="xd6a979_r214_g169_b121_a1.0">
    <path d="M 13,24 13,23 14,23 17,23 17,24 15,24 z" fill="#d6a979" fill-opacity="1.0" id="xd6a979_r214_g169_b121_a1.0_shape1"/>
  </g>
  <g id="x919050_r145_g144_b80_a1.0">
    <path d="M 15,19 14,19 14,18 15,18 16,18 16,19 z" fill="#919050" fill-opacity="1.0" id="x919050_r145_g144_b80_a1.0_shape1"/>
  </g>
  <g id="x007aaa_r0_g122_b170_a1.0">
    <path d="M 13,25 13,24 14,24 14,25 14,26 13,26 z" fill="#007aaa" fill-opacity="1.0" id="x007aaa_r0_g122_b170_a1.0_shape1"/>
  </g>
</svg>
