<?xml version="1.0" encoding="utf-8" ?>
<svg xmlns="http://www.w3.org/2000/svg" xmlns:ev="http://www.w3.org/2001/xml-events" xmlns:xlink="http://www.w3.org/1999/xlink" baseProfile="full" height="32px" version="1.1" viewBox="0 0 32 32" width="32px">
  <defs/>
  <g id="x424100_r66_g65_b0_a1.0">
    <path d="M 16,16 16,25 23,25 23,16 24,16 24,25 26,25 26,26 7,26 6,26 6,25 7,25 8,25 8,16 9,16 9,25 15,25 15,16 z" fill="#424100" fill-opacity="1.0" id="x424100_r66_g65_b0_a1.0_shape1"/>
  </g>
  <g id="x004100_r0_g65_b0_a1.0">
    <path d="M 14,16 13,16 13,15 14,15 z" fill="#004100" fill-opacity="1.0" id="x004100_r0_g65_b0_a1.0_shape1"/>
    <path d="M 6,16 7,16 7,17 6,17 z" fill="#004100" fill-opacity="1.0" id="x004100_r0_g65_b0_a1.0_shape2"/>
    <path d="M 14,17 14,16 15,16 15,17 z" fill="#004100" fill-opacity="1.0" id="x004100_r0_g65_b0_a1.0_shape3"/>
    <path d="M 25,16 26,16 26,17 25,17 z" fill="#004100" fill-opacity="1.0" id="x004100_r0_g65_b0_a1.0_shape4"/>
    <path d="M 8,17 8,18 7,18 7,17 z" fill="#004100" fill-opacity="1.0" id="x004100_r0_g65_b0_a1.0_shape5"/>
    <path d="M 24,18 24,17 25,17 25,18 z" fill="#004100" fill-opacity="1.0" id="x004100_r0_g65_b0_a1.0_shape6"/>
    <path d="M 17,18 18,18 18,19 17,19 z" fill="#004100" fill-opacity="1.0" id="x004100_r0_g65_b0_a1.0_shape7"/>
    <path d="M 21,18 22,18 22,19 21,19 z" fill="#004100" fill-opacity="1.0" id="x004100_r0_g65_b0_a1.0_shape8"/>
    <path d="M 16,20 16,19 17,19 17,20 z" fill="#004100" fill-opacity="1.0" id="x004100_r0_g65_b0_a1.0_shape9"/>
    <path d="M 22,19 23,19 23,20 22,20 z" fill="#004100" fill-opacity="1.0" id="x004100_r0_g65_b0_a1.0_shape10"/>
    <path d="M 10,21 10,20 11,20 11,21 z" fill="#004100" fill-opacity="1.0" id="x004100_r0_g65_b0_a1.0_shape11"/>
    <path d="M 9,22 9,21 10,21 10,22 z" fill="#004100" fill-opacity="1.0" id="x004100_r0_g65_b0_a1.0_shape12"/>
    <path d="M 13,21 14,21 14,22 13,22 z" fill="#004100" fill-opacity="1.0" id="x004100_r0_g65_b0_a1.0_shape13"/>
    <path d="M 15,22 15,23 14,23 14,22 z" fill="#004100" fill-opacity="1.0" id="x004100_r0_g65_b0_a1.0_shape14"/>
  </g>
  <g id="x407742_r64_g119_b66_a1.0">
    <path d="M 26,16 25,16 25,15 26,15 z" fill="#407742" fill-opacity="1.0" id="x407742_r64_g119_b66_a1.0_shape1"/>
    <path d="M 13,17 13,16 14,16 14,17 z" fill="#407742" fill-opacity="1.0" id="x407742_r64_g119_b66_a1.0_shape2"/>
    <path d="M 25,17 24,17 24,16 25,16 z" fill="#407742" fill-opacity="1.0" id="x407742_r64_g119_b66_a1.0_shape3"/>
    <path d="M 6,17 7,17 7,18 6,18 z" fill="#407742" fill-opacity="1.0" id="x407742_r64_g119_b66_a1.0_shape4"/>
    <path d="M 15,18 14,18 14,17 15,17 z" fill="#407742" fill-opacity="1.0" id="x407742_r64_g119_b66_a1.0_shape5"/>
    <path d="M 7,19 7,18 8,18 8,19 z" fill="#407742" fill-opacity="1.0" id="x407742_r64_g119_b66_a1.0_shape6"/>
    <path d="M 10,19 11,19 11,20 10,20 z" fill="#407742" fill-opacity="1.0" id="x407742_r64_g119_b66_a1.0_shape7"/>
    <path d="M 18,20 17,20 17,19 18,19 z" fill="#407742" fill-opacity="1.0" id="x407742_r64_g119_b66_a1.0_shape8"/>
    <path d="M 22,19 22,20 21,20 21,19 z" fill="#407742" fill-opacity="1.0" id="x407742_r64_g119_b66_a1.0_shape9"/>
    <path d="M 10,21 9,21 9,20 10,20 z" fill="#407742" fill-opacity="1.0" id="x407742_r64_g119_b66_a1.0_shape10"/>
    <path d="M 17,20 17,21 16,21 16,20 z" fill="#407742" fill-opacity="1.0" id="x407742_r64_g119_b66_a1.0_shape11"/>
    <path d="M 23,20 23,21 22,21 22,20 z" fill="#407742" fill-opacity="1.0" id="x407742_r64_g119_b66_a1.0_shape12"/>
    <path d="M 13,22 14,22 14,23 13,23 z" fill="#407742" fill-opacity="1.0" id="x407742_r64_g119_b66_a1.0_shape13"/>
    <path d="M 15,24 14,24 14,23 15,23 z" fill="#407742" fill-opacity="1.0" id="x407742_r64_g119_b66_a1.0_shape14"/>
  </g>
</svg>
