<?xml version="1.0" encoding="utf-8" ?>
<svg xmlns="http://www.w3.org/2000/svg" xmlns:ev="http://www.w3.org/2001/xml-events" xmlns:xlink="http://www.w3.org/1999/xlink" baseProfile="full" height="32px" version="1.1" viewBox="0 0 32 32" width="32px">
  <defs/>
  <g id="xdbb655_r219_g182_b85_a1.0">
    <path d="M 7,19 8,19 8,17 9,17 9,16 10,16 10,15 11,15 11,14 13,14 13,15 14,15 14,16 19,16 19,17 20,17 20,22 19,22 19,24 18,24 18,25 17,25 17,28 16,28 16,27 15,27 15,24 16,24 16,23 15,23 15,24 14,24 14,27 15,27 15,28 13,28 13,27 12,27 12,26 11,26 11,27 10,27 7,27 7,26 6,26 6,23 10,23 10,22 9,22 9,21 8,21 8,20 7,20 z" fill="#dbb655" fill-opacity="1.0" id="xdbb655_r219_g182_b85_a1.0_shape1"/>
    <path d="M 20,13 21,13 21,14 19,14 19,15 14,15 14,14 13,14 13,11 14,11 14,10 15,10 15,9 18,9 18,10 17,10 17,11 16,11 16,13 18,13 18,10 19,10 19,11 20,11 z" fill="#dbb655" fill-opacity="1.0" id="xdbb655_r219_g182_b85_a1.0_shape2"/>
    <path d="M 21,15 21,16 20,16 20,15 z" fill="#dbb655" fill-opacity="1.0" id="xdbb655_r219_g182_b85_a1.0_shape3"/>
  </g>
  <g id="xb69255_r182_g146_b85_a1.0">
    <path d="M 5,25 5,22 6,22 6,20 7,20 7,21 8,21 8,22 9,22 9,23 6,23 6,25 z" fill="#b69255" fill-opacity="1.0" id="xb69255_r182_g146_b85_a1.0_shape1"/>
    <path d="M 20,15 20,16 14,16 14,15 z" fill="#b69255" fill-opacity="1.0" id="xb69255_r182_g146_b85_a1.0_shape2"/>
    <path d="M 18,10 18,13 16,13 16,12 17,12 17,11 17,10 z" fill="#b69255" fill-opacity="1.0" id="xb69255_r182_g146_b85_a1.0_shape3"/>
    <path d="M 14,6 14,8 13,8 13,6 z" fill="#b69255" fill-opacity="1.0" id="xb69255_r182_g146_b85_a1.0_shape4"/>
    <path d="M 12,12 13,12 13,13 13,14 12,14 12,13 z" fill="#b69255" fill-opacity="1.0" id="xb69255_r182_g146_b85_a1.0_shape5"/>
    <path d="M 14,15 13,15 13,14 14,14 z" fill="#b69255" fill-opacity="1.0" id="xb69255_r182_g146_b85_a1.0_shape6"/>
    <path d="M 12,27 11,27 11,26 12,26 z" fill="#b69255" fill-opacity="1.0" id="xb69255_r182_g146_b85_a1.0_shape7"/>
  </g>
  <g id="xdb9255_r219_g146_b85_a1.0">
    <path d="M 13,6 13,4 15,4 15,6 z" fill="#db9255" fill-opacity="1.0" id="xdb9255_r219_g146_b85_a1.0_shape1"/>
    <path d="M 14,9 15,9 15,10 14,10 14,11 13,11 13,8 14,8 z" fill="#db9255" fill-opacity="1.0" id="xdb9255_r219_g146_b85_a1.0_shape2"/>
    <path d="M 16,6 16,9 15,9 15,6 z" fill="#db9255" fill-opacity="1.0" id="xdb9255_r219_g146_b85_a1.0_shape3"/>
  </g>
  <g id="x926d55_r146_g109_b85_a1.0">
    <path d="M 14,24 15,24 15,26 15,27 14,27 14,26 z" fill="#926d55" fill-opacity="1.0" id="x926d55_r146_g109_b85_a1.0_shape1"/>
    <path d="M 21,15 19,15 19,14 21,14 z" fill="#926d55" fill-opacity="1.0" id="x926d55_r146_g109_b85_a1.0_shape2"/>
    <path d="M 8,20 8,21 7,21 7,20 z" fill="#926d55" fill-opacity="1.0" id="x926d55_r146_g109_b85_a1.0_shape3"/>
    <path d="M 9,22 8,22 8,21 9,21 z" fill="#926d55" fill-opacity="1.0" id="x926d55_r146_g109_b85_a1.0_shape4"/>
    <path d="M 10,23 9,23 9,22 10,22 z" fill="#926d55" fill-opacity="1.0" id="x926d55_r146_g109_b85_a1.0_shape5"/>
    <path d="M 16,24 15,24 15,23 16,23 z" fill="#926d55" fill-opacity="1.0" id="x926d55_r146_g109_b85_a1.0_shape6"/>
  </g>
  <g id="x924900_r146_g73_b0_a1.0">
    <path d="M 15,5 15,4 17,4 17,7 17,9 16,9 16,7 16,6 15,6 z" fill="#924900" fill-opacity="1.0" id="x924900_r146_g73_b0_a1.0_shape1"/>
  </g>
  <g id="xffb6aa_r255_g182_b170_a1.0">
    <path d="M 14,6 15,6 15,9 14,9 z" fill="#ffb6aa" fill-opacity="1.0" id="xffb6aa_r255_g182_b170_a1.0_shape1"/>
  </g>
  <g id="x000000_r0_g0_b0_a1.0">
    <path d="M 17,11 17,12 16,12 16,11 z" fill="#000000" fill-opacity="1.0" id="x000000_r0_g0_b0_a1.0_shape1"/>
  </g>
</svg>
