<?xml version="1.0" encoding="utf-8" ?>
<svg xmlns="http://www.w3.org/2000/svg" xmlns:ev="http://www.w3.org/2001/xml-events" xmlns:xlink="http://www.w3.org/1999/xlink" baseProfile="full" height="32px" version="1.1" viewBox="0 0 32 32" width="32px">
  <defs/>
  <g id="xffb655_r255_g182_b85_a1.0">
    <path d="M 24,18 23,18 23,17 22,17 22,16 18,16 18,17 17,17 17,18 15,18 15,17 14,17 14,16 10,16 10,17 9,17 9,18 8,18 8,20 10,20 10,21 13,21 13,20 14,20 14,23 13,23 13,24 12,24 12,25 11,25 11,23 9,23 9,24 8,24 8,23 7,23 7,22 6,22 6,21 5,21 5,20 4,20 4,18 4,17 5,17 5,16 5,15 6,15 6,14 8,14 8,13 11,13 11,12 12,12 12,11 14,11 14,10 13,10 13,9 14,9 14,8 18,8 18,9 19,9 19,10 18,10 18,11 20,11 20,12 21,12 21,13 22,13 24,13 24,14 26,14 26,15 27,15 27,16 27,17 28,17 28,18 28,20 27,20 27,21 26,21 26,22 25,22 25,23 24,23 24,24 23,24 23,23 21,23 21,25 20,25 20,24 19,24 19,23 18,23 18,20 19,20 19,21 22,21 22,20 24,20 z" fill="#ffb655" fill-opacity="1.0" id="xffb655_r255_g182_b85_a1.0_shape1"/>
    <path d="M 10,10 10,12 8,12 8,9 9,9 9,8 8,8 8,7 7,7 7,6 5,6 5,3 6,3 6,4 7,4 7,5 8,5 8,6 9,6 9,7 10,7 10,9 11,9 11,10 z" fill="#ffb655" fill-opacity="1.0" id="xffb655_r255_g182_b85_a1.0_shape2"/>
    <path d="M 24,6 24,5 25,5 25,4 26,4 26,3 27,3 27,6 25,6 25,7 24,7 24,8 23,8 23,9 24,9 24,10 24,12 23,12 22,12 22,10 21,10 21,9 22,9 22,7 23,7 23,6 z" fill="#ffb655" fill-opacity="1.0" id="xffb655_r255_g182_b85_a1.0_shape3"/>
    <path d="M 15,20 14,20 14,19 15,19 18,19 18,20 z" fill="#ffb655" fill-opacity="1.0" id="xffb655_r255_g182_b85_a1.0_shape4"/>
  </g>
  <g id="xdb6d00_r219_g109_b0_a1.0">
    <path d="M 13,19 13,18 11,18 11,20 9,20 9,19 10,19 10,18 9,18 9,17 10,17 10,16 11,16 14,16 14,17 15,17 15,18 16,18 17,18 17,17 18,17 18,16 22,16 22,17 23,17 23,18 22,18 22,19 23,19 23,20 21,20 21,18 19,18 19,19 z" fill="#db6d00" fill-opacity="1.0" id="xdb6d00_r219_g109_b0_a1.0_shape1"/>
    <path d="M 7,8 7,9 8,9 8,10 8,12 7,12 7,13 6,13 6,12 6,10 5,10 5,8 5,7 6,7 6,8 z" fill="#db6d00" fill-opacity="1.0" id="xdb6d00_r219_g109_b0_a1.0_shape2"/>
    <path d="M 27,10 26,10 26,13 25,13 25,12 24,12 24,9 25,9 25,8 26,8 26,7 27,7 z" fill="#db6d00" fill-opacity="1.0" id="xdb6d00_r219_g109_b0_a1.0_shape3"/>
    <path d="M 10,7 9,7 9,6 8,6 8,5 7,5 7,4 9,4 9,5 10,5 10,6 11,6 11,8 12,8 12,10 11,10 11,9 10,9 10,8 z" fill="#db6d00" fill-opacity="1.0" id="xdb6d00_r219_g109_b0_a1.0_shape4"/>
    <path d="M 21,10 20,10 20,9 20,8 21,8 21,7 21,6 22,6 22,5 23,5 23,4 24,4 25,4 25,5 24,5 24,6 23,6 23,7 22,7 22,9 21,9 z" fill="#db6d00" fill-opacity="1.0" id="xdb6d00_r219_g109_b0_a1.0_shape5"/>
    <path d="M 11,13 9,13 9,12 11,12 z" fill="#db6d00" fill-opacity="1.0" id="xdb6d00_r219_g109_b0_a1.0_shape6"/>
    <path d="M 22,12 23,12 23,13 22,13 21,13 21,12 z" fill="#db6d00" fill-opacity="1.0" id="xdb6d00_r219_g109_b0_a1.0_shape7"/>
    <path d="M 7,4 6,4 6,3 7,3 z" fill="#db6d00" fill-opacity="1.0" id="xdb6d00_r219_g109_b0_a1.0_shape8"/>
    <path d="M 26,3 26,4 25,4 25,3 z" fill="#db6d00" fill-opacity="1.0" id="xdb6d00_r219_g109_b0_a1.0_shape9"/>
  </g>
  <g id="xffdbaa_r255_g219_b170_a1.0">
    <path d="M 20,24 20,25 15,25 12,25 12,24 13,24 13,23 14,23 14,22 14,21 15,21 15,20 17,20 17,21 18,21 18,23 19,23 19,24 z" fill="#ffdbaa" fill-opacity="1.0" id="xffdbaa_r255_g219_b170_a1.0_shape1"/>
    <path d="M 4,5 5,5 5,6 6,6 6,7 5,7 5,10 6,10 6,14 4,14 z" fill="#ffdbaa" fill-opacity="1.0" id="xffdbaa_r255_g219_b170_a1.0_shape2"/>
    <path d="M 26,7 26,6 27,6 27,5 28,5 28,14 26,14 26,10 27,10 27,7 z" fill="#ffdbaa" fill-opacity="1.0" id="xffdbaa_r255_g219_b170_a1.0_shape3"/>
    <path d="M 19,7 19,9 18,9 18,8 14,8 14,9 13,9 13,7 z" fill="#ffdbaa" fill-opacity="1.0" id="xffdbaa_r255_g219_b170_a1.0_shape4"/>
    <path d="M 17,28 17,29 16,29 15,29 15,28 16,28 z" fill="#ffdbaa" fill-opacity="1.0" id="xffdbaa_r255_g219_b170_a1.0_shape5"/>
  </g>
  <g id="x924900_r146_g73_b0_a1.0">
    <path d="M 5,5 4,5 4,4 4,3 4,2 5,2 6,2 7,2 7,3 6,3 5,3 5,4 z" fill="#924900" fill-opacity="1.0" id="x924900_r146_g73_b0_a1.0_shape1"/>
    <path d="M 26,2 28,2 28,3 28,5 27,5 27,3 26,3 25,3 25,2 z" fill="#924900" fill-opacity="1.0" id="x924900_r146_g73_b0_a1.0_shape2"/>
    <path d="M 8,7 8,8 9,8 9,9 7,9 7,8 6,8 6,6 7,6 7,7 z" fill="#924900" fill-opacity="1.0" id="x924900_r146_g73_b0_a1.0_shape3"/>
    <path d="M 23,9 23,8 24,8 24,7 25,7 25,6 26,6 26,8 25,8 25,9 z" fill="#924900" fill-opacity="1.0" id="x924900_r146_g73_b0_a1.0_shape4"/>
    <path d="M 9,3 9,4 8,4 7,4 7,3 8,3 z" fill="#924900" fill-opacity="1.0" id="x924900_r146_g73_b0_a1.0_shape5"/>
    <path d="M 25,3 25,4 24,4 23,4 23,3 24,3 z" fill="#924900" fill-opacity="1.0" id="x924900_r146_g73_b0_a1.0_shape6"/>
    <path d="M 12,6 12,8 11,8 11,6 z" fill="#924900" fill-opacity="1.0" id="x924900_r146_g73_b0_a1.0_shape7"/>
    <path d="M 21,6 21,8 20,8 20,6 z" fill="#924900" fill-opacity="1.0" id="x924900_r146_g73_b0_a1.0_shape8"/>
    <path d="M 13,10 12,10 12,9 12,8 13,8 13,9 z" fill="#924900" fill-opacity="1.0" id="x924900_r146_g73_b0_a1.0_shape9"/>
    <path d="M 19,9 19,8 20,8 20,9 20,10 19,10 z" fill="#924900" fill-opacity="1.0" id="x924900_r146_g73_b0_a1.0_shape10"/>
    <path d="M 9,5 9,4 10,4 10,5 z" fill="#924900" fill-opacity="1.0" id="x924900_r146_g73_b0_a1.0_shape11"/>
    <path d="M 23,4 23,5 22,5 22,4 z" fill="#924900" fill-opacity="1.0" id="x924900_r146_g73_b0_a1.0_shape12"/>
    <path d="M 10,5 11,5 11,6 10,6 z" fill="#924900" fill-opacity="1.0" id="x924900_r146_g73_b0_a1.0_shape13"/>
    <path d="M 22,5 22,6 21,6 21,5 z" fill="#924900" fill-opacity="1.0" id="x924900_r146_g73_b0_a1.0_shape14"/>
  </g>
  <g id="xdb4900_r219_g73_b0_a1.0">
    <path d="M 12,11 12,12 11,12 10,12 10,10 14,10 14,11 z" fill="#db4900" fill-opacity="1.0" id="xdb4900_r219_g73_b0_a1.0_shape1"/>
    <path d="M 22,10 22,12 20,12 20,11 18,11 18,10 z" fill="#db4900" fill-opacity="1.0" id="xdb4900_r219_g73_b0_a1.0_shape2"/>
    <path d="M 6,14 6,13 7,13 7,12 9,12 9,13 8,13 8,14 7,14 z" fill="#db4900" fill-opacity="1.0" id="xdb4900_r219_g73_b0_a1.0_shape3"/>
    <path d="M 25,12 25,13 26,13 26,14 24,14 24,13 23,13 23,12 24,12 z" fill="#db4900" fill-opacity="1.0" id="xdb4900_r219_g73_b0_a1.0_shape4"/>
    <path d="M 9,19 9,20 8,20 8,18 10,18 10,19 z" fill="#db4900" fill-opacity="1.0" id="xdb4900_r219_g73_b0_a1.0_shape5"/>
    <path d="M 24,18 24,20 23,20 23,19 22,19 22,18 z" fill="#db4900" fill-opacity="1.0" id="xdb4900_r219_g73_b0_a1.0_shape6"/>
    <path d="M 13,20 13,21 11,21 10,21 10,20 11,20 z" fill="#db4900" fill-opacity="1.0" id="xdb4900_r219_g73_b0_a1.0_shape7"/>
    <path d="M 22,20 22,21 19,21 19,20 z" fill="#db4900" fill-opacity="1.0" id="xdb4900_r219_g73_b0_a1.0_shape8"/>
    <path d="M 5,15 5,14 6,14 6,15 z" fill="#db4900" fill-opacity="1.0" id="xdb4900_r219_g73_b0_a1.0_shape9"/>
    <path d="M 27,15 26,15 26,14 27,14 z" fill="#db4900" fill-opacity="1.0" id="xdb4900_r219_g73_b0_a1.0_shape10"/>
    <path d="M 13,20 13,19 14,19 14,20 z" fill="#db4900" fill-opacity="1.0" id="xdb4900_r219_g73_b0_a1.0_shape11"/>
    <path d="M 18,20 18,19 19,19 19,20 z" fill="#db4900" fill-opacity="1.0" id="xdb4900_r219_g73_b0_a1.0_shape12"/>
  </g>
  <g id="xffffff_r255_g255_b255_a1.0">
    <path d="M 13,29 13,28 12,28 12,27 11,27 11,26 10,26 10,25 9,25 9,23 11,23 11,25 14,25 14,28 15,28 15,29 z" fill="#ffffff" fill-opacity="1.0" id="xffffff_r255_g255_b255_a1.0_shape1"/>
    <path d="M 19,29 17,29 17,28 18,28 18,25 21,25 21,23 23,23 23,25 22,25 22,26 21,26 21,27 20,27 20,28 19,28 z" fill="#ffffff" fill-opacity="1.0" id="xffffff_r255_g255_b255_a1.0_shape2"/>
    <path d="M 12,18 12,19 11,19 11,18 z" fill="#ffffff" fill-opacity="1.0" id="xffffff_r255_g255_b255_a1.0_shape3"/>
    <path d="M 20,19 20,18 21,18 21,19 z" fill="#ffffff" fill-opacity="1.0" id="xffffff_r255_g255_b255_a1.0_shape4"/>
  </g>
  <g id="x000000_r0_g0_b0_a1.0">
    <path d="M 18,26 18,28 14,28 14,26 z" fill="#000000" fill-opacity="1.0" id="x000000_r0_g0_b0_a1.0_shape1"/>
  </g>
  <g id="x494900_r73_g73_b0_a1.0">
    <path d="M 11,20 11,19 12,19 12,18 13,18 13,20 z" fill="#494900" fill-opacity="1.0" id="x494900_r73_g73_b0_a1.0_shape1"/>
    <path d="M 19,20 19,18 20,18 20,19 21,19 21,20 z" fill="#494900" fill-opacity="1.0" id="x494900_r73_g73_b0_a1.0_shape2"/>
  </g>
  <g id="x4d4d4d_r77_g77_b77_a1.0">
    <path d="M 18,25 18,26 16,26 14,26 14,25 15,25 z" fill="#4d4d4d" fill-opacity="1.0" id="x4d4d4d_r77_g77_b77_a1.0_shape1"/>
  </g>
  <g id="xffdcab_r255_g220_b171_a1.0">
    <path d="M 14,21 14,20 15,20 15,21 z" fill="#ffdcab" fill-opacity="1.0" id="xffdcab_r255_g220_b171_a1.0_shape1"/>
    <path d="M 18,20 18,21 17,21 17,20 z" fill="#ffdcab" fill-opacity="1.0" id="xffdcab_r255_g220_b171_a1.0_shape2"/>
  </g>
</svg>
