<?xml version="1.0" encoding="utf-8" ?>
<svg xmlns="http://www.w3.org/2000/svg" xmlns:ev="http://www.w3.org/2001/xml-events" xmlns:xlink="http://www.w3.org/1999/xlink" baseProfile="full" height="32px" version="1.1" viewBox="0 0 32 32" width="32px">
  <defs/>
  <g id="xffffff_r255_g255_b255_a1.0">
    <path d="M 15,22 14,22 14,16 13,16 13,5 18,5 19,5 19,16 18,16 18,22 17,22 17,24 20,24 20,26 21,26 21,27 20,27 20,29 19,29 19,27 18,27 18,26 14,26 14,27 13,27 13,29 12,29 12,27 11,27 11,26 12,26 12,24 15,24 z" fill="#ffffff" fill-opacity="1.0" id="xffffff_r255_g255_b255_a1.0_shape1"/>
    <path d="M 4,13 5,13 5,10 6,10 6,11 8,11 8,13 9,13 9,19 10,19 10,20 11,20 11,21 12,21 12,23 11,23 11,25 10,25 10,23 9,23 9,22 7,22 7,21 6,21 6,20 5,20 5,18 4,18 z" fill="#ffffff" fill-opacity="1.0" id="xffffff_r255_g255_b255_a1.0_shape2"/>
    <path d="M 22,20 22,19 23,19 23,16 23,13 24,13 24,11 26,11 26,10 27,10 27,13 28,13 28,15 28,18 27,18 27,20 26,20 26,21 25,21 25,22 23,22 23,23 22,23 22,25 21,25 21,23 20,23 20,21 21,21 21,20 z" fill="#ffffff" fill-opacity="1.0" id="xffffff_r255_g255_b255_a1.0_shape3"/>
    <path d="M 7,2 10,2 10,3 11,3 11,4 12,4 12,6 10,6 10,4 9,4 9,3 8,3 8,4 7,4 7,5 6,5 6,7 5,7 5,4 6,4 6,3 7,3 z" fill="#ffffff" fill-opacity="1.0" id="xffffff_r255_g255_b255_a1.0_shape4"/>
    <path d="M 26,7 26,5 25,5 25,4 24,4 24,3 23,3 23,4 22,4 22,6 20,6 20,5 20,4 21,4 21,3 22,3 22,2 23,2 25,2 25,3 26,3 26,4 27,4 27,7 z" fill="#ffffff" fill-opacity="1.0" id="xffffff_r255_g255_b255_a1.0_shape5"/>
    <path d="M 12,18 11,18 11,17 12,17 z" fill="#ffffff" fill-opacity="1.0" id="xffffff_r255_g255_b255_a1.0_shape6"/>
    <path d="M 21,17 21,18 20,18 20,17 z" fill="#ffffff" fill-opacity="1.0" id="xffffff_r255_g255_b255_a1.0_shape7"/>
  </g>
  <g id="x4d4d4d_r77_g77_b77_a1.0">
    <path d="M 12,24 12,26 11,26 11,23 12,23 12,21 11,21 11,20 10,20 10,19 9,19 9,18 9,14 9,13 8,13 8,12 8,11 7,11 7,10 7,9 8,9 8,8 9,8 9,7 10,7 10,6 12,6 12,5 13,5 13,8 13,11 13,16 14,16 14,19 14,22 15,22 15,24 z M 11,17 11,19 13,19 13,17 z" fill="#4d4d4d" fill-opacity="1.0" id="x4d4d4d_r77_g77_b77_a1.0_shape1"/>
    <path d="M 19,5 20,5 20,6 22,6 22,7 23,7 23,8 24,8 24,9 25,9 25,11 24,11 24,13 23,13 23,16 23,19 22,19 22,20 21,20 21,21 20,21 20,23 21,23 21,26 20,26 20,24 19,24 17,24 17,22 18,22 18,16 19,16 z M 19,17 19,19 21,19 21,17 z" fill="#4d4d4d" fill-opacity="1.0" id="x4d4d4d_r77_g77_b77_a1.0_shape2"/>
    <path d="M 18,27 19,27 19,29 18,29 18,30 14,30 14,29 13,29 13,28 13,27 14,27 14,26 18,26 z M 17,29 18,29 18,28 17,28 z M 15,29 15,28 14,28 14,29 z" fill="#4d4d4d" fill-opacity="1.0" id="x4d4d4d_r77_g77_b77_a1.0_shape3"/>
  </g>
  <g id="x333333_r51_g51_b51_a1.0">
    <path d="M 7,11 6,11 6,10 5,10 5,7 6,7 6,5 7,5 7,7 z" fill="#333333" fill-opacity="1.0" id="x333333_r51_g51_b51_a1.0_shape1"/>
    <path d="M 27,10 26,10 26,11 25,11 25,5 26,5 26,7 27,7 z" fill="#333333" fill-opacity="1.0" id="x333333_r51_g51_b51_a1.0_shape2"/>
    <path d="M 9,3 9,4 10,4 10,5 10,6 9,6 9,5 7,5 7,4 8,4 8,3 z" fill="#333333" fill-opacity="1.0" id="x333333_r51_g51_b51_a1.0_shape3"/>
    <path d="M 23,6 22,6 22,4 23,4 23,3 24,3 24,4 25,4 25,5 23,5 z" fill="#333333" fill-opacity="1.0" id="x333333_r51_g51_b51_a1.0_shape4"/>
    <path d="M 8,6 9,6 9,7 8,7 z" fill="#333333" fill-opacity="1.0" id="x333333_r51_g51_b51_a1.0_shape5"/>
    <path d="M 23,7 23,6 24,6 24,7 z" fill="#333333" fill-opacity="1.0" id="x333333_r51_g51_b51_a1.0_shape6"/>
  </g>
  <g id="x000000_r0_g0_b0_a1.0">
    <path d="M 8,6 8,7 9,7 9,8 8,8 8,9 7,9 7,5 9,5 9,6 z" fill="#000000" fill-opacity="1.0" id="x000000_r0_g0_b0_a1.0_shape1"/>
    <path d="M 23,7 24,7 24,6 23,6 23,5 25,5 25,8 25,9 24,9 24,8 23,8 z" fill="#000000" fill-opacity="1.0" id="x000000_r0_g0_b0_a1.0_shape2"/>
    <path d="M 13,17 13,19 12,19 11,19 11,18 12,18 12,17 z" fill="#000000" fill-opacity="1.0" id="x000000_r0_g0_b0_a1.0_shape3"/>
    <path d="M 19,19 19,17 20,17 20,18 21,18 21,19 z" fill="#000000" fill-opacity="1.0" id="x000000_r0_g0_b0_a1.0_shape4"/>
    <path d="M 9,7 9,6 10,6 10,7 z" fill="#000000" fill-opacity="1.0" id="x000000_r0_g0_b0_a1.0_shape5"/>
    <path d="M 22,6 23,6 23,7 22,7 z" fill="#000000" fill-opacity="1.0" id="x000000_r0_g0_b0_a1.0_shape6"/>
    <path d="M 14,28 15,28 15,29 14,29 z" fill="#000000" fill-opacity="1.0" id="x000000_r0_g0_b0_a1.0_shape7"/>
    <path d="M 17,28 18,28 18,29 17,29 z" fill="#000000" fill-opacity="1.0" id="x000000_r0_g0_b0_a1.0_shape8"/>
  </g>
</svg>
