<?xml version="1.0" encoding="utf-8" ?>
<svg xmlns="http://www.w3.org/2000/svg" xmlns:ev="http://www.w3.org/2001/xml-events" xmlns:xlink="http://www.w3.org/1999/xlink" baseProfile="full" height="32px" version="1.1" viewBox="0 0 32 32" width="32px">
  <defs/>
  <g id="x6db655_r109_g182_b85_a1.0">
    <path d="M 15,5 15,4 17,4 17,5 19,5 19,11 18,11 18,12 17,12 17,13 15,13 15,12 14,12 14,11 13,11 13,7 13,5 z M 17,7 17,10 18,10 18,7 z M 15,10 15,7 14,7 14,10 z" fill="#6db655" fill-opacity="1.0" id="x6db655_r109_g182_b85_a1.0_shape1"/>
    <path d="M 6,18 6,16 5,16 5,14 6,14 6,12 12,12 12,13 13,13 13,14 14,14 14,16 13,16 13,17 12,17 12,18 z M 11,17 11,16 8,16 8,17 z M 11,14 11,13 8,13 8,14 z" fill="#6db655" fill-opacity="1.0" id="x6db655_r109_g182_b85_a1.0_shape2"/>
    <path d="M 20,12 26,12 26,14 27,14 27,16 26,16 26,18 20,18 20,17 19,17 19,16 18,16 18,14 19,14 19,13 20,13 z M 21,13 21,14 24,14 24,13 z M 21,16 21,17 24,17 24,16 z" fill="#6db655" fill-opacity="1.0" id="x6db655_r109_g182_b85_a1.0_shape3"/>
    <path d="M 13,19 14,19 14,18 15,18 15,17 17,17 17,18 18,18 18,19 19,19 19,25 17,25 17,26 15,26 15,25 13,25 z M 18,20 17,20 17,23 18,23 z M 15,23 15,20 14,20 14,23 z" fill="#6db655" fill-opacity="1.0" id="x6db655_r109_g182_b85_a1.0_shape4"/>
  </g>
  <g id="x6d9255_r109_g146_b85_a1.0">
    <path d="M 13,11 12,11 12,6 12,5 13,5 13,6 z" fill="#6d9255" fill-opacity="1.0" id="x6d9255_r109_g146_b85_a1.0_shape1"/>
    <path d="M 19,5 20,5 20,11 19,11 z" fill="#6d9255" fill-opacity="1.0" id="x6d9255_r109_g146_b85_a1.0_shape2"/>
    <path d="M 6,12 6,11 9,11 12,11 12,12 11,12 z" fill="#6d9255" fill-opacity="1.0" id="x6d9255_r109_g146_b85_a1.0_shape3"/>
    <path d="M 20,12 20,11 26,11 26,12 z" fill="#6d9255" fill-opacity="1.0" id="x6d9255_r109_g146_b85_a1.0_shape4"/>
    <path d="M 6,19 6,18 12,18 12,19 z" fill="#6d9255" fill-opacity="1.0" id="x6d9255_r109_g146_b85_a1.0_shape5"/>
    <path d="M 26,18 26,19 23,19 20,19 20,18 21,18 z" fill="#6d9255" fill-opacity="1.0" id="x6d9255_r109_g146_b85_a1.0_shape6"/>
    <path d="M 13,25 12,25 12,20 12,19 13,19 13,20 z" fill="#6d9255" fill-opacity="1.0" id="x6d9255_r109_g146_b85_a1.0_shape7"/>
    <path d="M 20,25 19,25 19,19 20,19 z" fill="#6d9255" fill-opacity="1.0" id="x6d9255_r109_g146_b85_a1.0_shape8"/>
    <path d="M 17,4 15,4 15,3 17,3 z" fill="#6d9255" fill-opacity="1.0" id="x6d9255_r109_g146_b85_a1.0_shape9"/>
    <path d="M 13,4 15,4 15,5 13,5 z" fill="#6d9255" fill-opacity="1.0" id="x6d9255_r109_g146_b85_a1.0_shape10"/>
    <path d="M 19,4 19,5 18,5 17,5 17,4 18,4 z" fill="#6d9255" fill-opacity="1.0" id="x6d9255_r109_g146_b85_a1.0_shape11"/>
    <path d="M 5,12 6,12 6,13 6,14 5,14 5,13 z" fill="#6d9255" fill-opacity="1.0" id="x6d9255_r109_g146_b85_a1.0_shape12"/>
    <path d="M 26,12 27,12 27,13 27,14 26,14 26,13 z" fill="#6d9255" fill-opacity="1.0" id="x6d9255_r109_g146_b85_a1.0_shape13"/>
    <path d="M 5,15 5,16 4,16 4,15 4,14 5,14 z" fill="#6d9255" fill-opacity="1.0" id="x6d9255_r109_g146_b85_a1.0_shape14"/>
    <path d="M 27,14 28,14 28,15 28,16 27,16 27,15 z" fill="#6d9255" fill-opacity="1.0" id="x6d9255_r109_g146_b85_a1.0_shape15"/>
    <path d="M 5,18 5,16 6,16 6,18 z" fill="#6d9255" fill-opacity="1.0" id="x6d9255_r109_g146_b85_a1.0_shape16"/>
    <path d="M 26,16 27,16 27,17 27,18 26,18 26,17 z" fill="#6d9255" fill-opacity="1.0" id="x6d9255_r109_g146_b85_a1.0_shape17"/>
    <path d="M 14,26 13,26 13,25 14,25 15,25 15,26 z" fill="#6d9255" fill-opacity="1.0" id="x6d9255_r109_g146_b85_a1.0_shape18"/>
    <path d="M 19,25 19,26 18,26 17,26 17,25 18,25 z" fill="#6d9255" fill-opacity="1.0" id="x6d9255_r109_g146_b85_a1.0_shape19"/>
    <path d="M 17,26 17,27 16,27 15,27 15,26 16,26 z" fill="#6d9255" fill-opacity="1.0" id="x6d9255_r109_g146_b85_a1.0_shape20"/>
    <path d="M 13,11 14,11 14,12 13,12 z" fill="#6d9255" fill-opacity="1.0" id="x6d9255_r109_g146_b85_a1.0_shape21"/>
    <path d="M 18,11 19,11 19,12 18,12 z" fill="#6d9255" fill-opacity="1.0" id="x6d9255_r109_g146_b85_a1.0_shape22"/>
    <path d="M 13,12 13,13 12,13 12,12 z" fill="#6d9255" fill-opacity="1.0" id="x6d9255_r109_g146_b85_a1.0_shape23"/>
    <path d="M 15,12 15,13 14,13 14,12 z" fill="#6d9255" fill-opacity="1.0" id="x6d9255_r109_g146_b85_a1.0_shape24"/>
    <path d="M 18,12 18,13 17,13 17,12 z" fill="#6d9255" fill-opacity="1.0" id="x6d9255_r109_g146_b85_a1.0_shape25"/>
    <path d="M 20,12 20,13 19,13 19,12 z" fill="#6d9255" fill-opacity="1.0" id="x6d9255_r109_g146_b85_a1.0_shape26"/>
    <path d="M 13,13 14,13 14,14 13,14 z" fill="#6d9255" fill-opacity="1.0" id="x6d9255_r109_g146_b85_a1.0_shape27"/>
    <path d="M 18,13 19,13 19,14 18,14 z" fill="#6d9255" fill-opacity="1.0" id="x6d9255_r109_g146_b85_a1.0_shape28"/>
    <path d="M 13,17 13,16 14,16 14,17 z" fill="#6d9255" fill-opacity="1.0" id="x6d9255_r109_g146_b85_a1.0_shape29"/>
    <path d="M 19,17 18,17 18,16 19,16 z" fill="#6d9255" fill-opacity="1.0" id="x6d9255_r109_g146_b85_a1.0_shape30"/>
    <path d="M 12,17 13,17 13,18 12,18 z" fill="#6d9255" fill-opacity="1.0" id="x6d9255_r109_g146_b85_a1.0_shape31"/>
    <path d="M 15,18 14,18 14,17 15,17 z" fill="#6d9255" fill-opacity="1.0" id="x6d9255_r109_g146_b85_a1.0_shape32"/>
    <path d="M 18,17 18,18 17,18 17,17 z" fill="#6d9255" fill-opacity="1.0" id="x6d9255_r109_g146_b85_a1.0_shape33"/>
    <path d="M 20,17 20,18 19,18 19,17 z" fill="#6d9255" fill-opacity="1.0" id="x6d9255_r109_g146_b85_a1.0_shape34"/>
    <path d="M 13,18 14,18 14,19 13,19 z" fill="#6d9255" fill-opacity="1.0" id="x6d9255_r109_g146_b85_a1.0_shape35"/>
    <path d="M 18,19 18,18 19,18 19,19 z" fill="#6d9255" fill-opacity="1.0" id="x6d9255_r109_g146_b85_a1.0_shape36"/>
  </g>
  <g id="x80ab63_r128_g171_b99_a1.0">
    <path d="M 14,7 15,7 15,10 14,10 z" fill="#80ab63" fill-opacity="1.0" id="x80ab63_r128_g171_b99_a1.0_shape1"/>
    <path d="M 18,7 18,10 17,10 17,7 z" fill="#80ab63" fill-opacity="1.0" id="x80ab63_r128_g171_b99_a1.0_shape2"/>
    <path d="M 8,14 8,13 11,13 11,14 z" fill="#80ab63" fill-opacity="1.0" id="x80ab63_r128_g171_b99_a1.0_shape3"/>
    <path d="M 24,13 24,14 22,14 21,14 21,13 22,13 z" fill="#80ab63" fill-opacity="1.0" id="x80ab63_r128_g171_b99_a1.0_shape4"/>
    <path d="M 11,16 11,17 8,17 8,16 z" fill="#80ab63" fill-opacity="1.0" id="x80ab63_r128_g171_b99_a1.0_shape5"/>
    <path d="M 21,17 21,16 24,16 24,17 z" fill="#80ab63" fill-opacity="1.0" id="x80ab63_r128_g171_b99_a1.0_shape6"/>
    <path d="M 15,20 15,23 14,23 14,20 z" fill="#80ab63" fill-opacity="1.0" id="x80ab63_r128_g171_b99_a1.0_shape7"/>
    <path d="M 18,23 17,23 17,20 18,20 z" fill="#80ab63" fill-opacity="1.0" id="x80ab63_r128_g171_b99_a1.0_shape8"/>
  </g>
  <g id="x000000_r0_g0_b0_a1.0">
    <path d="M 18,14 18,16 17,16 17,17 15,17 15,16 14,16 14,14 15,14 15,13 17,13 17,14 z" fill="#000000" fill-opacity="1.0" id="x000000_r0_g0_b0_a1.0_shape1"/>
    <path d="M 13,29 19,29 19,30 18,30 18,31 17,31 17,32 15,32 15,31 14,31 14,30 13,30 z" fill="#000000" fill-opacity="1.0" id="x000000_r0_g0_b0_a1.0_shape2"/>
  </g>
</svg>
