<?xml version="1.0" encoding="utf-8" ?>
<svg xmlns="http://www.w3.org/2000/svg" xmlns:ev="http://www.w3.org/2001/xml-events" xmlns:xlink="http://www.w3.org/1999/xlink" baseProfile="full" height="32px" version="1.1" viewBox="0 0 32 32" width="32px">
  <defs/>
  <g id="x926d55_r146_g109_b85_a1.0">
    <path d="M 17,28 16,28 16,27 15,27 14,27 14,26 13,26 11,26 11,25 10,25 10,24 9,24 9,22 10,22 10,21 11,21 11,20 12,20 12,21 13,21 13,22 14,22 14,21 16,21 16,22 21,22 21,21 23,21 23,20 25,20 25,19 26,19 26,17 28,17 28,18 29,18 29,22 29,24 28,24 28,26 27,26 27,27 24,27 24,28 z M 12,22 12,24 13,24 13,22 z" fill="#926d55" fill-opacity="1.0" id="x926d55_r146_g109_b85_a1.0_shape1"/>
    <path d="M 17,15 17,16 16,16 15,16 15,17 14,17 12,17 12,18 11,18 6,18 5,18 5,17 6,17 8,17 8,16 9,16 9,15 10,15 10,14 11,14 11,13 12,13 12,12 14,12 14,11 16,11 16,10 17,10 17,9 19,9 19,11 20,11 20,13 19,13 19,14 18,14 18,15 z" fill="#926d55" fill-opacity="1.0" id="x926d55_r146_g109_b85_a1.0_shape2"/>
    <path d="M 19,9 19,8 22,8 22,9 z" fill="#926d55" fill-opacity="1.0" id="x926d55_r146_g109_b85_a1.0_shape3"/>
    <path d="M 23,9 23,10 22,10 22,9 z" fill="#926d55" fill-opacity="1.0" id="x926d55_r146_g109_b85_a1.0_shape4"/>
  </g>
  <g id="xdb9255_r219_g146_b85_a1.0">
    <path d="M 20,22 19,22 19,21 16,21 16,20 15,20 15,19 17,19 17,18 19,18 19,17 22,17 22,19 21,19 21,20 20,20 z" fill="#db9255" fill-opacity="1.0" id="xdb9255_r219_g146_b85_a1.0_shape1"/>
    <path d="M 22,10 24,10 24,11 23,11 23,12 20,12 20,11 19,11 19,10 19,9 22,9 22,10 21,10 21,11 22,11 z" fill="#db9255" fill-opacity="1.0" id="xdb9255_r219_g146_b85_a1.0_shape2"/>
    <path d="M 24,17 26,17 26,18 26,19 25,19 25,20 24,20 z" fill="#db9255" fill-opacity="1.0" id="xdb9255_r219_g146_b85_a1.0_shape3"/>
  </g>
  <g id="xffdbaa_r255_g219_b170_a1.0">
    <path d="M 17,18 17,19 16,19 15,19 15,20 14,20 13,20 11,20 11,19 9,19 9,18 11,18 12,18 13,18 13,17 14,17 16,17 16,16 18,16 18,15 19,15 19,14 20,14 20,12 21,12 22,12 22,13 22,14 21,14 21,15 21,16 20,16 20,17 19,17 19,18 18,18 z" fill="#ffdbaa" fill-opacity="1.0" id="xffdbaa_r255_g219_b170_a1.0_shape1"/>
  </g>
  <g id="x6d4900_r109_g73_b0_a1.0">
    <path d="M 6,20 6,21 4,21 4,22 1,22 1,21 2,21 2,20 3,20 4,20 4,19 5,19 6,19 6,18 7,18 9,18 9,19 8,19 8,20 z" fill="#6d4900" fill-opacity="1.0" id="x6d4900_r109_g73_b0_a1.0_shape1"/>
    <path d="M 16,22 16,21 19,21 19,22 z" fill="#6d4900" fill-opacity="1.0" id="x6d4900_r109_g73_b0_a1.0_shape2"/>
    <path d="M 15,20 16,20 16,21 15,21 14,21 14,20 z" fill="#6d4900" fill-opacity="1.0" id="x6d4900_r109_g73_b0_a1.0_shape3"/>
    <path d="M 12,24 12,22 13,22 13,24 z" fill="#6d4900" fill-opacity="1.0" id="x6d4900_r109_g73_b0_a1.0_shape4"/>
    <path d="M 16,10 16,11 15,11 15,10 z" fill="#6d4900" fill-opacity="1.0" id="x6d4900_r109_g73_b0_a1.0_shape5"/>
    <path d="M 13,11 14,11 14,12 13,12 z" fill="#6d4900" fill-opacity="1.0" id="x6d4900_r109_g73_b0_a1.0_shape6"/>
    <path d="M 10,14 10,15 9,15 9,14 z" fill="#6d4900" fill-opacity="1.0" id="x6d4900_r109_g73_b0_a1.0_shape7"/>
    <path d="M 8,15 9,15 9,16 8,16 z" fill="#6d4900" fill-opacity="1.0" id="x6d4900_r109_g73_b0_a1.0_shape8"/>
    <path d="M 7,16 8,16 8,17 7,17 z" fill="#6d4900" fill-opacity="1.0" id="x6d4900_r109_g73_b0_a1.0_shape9"/>
    <path d="M 13,21 12,21 12,20 13,20 z" fill="#6d4900" fill-opacity="1.0" id="x6d4900_r109_g73_b0_a1.0_shape10"/>
    <path d="M 13,21 14,21 14,22 13,22 z" fill="#6d4900" fill-opacity="1.0" id="x6d4900_r109_g73_b0_a1.0_shape11"/>
  </g>
  <g id="xdbb655_r219_g182_b85_a1.0">
    <path d="M 23,16 25,16 25,17 24,17 24,20 23,20 23,21 21,21 21,22 20,22 20,20 21,20 21,19 22,19 22,16 22,13 23,13 z" fill="#dbb655" fill-opacity="1.0" id="xdbb655_r219_g182_b85_a1.0_shape1"/>
    <path d="M 24,11 24,10 25,10 26,10 26,11 25,11 z" fill="#dbb655" fill-opacity="1.0" id="xdbb655_r219_g182_b85_a1.0_shape2"/>
  </g>
  <g id="x924900_r146_g73_b0_a1.0">
    <path d="M 19,13 20,13 20,14 19,14 z" fill="#924900" fill-opacity="1.0" id="x924900_r146_g73_b0_a1.0_shape1"/>
    <path d="M 18,15 18,14 19,14 19,15 z" fill="#924900" fill-opacity="1.0" id="x924900_r146_g73_b0_a1.0_shape2"/>
    <path d="M 17,15 18,15 18,16 17,16 z" fill="#924900" fill-opacity="1.0" id="x924900_r146_g73_b0_a1.0_shape3"/>
    <path d="M 16,17 15,17 15,16 16,16 z" fill="#924900" fill-opacity="1.0" id="x924900_r146_g73_b0_a1.0_shape4"/>
    <path d="M 12,17 13,17 13,18 12,18 z" fill="#924900" fill-opacity="1.0" id="x924900_r146_g73_b0_a1.0_shape5"/>
    <path d="M 13,20 14,20 14,21 13,21 z" fill="#924900" fill-opacity="1.0" id="x924900_r146_g73_b0_a1.0_shape6"/>
  </g>
  <g id="xff4900_r255_g73_b0_a1.0">
    <path d="M 25,12 25,13 26,13 26,15 25,15 25,14 24,14 24,12 z" fill="#ff4900" fill-opacity="1.0" id="xff4900_r255_g73_b0_a1.0_shape1"/>
    <path d="M 26,16 26,15 27,15 27,16 z" fill="#ff4900" fill-opacity="1.0" id="xff4900_r255_g73_b0_a1.0_shape2"/>
  </g>
  <g id="xb69255_r182_g146_b85_a1.0">
    <path d="M 24,14 24,15 26,15 26,16 23,16 23,14 z" fill="#b69255" fill-opacity="1.0" id="xb69255_r182_g146_b85_a1.0_shape1"/>
  </g>
  <g id="x000000_r0_g0_b0_a1.0">
    <path d="M 22,10 22,11 21,11 21,10 z" fill="#000000" fill-opacity="1.0" id="x000000_r0_g0_b0_a1.0_shape1"/>
  </g>
  <g id="x492400_r73_g36_b0_a1.0">
    <path d="M 24,13 24,14 23,14 23,13 z" fill="#492400" fill-opacity="1.0" id="x492400_r73_g36_b0_a1.0_shape1"/>
  </g>
  <g id="xdb4900_r219_g73_b0_a1.0">
    <path d="M 24,15 24,14 25,14 25,15 z" fill="#db4900" fill-opacity="1.0" id="xdb4900_r219_g73_b0_a1.0_shape1"/>
  </g>
</svg>
