<?xml version="1.0" encoding="utf-8" ?>
<svg xmlns="http://www.w3.org/2000/svg" xmlns:ev="http://www.w3.org/2001/xml-events" xmlns:xlink="http://www.w3.org/1999/xlink" baseProfile="full" height="32px" version="1.1" viewBox="0 0 32 32" width="32px">
  <defs/>
  <g id="x6d6d55_r109_g109_b85_a1.0">
    <path d="M 17,18 17,19 16,19 16,20 15,20 15,25 11,25 11,26 9,26 9,27 4,27 4,28 2,28 2,27 3,27 3,26 7,26 7,25 10,25 10,24 13,24 13,23 14,23 14,22 13,22 13,20 12,20 12,13 12,12 11,12 11,11 11,10 12,10 12,11 13,11 13,10 14,10 14,9 15,9 15,8 16,8 16,9 17,9 17,8 18,8 18,9 19,9 19,10 20,10 20,11 19,11 19,12 18,12 18,17 18,18 z" fill="#6d6d55" fill-opacity="1.0" id="x6d6d55_r109_g109_b85_a1.0_shape1"/>
    <path d="M 28,21 28,22 26,22 25,22 25,21 26,21 z" fill="#6d6d55" fill-opacity="1.0" id="x6d6d55_r109_g109_b85_a1.0_shape2"/>
    <path d="M 13,5 13,3 14,3 14,5 z" fill="#6d6d55" fill-opacity="1.0" id="x6d6d55_r109_g109_b85_a1.0_shape3"/>
    <path d="M 11,5 11,4 12,4 12,5 z" fill="#6d6d55" fill-opacity="1.0" id="x6d6d55_r109_g109_b85_a1.0_shape4"/>
    <path d="M 10,5 11,5 11,6 10,6 z" fill="#6d6d55" fill-opacity="1.0" id="x6d6d55_r109_g109_b85_a1.0_shape5"/>
    <path d="M 13,5 13,6 12,6 12,5 z" fill="#6d6d55" fill-opacity="1.0" id="x6d6d55_r109_g109_b85_a1.0_shape6"/>
    <path d="M 14,6 14,5 15,5 15,6 z" fill="#6d6d55" fill-opacity="1.0" id="x6d6d55_r109_g109_b85_a1.0_shape7"/>
    <path d="M 12,6 12,7 11,7 11,6 z" fill="#6d6d55" fill-opacity="1.0" id="x6d6d55_r109_g109_b85_a1.0_shape8"/>
    <path d="M 14,6 14,7 13,7 13,6 z" fill="#6d6d55" fill-opacity="1.0" id="x6d6d55_r109_g109_b85_a1.0_shape9"/>
    <path d="M 16,6 16,7 15,7 15,6 z" fill="#6d6d55" fill-opacity="1.0" id="x6d6d55_r109_g109_b85_a1.0_shape10"/>
    <path d="M 11,7 11,8 10,8 10,7 z" fill="#6d6d55" fill-opacity="1.0" id="x6d6d55_r109_g109_b85_a1.0_shape11"/>
    <path d="M 13,7 13,8 12,8 12,7 z" fill="#6d6d55" fill-opacity="1.0" id="x6d6d55_r109_g109_b85_a1.0_shape12"/>
    <path d="M 15,7 15,8 14,8 14,7 z" fill="#6d6d55" fill-opacity="1.0" id="x6d6d55_r109_g109_b85_a1.0_shape13"/>
    <path d="M 16,7 17,7 17,8 16,8 z" fill="#6d6d55" fill-opacity="1.0" id="x6d6d55_r109_g109_b85_a1.0_shape14"/>
    <path d="M 11,8 12,8 12,9 11,9 z" fill="#6d6d55" fill-opacity="1.0" id="x6d6d55_r109_g109_b85_a1.0_shape15"/>
    <path d="M 13,8 14,8 14,9 13,9 z" fill="#6d6d55" fill-opacity="1.0" id="x6d6d55_r109_g109_b85_a1.0_shape16"/>
    <path d="M 12,9 13,9 13,10 12,10 z" fill="#6d6d55" fill-opacity="1.0" id="x6d6d55_r109_g109_b85_a1.0_shape17"/>
  </g>
  <g id="xb6b6aa_r182_g182_b170_a1.0">
    <path d="M 20,16 20,15 21,15 21,14 22,14 22,15 23,15 23,14 24,14 24,15 25,15 25,14 26,14 26,17 27,17 27,19 27,20 26,20 26,21 25,21 25,22 24,22 21,22 21,23 18,23 18,24 15,24 15,23 15,20 16,20 16,19 17,19 17,18 18,18 18,17 19,17 19,16 z" fill="#b6b6aa" fill-opacity="1.0" id="xb6b6aa_r182_g182_b170_a1.0_shape1"/>
    <path d="M 21,11 21,12 20,12 20,11 z" fill="#b6b6aa" fill-opacity="1.0" id="xb6b6aa_r182_g182_b170_a1.0_shape2"/>
    <path d="M 23,11 23,12 22,12 22,11 z" fill="#b6b6aa" fill-opacity="1.0" id="xb6b6aa_r182_g182_b170_a1.0_shape3"/>
    <path d="M 20,12 20,13 19,13 19,12 z" fill="#b6b6aa" fill-opacity="1.0" id="xb6b6aa_r182_g182_b170_a1.0_shape4"/>
    <path d="M 22,12 22,13 21,13 21,12 z" fill="#b6b6aa" fill-opacity="1.0" id="xb6b6aa_r182_g182_b170_a1.0_shape5"/>
    <path d="M 23,13 23,12 24,12 24,13 z" fill="#b6b6aa" fill-opacity="1.0" id="xb6b6aa_r182_g182_b170_a1.0_shape6"/>
    <path d="M 18,13 19,13 19,14 18,14 z" fill="#b6b6aa" fill-opacity="1.0" id="xb6b6aa_r182_g182_b170_a1.0_shape7"/>
    <path d="M 21,13 21,14 20,14 20,13 z" fill="#b6b6aa" fill-opacity="1.0" id="xb6b6aa_r182_g182_b170_a1.0_shape8"/>
    <path d="M 23,13 23,14 22,14 22,13 z" fill="#b6b6aa" fill-opacity="1.0" id="xb6b6aa_r182_g182_b170_a1.0_shape9"/>
    <path d="M 24,13 25,13 25,14 24,14 z" fill="#b6b6aa" fill-opacity="1.0" id="xb6b6aa_r182_g182_b170_a1.0_shape10"/>
    <path d="M 19,14 20,14 20,15 19,15 z" fill="#b6b6aa" fill-opacity="1.0" id="xb6b6aa_r182_g182_b170_a1.0_shape11"/>
    <path d="M 19,15 19,16 18,16 18,15 z" fill="#b6b6aa" fill-opacity="1.0" id="xb6b6aa_r182_g182_b170_a1.0_shape12"/>
  </g>
  <g id="xcfcfc0_r207_g207_b192_a1.0">
    <path d="M 19,11 20,11 20,12 19,12 z" fill="#cfcfc0" fill-opacity="1.0" id="xcfcfc0_r207_g207_b192_a1.0_shape1"/>
    <path d="M 21,12 21,11 22,11 22,12 z" fill="#cfcfc0" fill-opacity="1.0" id="xcfcfc0_r207_g207_b192_a1.0_shape2"/>
    <path d="M 18,13 18,12 19,12 19,13 z" fill="#cfcfc0" fill-opacity="1.0" id="xcfcfc0_r207_g207_b192_a1.0_shape3"/>
    <path d="M 21,12 21,13 20,13 20,12 z" fill="#cfcfc0" fill-opacity="1.0" id="xcfcfc0_r207_g207_b192_a1.0_shape4"/>
    <path d="M 22,12 23,12 23,13 22,13 z" fill="#cfcfc0" fill-opacity="1.0" id="xcfcfc0_r207_g207_b192_a1.0_shape5"/>
    <path d="M 19,13 20,13 20,14 19,14 z" fill="#cfcfc0" fill-opacity="1.0" id="xcfcfc0_r207_g207_b192_a1.0_shape6"/>
    <path d="M 22,14 21,14 21,13 22,13 z" fill="#cfcfc0" fill-opacity="1.0" id="xcfcfc0_r207_g207_b192_a1.0_shape7"/>
    <path d="M 24,13 24,14 23,14 23,13 z" fill="#cfcfc0" fill-opacity="1.0" id="xcfcfc0_r207_g207_b192_a1.0_shape8"/>
    <path d="M 18,15 18,14 19,14 19,15 z" fill="#cfcfc0" fill-opacity="1.0" id="xcfcfc0_r207_g207_b192_a1.0_shape9"/>
    <path d="M 21,15 20,15 20,14 21,14 z" fill="#cfcfc0" fill-opacity="1.0" id="xcfcfc0_r207_g207_b192_a1.0_shape10"/>
    <path d="M 23,15 22,15 22,14 23,14 z" fill="#cfcfc0" fill-opacity="1.0" id="xcfcfc0_r207_g207_b192_a1.0_shape11"/>
    <path d="M 24,15 24,14 25,14 25,15 z" fill="#cfcfc0" fill-opacity="1.0" id="xcfcfc0_r207_g207_b192_a1.0_shape12"/>
    <path d="M 19,16 19,15 20,15 20,16 z" fill="#cfcfc0" fill-opacity="1.0" id="xcfcfc0_r207_g207_b192_a1.0_shape13"/>
    <path d="M 19,17 18,17 18,16 19,16 z" fill="#cfcfc0" fill-opacity="1.0" id="xcfcfc0_r207_g207_b192_a1.0_shape14"/>
    <path d="M 22,23 22,22 23,22 23,23 z" fill="#cfcfc0" fill-opacity="1.0" id="xcfcfc0_r207_g207_b192_a1.0_shape15"/>
    <path d="M 25,23 24,23 24,22 25,22 z" fill="#cfcfc0" fill-opacity="1.0" id="xcfcfc0_r207_g207_b192_a1.0_shape16"/>
    <path d="M 20,24 19,24 19,23 20,23 z" fill="#cfcfc0" fill-opacity="1.0" id="xcfcfc0_r207_g207_b192_a1.0_shape17"/>
    <path d="M 21,24 21,23 22,23 22,24 z" fill="#cfcfc0" fill-opacity="1.0" id="xcfcfc0_r207_g207_b192_a1.0_shape18"/>
    <path d="M 23,24 23,23 24,23 24,24 z" fill="#cfcfc0" fill-opacity="1.0" id="xcfcfc0_r207_g207_b192_a1.0_shape19"/>
    <path d="M 26,23 26,24 25,24 25,23 z" fill="#cfcfc0" fill-opacity="1.0" id="xcfcfc0_r207_g207_b192_a1.0_shape20"/>
    <path d="M 16,25 16,24 17,24 17,25 z" fill="#cfcfc0" fill-opacity="1.0" id="xcfcfc0_r207_g207_b192_a1.0_shape21"/>
    <path d="M 19,25 18,25 18,24 19,24 z" fill="#cfcfc0" fill-opacity="1.0" id="xcfcfc0_r207_g207_b192_a1.0_shape22"/>
    <path d="M 21,25 20,25 20,24 21,24 z" fill="#cfcfc0" fill-opacity="1.0" id="xcfcfc0_r207_g207_b192_a1.0_shape23"/>
    <path d="M 22,24 23,24 23,25 22,25 z" fill="#cfcfc0" fill-opacity="1.0" id="xcfcfc0_r207_g207_b192_a1.0_shape24"/>
    <path d="M 25,25 24,25 24,24 25,24 z" fill="#cfcfc0" fill-opacity="1.0" id="xcfcfc0_r207_g207_b192_a1.0_shape25"/>
    <path d="M 16,26 15,26 15,25 16,25 z" fill="#cfcfc0" fill-opacity="1.0" id="xcfcfc0_r207_g207_b192_a1.0_shape26"/>
    <path d="M 17,26 17,25 18,25 18,26 z" fill="#cfcfc0" fill-opacity="1.0" id="xcfcfc0_r207_g207_b192_a1.0_shape27"/>
    <path d="M 20,25 20,26 19,26 19,25 z" fill="#cfcfc0" fill-opacity="1.0" id="xcfcfc0_r207_g207_b192_a1.0_shape28"/>
    <path d="M 21,25 22,25 22,26 21,26 z" fill="#cfcfc0" fill-opacity="1.0" id="xcfcfc0_r207_g207_b192_a1.0_shape29"/>
    <path d="M 24,25 24,26 23,26 23,25 z" fill="#cfcfc0" fill-opacity="1.0" id="xcfcfc0_r207_g207_b192_a1.0_shape30"/>
    <path d="M 15,27 14,27 14,26 15,26 z" fill="#cfcfc0" fill-opacity="1.0" id="xcfcfc0_r207_g207_b192_a1.0_shape31"/>
    <path d="M 16,27 16,26 17,26 17,27 z" fill="#cfcfc0" fill-opacity="1.0" id="xcfcfc0_r207_g207_b192_a1.0_shape32"/>
    <path d="M 18,27 18,26 19,26 19,27 z" fill="#cfcfc0" fill-opacity="1.0" id="xcfcfc0_r207_g207_b192_a1.0_shape33"/>
    <path d="M 20,26 21,26 21,27 20,27 z" fill="#cfcfc0" fill-opacity="1.0" id="xcfcfc0_r207_g207_b192_a1.0_shape34"/>
    <path d="M 23,26 23,27 22,27 22,26 z" fill="#cfcfc0" fill-opacity="1.0" id="xcfcfc0_r207_g207_b192_a1.0_shape35"/>
  </g>
  <g id="xa1a17d_r161_g161_b125_a1.0">
    <path d="M 11,15 11,14 12,14 12,15 12,18 11,18 z" fill="#a1a17d" fill-opacity="1.0" id="xa1a17d_r161_g161_b125_a1.0_shape1"/>
    <path d="M 13,4 13,5 12,5 12,4 12,3 13,3 z" fill="#a1a17d" fill-opacity="1.0" id="xa1a17d_r161_g161_b125_a1.0_shape2"/>
    <path d="M 14,4 15,4 15,5 14,5 z" fill="#a1a17d" fill-opacity="1.0" id="xa1a17d_r161_g161_b125_a1.0_shape3"/>
    <path d="M 12,6 11,6 11,5 12,5 z" fill="#a1a17d" fill-opacity="1.0" id="xa1a17d_r161_g161_b125_a1.0_shape4"/>
    <path d="M 13,5 14,5 14,6 13,6 z" fill="#a1a17d" fill-opacity="1.0" id="xa1a17d_r161_g161_b125_a1.0_shape5"/>
    <path d="M 15,5 16,5 16,6 15,6 z" fill="#a1a17d" fill-opacity="1.0" id="xa1a17d_r161_g161_b125_a1.0_shape6"/>
    <path d="M 10,7 10,6 11,6 11,7 z" fill="#a1a17d" fill-opacity="1.0" id="xa1a17d_r161_g161_b125_a1.0_shape7"/>
    <path d="M 12,6 13,6 13,7 12,7 z" fill="#a1a17d" fill-opacity="1.0" id="xa1a17d_r161_g161_b125_a1.0_shape8"/>
    <path d="M 14,6 15,6 15,7 14,7 z" fill="#a1a17d" fill-opacity="1.0" id="xa1a17d_r161_g161_b125_a1.0_shape9"/>
    <path d="M 17,7 16,7 16,6 17,6 z" fill="#a1a17d" fill-opacity="1.0" id="xa1a17d_r161_g161_b125_a1.0_shape10"/>
    <path d="M 12,8 11,8 11,7 12,7 z" fill="#a1a17d" fill-opacity="1.0" id="xa1a17d_r161_g161_b125_a1.0_shape11"/>
    <path d="M 13,8 13,7 14,7 14,8 z" fill="#a1a17d" fill-opacity="1.0" id="xa1a17d_r161_g161_b125_a1.0_shape12"/>
    <path d="M 15,8 15,7 16,7 16,8 z" fill="#a1a17d" fill-opacity="1.0" id="xa1a17d_r161_g161_b125_a1.0_shape13"/>
    <path d="M 17,8 17,7 18,7 18,8 z" fill="#a1a17d" fill-opacity="1.0" id="xa1a17d_r161_g161_b125_a1.0_shape14"/>
    <path d="M 12,9 12,8 13,8 13,9 z" fill="#a1a17d" fill-opacity="1.0" id="xa1a17d_r161_g161_b125_a1.0_shape15"/>
    <path d="M 14,9 14,8 15,8 15,9 z" fill="#a1a17d" fill-opacity="1.0" id="xa1a17d_r161_g161_b125_a1.0_shape16"/>
    <path d="M 17,8 17,9 16,9 16,8 z" fill="#a1a17d" fill-opacity="1.0" id="xa1a17d_r161_g161_b125_a1.0_shape17"/>
    <path d="M 19,8 19,9 18,9 18,8 z" fill="#a1a17d" fill-opacity="1.0" id="xa1a17d_r161_g161_b125_a1.0_shape18"/>
    <path d="M 12,10 11,10 11,9 12,9 z" fill="#a1a17d" fill-opacity="1.0" id="xa1a17d_r161_g161_b125_a1.0_shape19"/>
    <path d="M 13,9 14,9 14,10 13,10 z" fill="#a1a17d" fill-opacity="1.0" id="xa1a17d_r161_g161_b125_a1.0_shape20"/>
    <path d="M 19,9 20,9 20,10 19,10 z" fill="#a1a17d" fill-opacity="1.0" id="xa1a17d_r161_g161_b125_a1.0_shape21"/>
    <path d="M 13,11 12,11 12,10 13,10 z" fill="#a1a17d" fill-opacity="1.0" id="xa1a17d_r161_g161_b125_a1.0_shape22"/>
    <path d="M 20,10 21,10 21,11 20,11 z" fill="#a1a17d" fill-opacity="1.0" id="xa1a17d_r161_g161_b125_a1.0_shape23"/>
  </g>
  <g id="xe8e8d8_r232_g232_b216_a1.0">
    <path d="M 28,23 28,24 27,24 26,24 26,23 27,23 z" fill="#e8e8d8" fill-opacity="1.0" id="xe8e8d8_r232_g232_b216_a1.0_shape1"/>
    <path d="M 22,23 21,23 21,22 22,22 z" fill="#e8e8d8" fill-opacity="1.0" id="xe8e8d8_r232_g232_b216_a1.0_shape2"/>
    <path d="M 24,23 23,23 23,22 24,22 z" fill="#e8e8d8" fill-opacity="1.0" id="xe8e8d8_r232_g232_b216_a1.0_shape3"/>
    <path d="M 25,23 25,22 26,22 26,23 z" fill="#e8e8d8" fill-opacity="1.0" id="xe8e8d8_r232_g232_b216_a1.0_shape4"/>
    <path d="M 29,22 29,23 28,23 28,22 z" fill="#e8e8d8" fill-opacity="1.0" id="xe8e8d8_r232_g232_b216_a1.0_shape5"/>
    <path d="M 19,23 19,24 18,24 18,23 z" fill="#e8e8d8" fill-opacity="1.0" id="xe8e8d8_r232_g232_b216_a1.0_shape6"/>
    <path d="M 21,24 20,24 20,23 21,23 z" fill="#e8e8d8" fill-opacity="1.0" id="xe8e8d8_r232_g232_b216_a1.0_shape7"/>
    <path d="M 23,23 23,24 22,24 22,23 z" fill="#e8e8d8" fill-opacity="1.0" id="xe8e8d8_r232_g232_b216_a1.0_shape8"/>
    <path d="M 24,23 25,23 25,24 24,24 z" fill="#e8e8d8" fill-opacity="1.0" id="xe8e8d8_r232_g232_b216_a1.0_shape9"/>
    <path d="M 16,25 15,25 15,24 16,24 z" fill="#e8e8d8" fill-opacity="1.0" id="xe8e8d8_r232_g232_b216_a1.0_shape10"/>
    <path d="M 18,24 18,25 17,25 17,24 z" fill="#e8e8d8" fill-opacity="1.0" id="xe8e8d8_r232_g232_b216_a1.0_shape11"/>
    <path d="M 20,24 20,25 19,25 19,24 z" fill="#e8e8d8" fill-opacity="1.0" id="xe8e8d8_r232_g232_b216_a1.0_shape12"/>
    <path d="M 22,24 22,25 21,25 21,24 z" fill="#e8e8d8" fill-opacity="1.0" id="xe8e8d8_r232_g232_b216_a1.0_shape13"/>
    <path d="M 23,25 23,24 24,24 24,25 z" fill="#e8e8d8" fill-opacity="1.0" id="xe8e8d8_r232_g232_b216_a1.0_shape14"/>
    <path d="M 25,24 26,24 26,25 25,25 z" fill="#e8e8d8" fill-opacity="1.0" id="xe8e8d8_r232_g232_b216_a1.0_shape15"/>
    <path d="M 14,26 14,25 15,25 15,26 z" fill="#e8e8d8" fill-opacity="1.0" id="xe8e8d8_r232_g232_b216_a1.0_shape16"/>
    <path d="M 16,25 17,25 17,26 16,26 z" fill="#e8e8d8" fill-opacity="1.0" id="xe8e8d8_r232_g232_b216_a1.0_shape17"/>
    <path d="M 19,25 19,26 18,26 18,25 z" fill="#e8e8d8" fill-opacity="1.0" id="xe8e8d8_r232_g232_b216_a1.0_shape18"/>
    <path d="M 20,25 21,25 21,26 20,26 z" fill="#e8e8d8" fill-opacity="1.0" id="xe8e8d8_r232_g232_b216_a1.0_shape19"/>
    <path d="M 22,26 22,25 23,25 23,26 z" fill="#e8e8d8" fill-opacity="1.0" id="xe8e8d8_r232_g232_b216_a1.0_shape20"/>
    <path d="M 25,25 25,26 24,26 24,25 z" fill="#e8e8d8" fill-opacity="1.0" id="xe8e8d8_r232_g232_b216_a1.0_shape21"/>
    <path d="M 16,26 16,27 15,27 15,26 z" fill="#e8e8d8" fill-opacity="1.0" id="xe8e8d8_r232_g232_b216_a1.0_shape22"/>
    <path d="M 18,26 18,27 17,27 17,26 z" fill="#e8e8d8" fill-opacity="1.0" id="xe8e8d8_r232_g232_b216_a1.0_shape23"/>
    <path d="M 19,26 20,26 20,27 19,27 z" fill="#e8e8d8" fill-opacity="1.0" id="xe8e8d8_r232_g232_b216_a1.0_shape24"/>
    <path d="M 21,27 21,26 22,26 22,27 z" fill="#e8e8d8" fill-opacity="1.0" id="xe8e8d8_r232_g232_b216_a1.0_shape25"/>
  </g>
  <g id="x000000_r0_g0_b0_a1.0">
    <path d="M 13,29 19,29 19,30 18,30 18,31 17,31 17,32 15,32 15,31 14,31 14,30 13,30 z" fill="#000000" fill-opacity="1.0" id="x000000_r0_g0_b0_a1.0_shape1"/>
  </g>
  <g id="xffffff_r255_g255_b255_a1.0">
    <path d="M 10,27 9,27 9,26 10,26 11,26 11,25 12,25 14,25 14,27 z" fill="#ffffff" fill-opacity="1.0" id="xffffff_r255_g255_b255_a1.0_shape1"/>
  </g>
  <g id="x242400_r36_g36_b0_a1.0">
    <path d="M 26,22 28,22 28,23 26,23 z" fill="#242400" fill-opacity="1.0" id="x242400_r36_g36_b0_a1.0_shape1"/>
    <path d="M 29,23 29,22 30,22 30,23 z" fill="#242400" fill-opacity="1.0" id="x242400_r36_g36_b0_a1.0_shape2"/>
  </g>
  <g id="xffdb00_r255_g219_b0_a1.0">
    <path d="M 29,22 28,22 28,21 29,21 z" fill="#ffdb00" fill-opacity="1.0" id="xffdb00_r255_g219_b0_a1.0_shape1"/>
  </g>
</svg>
