<?xml version="1.0" encoding="utf-8" ?>
<svg xmlns="http://www.w3.org/2000/svg" xmlns:ev="http://www.w3.org/2001/xml-events" xmlns:xlink="http://www.w3.org/1999/xlink" baseProfile="full" height="32px" version="1.1" viewBox="0 0 32 32" width="32px">
  <defs/>
  <g id="x424242_r66_g66_b66_a1.0">
    <path d="M 26,12 26,24 6,24 6,12 z M 7,22 8,22 8,14 7,14 z M 20,20 20,16 19,16 19,15 18,15 18,14 14,14 14,15 13,15 13,16 12,16 12,17 12,20 13,20 13,21 14,21 14,22 18,22 18,21 19,21 19,20 z M 25,14 24,14 24,17 24,22 25,22 25,20 z" fill="#424242" fill-opacity="1.0" id="x424242_r66_g66_b66_a1.0_shape1"/>
    <path d="M 14,21 14,20 13,20 13,16 14,16 14,15 18,15 18,16 19,16 19,19 19,20 18,20 18,21 z M 17,19 18,19 18,17 17,17 17,16 15,16 15,17 14,17 14,19 15,19 15,20 16,20 17,20 z" fill="#424242" fill-opacity="1.0" id="x424242_r66_g66_b66_a1.0_shape2"/>
  </g>
  <g id="x797979_r121_g121_b121_a1.0">
    <path d="M 7,14 8,14 8,22 7,22 z" fill="#797979" fill-opacity="1.0" id="x797979_r121_g121_b121_a1.0_shape1"/>
    <path d="M 24,14 25,14 25,20 25,22 24,22 24,20 z" fill="#797979" fill-opacity="1.0" id="x797979_r121_g121_b121_a1.0_shape2"/>
    <path d="M 7,12 7,11 10,11 11,11 11,12 10,12 z" fill="#797979" fill-opacity="1.0" id="x797979_r121_g121_b121_a1.0_shape3"/>
  </g>
  <g id="xd6d6d6_r214_g214_b214_a1.0">
    <path d="M 18,14 18,15 16,15 14,15 14,14 15,14 z" fill="#d6d6d6" fill-opacity="1.0" id="xd6d6d6_r214_g214_b214_a1.0_shape1"/>
    <path d="M 13,19 13,20 12,20 12,19 12,16 13,16 z" fill="#d6d6d6" fill-opacity="1.0" id="xd6d6d6_r214_g214_b214_a1.0_shape2"/>
    <path d="M 20,16 20,20 19,20 19,16 z" fill="#d6d6d6" fill-opacity="1.0" id="xd6d6d6_r214_g214_b214_a1.0_shape3"/>
    <path d="M 18,21 18,22 17,22 14,22 14,21 16,21 z" fill="#d6d6d6" fill-opacity="1.0" id="xd6d6d6_r214_g214_b214_a1.0_shape4"/>
    <path d="M 14,16 13,16 13,15 14,15 z" fill="#d6d6d6" fill-opacity="1.0" id="xd6d6d6_r214_g214_b214_a1.0_shape5"/>
    <path d="M 19,15 19,16 18,16 18,15 z" fill="#d6d6d6" fill-opacity="1.0" id="xd6d6d6_r214_g214_b214_a1.0_shape6"/>
    <path d="M 13,20 14,20 14,21 13,21 z" fill="#d6d6d6" fill-opacity="1.0" id="xd6d6d6_r214_g214_b214_a1.0_shape7"/>
    <path d="M 18,20 19,20 19,21 18,21 z" fill="#d6d6d6" fill-opacity="1.0" id="xd6d6d6_r214_g214_b214_a1.0_shape8"/>
  </g>
  <g id="x242400_r36_g36_b0_a1.0">
    <path d="M 15,19 14,19 14,17 15,17 15,16 17,16 17,17 18,17 18,19 17,19 17,20 16,20 15,20 z" fill="#242400" fill-opacity="1.0" id="x242400_r36_g36_b0_a1.0_shape1"/>
  </g>
  <g id="x000000_r0_g0_b0_a1.0">
    <path d="M 13,29 19,29 19,30 18,30 18,31 17,31 17,32 15,32 15,31 14,31 14,30 13,30 z" fill="#000000" fill-opacity="1.0" id="x000000_r0_g0_b0_a1.0_shape1"/>
  </g>
</svg>
