<?xml version="1.0" encoding="utf-8" ?>
<svg xmlns="http://www.w3.org/2000/svg" xmlns:ev="http://www.w3.org/2001/xml-events" xmlns:xlink="http://www.w3.org/1999/xlink" baseProfile="full" height="32px" version="1.1" viewBox="0 0 32 32" width="32px">
  <defs/>
  <g id="x920000_r146_g0_b0_a1.0">
    <path d="M 14,22 15,22 15,21 16,21 18,21 18,22 19,22 19,23 20,23 20,25 20,28 19,28 19,29 18,29 18,30 15,30 15,29 14,29 14,28 13,28 13,26 13,24 13,23 14,23 z" fill="#920000" fill-opacity="1.0" id="x920000_r146_g0_b0_a1.0_shape1"/>
    <path d="M 16,10 16,8 17,8 17,10 18,10 18,11 19,11 19,12 16,12 14,12 14,11 15,11 15,10 z" fill="#920000" fill-opacity="1.0" id="x920000_r146_g0_b0_a1.0_shape2"/>
    <path d="M 10,4 10,3 11,3 11,4 11,5 10,5 z" fill="#920000" fill-opacity="1.0" id="x920000_r146_g0_b0_a1.0_shape3"/>
    <path d="M 23,3 23,5 22,5 22,3 z" fill="#920000" fill-opacity="1.0" id="x920000_r146_g0_b0_a1.0_shape4"/>
    <path d="M 14,7 12,7 12,6 14,6 z" fill="#920000" fill-opacity="1.0" id="x920000_r146_g0_b0_a1.0_shape5"/>
    <path d="M 19,6 21,6 21,7 19,7 z" fill="#920000" fill-opacity="1.0" id="x920000_r146_g0_b0_a1.0_shape6"/>
    <path d="M 9,2 8,2 8,1 9,1 z" fill="#920000" fill-opacity="1.0" id="x920000_r146_g0_b0_a1.0_shape7"/>
    <path d="M 25,1 25,2 24,2 24,1 z" fill="#920000" fill-opacity="1.0" id="x920000_r146_g0_b0_a1.0_shape8"/>
    <path d="M 9,2 10,2 10,3 9,3 z" fill="#920000" fill-opacity="1.0" id="x920000_r146_g0_b0_a1.0_shape9"/>
    <path d="M 24,3 23,3 23,2 24,2 z" fill="#920000" fill-opacity="1.0" id="x920000_r146_g0_b0_a1.0_shape10"/>
    <path d="M 12,6 11,6 11,5 12,5 z" fill="#920000" fill-opacity="1.0" id="x920000_r146_g0_b0_a1.0_shape11"/>
    <path d="M 22,5 22,6 21,6 21,5 z" fill="#920000" fill-opacity="1.0" id="x920000_r146_g0_b0_a1.0_shape12"/>
    <path d="M 15,7 15,8 14,8 14,7 z" fill="#920000" fill-opacity="1.0" id="x920000_r146_g0_b0_a1.0_shape13"/>
    <path d="M 19,8 18,8 18,7 19,7 z" fill="#920000" fill-opacity="1.0" id="x920000_r146_g0_b0_a1.0_shape14"/>
  </g>
  <g id="x6d0000_r109_g0_b0_a1.0">
    <path d="M 12,10 13,10 13,13 13,14 12,14 12,13 z" fill="#6d0000" fill-opacity="1.0" id="x6d0000_r109_g0_b0_a1.0_shape1"/>
    <path d="M 21,14 20,14 20,12 20,10 21,10 21,11 z" fill="#6d0000" fill-opacity="1.0" id="x6d0000_r109_g0_b0_a1.0_shape2"/>
    <path d="M 11,22 11,21 13,21 14,21 14,22 13,22 z" fill="#6d0000" fill-opacity="1.0" id="x6d0000_r109_g0_b0_a1.0_shape3"/>
    <path d="M 22,21 22,22 19,22 19,21 z" fill="#6d0000" fill-opacity="1.0" id="x6d0000_r109_g0_b0_a1.0_shape4"/>
    <path d="M 13,14 14,14 14,15 14,16 13,16 13,15 z" fill="#6d0000" fill-opacity="1.0" id="x6d0000_r109_g0_b0_a1.0_shape5"/>
    <path d="M 20,16 19,16 19,15 19,14 20,14 20,15 z" fill="#6d0000" fill-opacity="1.0" id="x6d0000_r109_g0_b0_a1.0_shape6"/>
    <path d="M 10,17 10,18 9,18 8,18 8,17 9,17 z" fill="#6d0000" fill-opacity="1.0" id="x6d0000_r109_g0_b0_a1.0_shape7"/>
    <path d="M 12,18 11,18 11,17 12,17 13,17 13,18 z" fill="#6d0000" fill-opacity="1.0" id="x6d0000_r109_g0_b0_a1.0_shape8"/>
    <path d="M 22,17 22,18 21,18 20,18 20,17 21,17 z" fill="#6d0000" fill-opacity="1.0" id="x6d0000_r109_g0_b0_a1.0_shape9"/>
    <path d="M 24,18 23,18 23,17 24,17 25,17 25,18 z" fill="#6d0000" fill-opacity="1.0" id="x6d0000_r109_g0_b0_a1.0_shape10"/>
    <path d="M 7,19 6,19 6,18 7,18 8,18 8,19 z" fill="#6d0000" fill-opacity="1.0" id="x6d0000_r109_g0_b0_a1.0_shape11"/>
    <path d="M 15,19 13,19 13,18 15,18 z" fill="#6d0000" fill-opacity="1.0" id="x6d0000_r109_g0_b0_a1.0_shape12"/>
    <path d="M 18,19 18,18 19,18 20,18 20,19 19,19 z" fill="#6d0000" fill-opacity="1.0" id="x6d0000_r109_g0_b0_a1.0_shape13"/>
    <path d="M 26,18 27,18 27,19 26,19 25,19 25,18 z" fill="#6d0000" fill-opacity="1.0" id="x6d0000_r109_g0_b0_a1.0_shape14"/>
    <path d="M 10,25 9,25 9,24 9,23 10,23 10,24 z" fill="#6d0000" fill-opacity="1.0" id="x6d0000_r109_g0_b0_a1.0_shape15"/>
    <path d="M 24,23 24,25 23,25 23,23 z" fill="#6d0000" fill-opacity="1.0" id="x6d0000_r109_g0_b0_a1.0_shape16"/>
    <path d="M 8,25 9,25 9,26 9,27 8,27 8,26 z" fill="#6d0000" fill-opacity="1.0" id="x6d0000_r109_g0_b0_a1.0_shape17"/>
    <path d="M 25,25 25,27 24,27 24,25 z" fill="#6d0000" fill-opacity="1.0" id="x6d0000_r109_g0_b0_a1.0_shape18"/>
    <path d="M 8,27 8,29 7,29 7,27 z" fill="#6d0000" fill-opacity="1.0" id="x6d0000_r109_g0_b0_a1.0_shape19"/>
    <path d="M 25,28 25,27 26,27 26,28 26,29 25,29 z" fill="#6d0000" fill-opacity="1.0" id="x6d0000_r109_g0_b0_a1.0_shape20"/>
    <path d="M 6,30 6,29 7,29 7,30 7,31 6,31 z" fill="#6d0000" fill-opacity="1.0" id="x6d0000_r109_g0_b0_a1.0_shape21"/>
    <path d="M 27,29 27,31 26,31 26,29 z" fill="#6d0000" fill-opacity="1.0" id="x6d0000_r109_g0_b0_a1.0_shape22"/>
    <path d="M 10,16 11,16 11,17 10,17 z" fill="#6d0000" fill-opacity="1.0" id="x6d0000_r109_g0_b0_a1.0_shape23"/>
    <path d="M 14,17 14,16 15,16 15,17 z" fill="#6d0000" fill-opacity="1.0" id="x6d0000_r109_g0_b0_a1.0_shape24"/>
    <path d="M 19,17 18,17 18,16 19,16 z" fill="#6d0000" fill-opacity="1.0" id="x6d0000_r109_g0_b0_a1.0_shape25"/>
    <path d="M 23,16 23,17 22,17 22,16 z" fill="#6d0000" fill-opacity="1.0" id="x6d0000_r109_g0_b0_a1.0_shape26"/>
    <path d="M 5,19 6,19 6,20 5,20 z" fill="#6d0000" fill-opacity="1.0" id="x6d0000_r109_g0_b0_a1.0_shape27"/>
    <path d="M 27,19 28,19 28,20 27,20 z" fill="#6d0000" fill-opacity="1.0" id="x6d0000_r109_g0_b0_a1.0_shape28"/>
    <path d="M 14,21 14,20 15,20 15,21 z" fill="#6d0000" fill-opacity="1.0" id="x6d0000_r109_g0_b0_a1.0_shape29"/>
    <path d="M 18,20 19,20 19,21 18,21 z" fill="#6d0000" fill-opacity="1.0" id="x6d0000_r109_g0_b0_a1.0_shape30"/>
    <path d="M 11,22 11,23 10,23 10,22 z" fill="#6d0000" fill-opacity="1.0" id="x6d0000_r109_g0_b0_a1.0_shape31"/>
    <path d="M 22,23 22,22 23,22 23,23 z" fill="#6d0000" fill-opacity="1.0" id="x6d0000_r109_g0_b0_a1.0_shape32"/>
  </g>
  <g id="xb60000_r182_g0_b0_a1.0">
    <path d="M 16,16 15,16 15,15 15,13 16,13 16,12 17,12 17,13 18,13 18,15 18,16 17,16 17,17 18,17 18,19 18,20 18,21 17,21 16,21 15,21 15,20 15,19 15,17 16,17 z" fill="#b60000" fill-opacity="1.0" id="xb60000_r182_g0_b0_a1.0_shape1"/>
    <path d="M 14,9 15,9 15,8 16,8 16,10 15,10 14,10 z" fill="#b60000" fill-opacity="1.0" id="xb60000_r182_g0_b0_a1.0_shape2"/>
    <path d="M 19,10 17,10 17,9 17,8 18,8 18,9 19,9 z" fill="#b60000" fill-opacity="1.0" id="xb60000_r182_g0_b0_a1.0_shape3"/>
  </g>
  <g id="x000000_r0_g0_b0_a1.0">
    <path d="M 15,10 15,11 14,11 14,10 z" fill="#000000" fill-opacity="1.0" id="x000000_r0_g0_b0_a1.0_shape1"/>
    <path d="M 18,10 19,10 19,11 18,11 z" fill="#000000" fill-opacity="1.0" id="x000000_r0_g0_b0_a1.0_shape2"/>
  </g>
</svg>
