<?xml version="1.0" encoding="utf-8" ?>
<svg xmlns="http://www.w3.org/2000/svg" xmlns:ev="http://www.w3.org/2001/xml-events" xmlns:xlink="http://www.w3.org/1999/xlink" baseProfile="full" height="32px" version="1.1" viewBox="0 0 32 32" width="32px">
  <defs/>
  <g id="x7a4300_r122_g67_b0_a1.0">
    <path d="M 2,17 4,17 4,25 4,26 2,26 2,23 z" fill="#7a4300" fill-opacity="1.0" id="x7a4300_r122_g67_b0_a1.0_shape1"/>
    <path d="M 30,26 28,26 28,18 28,17 30,17 30,20 z" fill="#7a4300" fill-opacity="1.0" id="x7a4300_r122_g67_b0_a1.0_shape2"/>
    <path d="M 5,25 5,18 7,18 7,19 6,19 6,22 6,24 7,24 7,25 z" fill="#7a4300" fill-opacity="1.0" id="x7a4300_r122_g67_b0_a1.0_shape3"/>
    <path d="M 17,19 17,18 19,18 19,19 18,19 18,20 19,20 19,21 16,21 16,19 z" fill="#7a4300" fill-opacity="1.0" id="x7a4300_r122_g67_b0_a1.0_shape4"/>
    <path d="M 10,20 8,20 8,19 9,19 9,18 11,18 11,19 10,19 z" fill="#7a4300" fill-opacity="1.0" id="x7a4300_r122_g67_b0_a1.0_shape5"/>
    <path d="M 15,19 14,19 14,20 12,20 12,19 13,19 13,18 15,18 z" fill="#7a4300" fill-opacity="1.0" id="x7a4300_r122_g67_b0_a1.0_shape6"/>
    <path d="M 22,19 22,20 21,20 20,20 20,19 21,19 21,18 23,18 23,19 z" fill="#7a4300" fill-opacity="1.0" id="x7a4300_r122_g67_b0_a1.0_shape7"/>
    <path d="M 27,18 27,19 26,19 26,20 24,20 24,19 25,19 25,18 z" fill="#7a4300" fill-opacity="1.0" id="x7a4300_r122_g67_b0_a1.0_shape8"/>
    <path d="M 13,22 13,21 16,21 16,22 z" fill="#7a4300" fill-opacity="1.0" id="x7a4300_r122_g67_b0_a1.0_shape9"/>
    <path d="M 10,23 10,22 13,22 13,23 z" fill="#7a4300" fill-opacity="1.0" id="x7a4300_r122_g67_b0_a1.0_shape10"/>
    <path d="M 7,23 10,23 10,24 7,24 z" fill="#7a4300" fill-opacity="1.0" id="x7a4300_r122_g67_b0_a1.0_shape11"/>
  </g>
  <g id="xff2841_r255_g40_b65_a1.0">
    <path d="M 6,20 6,19 7,19 7,18 9,18 9,19 8,19 8,20 z" fill="#ff2841" fill-opacity="1.0" id="xff2841_r255_g40_b65_a1.0_shape1"/>
    <path d="M 10,19 11,19 11,18 13,18 13,19 12,19 12,20 10,20 z" fill="#ff2841" fill-opacity="1.0" id="xff2841_r255_g40_b65_a1.0_shape2"/>
    <path d="M 16,19 16,20 15,20 14,20 14,19 15,19 15,18 17,18 17,19 z" fill="#ff2841" fill-opacity="1.0" id="xff2841_r255_g40_b65_a1.0_shape3"/>
    <path d="M 20,20 18,20 18,19 19,19 19,18 21,18 21,19 20,19 z" fill="#ff2841" fill-opacity="1.0" id="xff2841_r255_g40_b65_a1.0_shape4"/>
    <path d="M 22,20 22,19 23,19 23,18 25,18 25,19 24,19 24,20 23,20 z" fill="#ff2841" fill-opacity="1.0" id="xff2841_r255_g40_b65_a1.0_shape5"/>
    <path d="M 26,19 27,19 27,20 26,20 z" fill="#ff2841" fill-opacity="1.0" id="xff2841_r255_g40_b65_a1.0_shape6"/>
  </g>
  <g id="x000000_r0_g0_b0_a1.0">
    <path d="M 13,29 19,29 19,30 18,30 18,31 17,31 17,32 15,32 15,31 14,31 14,30 13,30 z" fill="#000000" fill-opacity="1.0" id="x000000_r0_g0_b0_a1.0_shape1"/>
  </g>
</svg>
