<?xml version="1.0" encoding="utf-8" ?>
<svg xmlns="http://www.w3.org/2000/svg" xmlns:ev="http://www.w3.org/2001/xml-events" xmlns:xlink="http://www.w3.org/1999/xlink" baseProfile="full" height="32px" version="1.1" viewBox="0 0 32 32" width="32px">
  <defs/>
  <g id="x7a4300_r122_g67_b0_a1.0">
    <path d="M 5,22 7,22 7,20 9,20 9,22 8,22 8,23 7,23 7,24 5,24 z" fill="#7a4300" fill-opacity="1.0" id="x7a4300_r122_g67_b0_a1.0_shape1"/>
    <path d="M 22,23 22,22 23,22 23,20 25,20 25,22 24,22 24,23 23,23 23,24 21,24 21,23 z" fill="#7a4300" fill-opacity="1.0" id="x7a4300_r122_g67_b0_a1.0_shape2"/>
    <path d="M 7,20 5,20 5,18 7,18 7,17 9,17 9,18 8,18 8,19 7,19 z" fill="#7a4300" fill-opacity="1.0" id="x7a4300_r122_g67_b0_a1.0_shape3"/>
    <path d="M 24,18 24,19 23,19 23,20 21,20 21,19 22,19 22,18 23,18 23,17 25,17 25,18 z" fill="#7a4300" fill-opacity="1.0" id="x7a4300_r122_g67_b0_a1.0_shape4"/>
    <path d="M 9,20 9,19 10,19 10,18 12,18 12,19 11,19 11,20 z" fill="#7a4300" fill-opacity="1.0" id="x7a4300_r122_g67_b0_a1.0_shape5"/>
    <path d="M 13,20 13,19 14,19 14,18 16,18 16,19 15,19 15,20 14,20 z" fill="#7a4300" fill-opacity="1.0" id="x7a4300_r122_g67_b0_a1.0_shape6"/>
    <path d="M 17,19 18,19 18,18 20,18 20,19 19,19 19,20 17,20 z" fill="#7a4300" fill-opacity="1.0" id="x7a4300_r122_g67_b0_a1.0_shape7"/>
    <path d="M 11,23 11,24 10,24 9,24 9,23 10,23 10,22 12,22 12,23 z" fill="#7a4300" fill-opacity="1.0" id="x7a4300_r122_g67_b0_a1.0_shape8"/>
    <path d="M 14,22 16,22 16,23 15,23 15,24 13,24 13,23 14,23 z" fill="#7a4300" fill-opacity="1.0" id="x7a4300_r122_g67_b0_a1.0_shape9"/>
    <path d="M 18,22 20,22 20,23 19,23 19,24 17,24 17,23 18,23 z" fill="#7a4300" fill-opacity="1.0" id="x7a4300_r122_g67_b0_a1.0_shape10"/>
    <path d="M 7,26 7,24 9,24 9,26 z" fill="#7a4300" fill-opacity="1.0" id="x7a4300_r122_g67_b0_a1.0_shape11"/>
    <path d="M 25,24 25,26 23,26 23,24 z" fill="#7a4300" fill-opacity="1.0" id="x7a4300_r122_g67_b0_a1.0_shape12"/>
    <path d="M 26,18 27,18 27,20 25,20 25,19 26,19 z" fill="#7a4300" fill-opacity="1.0" id="x7a4300_r122_g67_b0_a1.0_shape13"/>
    <path d="M 25,24 25,23 26,23 26,22 27,22 27,23 27,24 z" fill="#7a4300" fill-opacity="1.0" id="x7a4300_r122_g67_b0_a1.0_shape14"/>
  </g>
  <g id="xff2841_r255_g40_b65_a1.0">
    <path d="M 7,19 8,19 8,18 10,18 10,19 9,19 9,20 7,20 z" fill="#ff2841" fill-opacity="1.0" id="xff2841_r255_g40_b65_a1.0_shape1"/>
    <path d="M 14,18 14,19 13,19 13,20 11,20 11,19 12,19 12,18 13,18 z" fill="#ff2841" fill-opacity="1.0" id="xff2841_r255_g40_b65_a1.0_shape2"/>
    <path d="M 17,20 15,20 15,19 16,19 16,18 18,18 18,19 17,19 z" fill="#ff2841" fill-opacity="1.0" id="xff2841_r255_g40_b65_a1.0_shape3"/>
    <path d="M 19,20 19,19 20,19 20,18 22,18 22,19 21,19 21,20 z" fill="#ff2841" fill-opacity="1.0" id="xff2841_r255_g40_b65_a1.0_shape4"/>
    <path d="M 24,19 24,18 25,18 26,18 26,19 25,19 25,20 23,20 23,19 z" fill="#ff2841" fill-opacity="1.0" id="xff2841_r255_g40_b65_a1.0_shape5"/>
    <path d="M 7,23 8,23 8,22 10,22 10,23 9,23 9,24 7,24 z" fill="#ff2841" fill-opacity="1.0" id="xff2841_r255_g40_b65_a1.0_shape6"/>
    <path d="M 14,23 13,23 13,24 11,24 11,23 12,23 12,22 14,22 z" fill="#ff2841" fill-opacity="1.0" id="xff2841_r255_g40_b65_a1.0_shape7"/>
    <path d="M 15,24 15,23 16,23 16,22 18,22 18,23 17,23 17,24 z" fill="#ff2841" fill-opacity="1.0" id="xff2841_r255_g40_b65_a1.0_shape8"/>
    <path d="M 20,23 20,22 21,22 22,22 22,23 21,23 21,24 19,24 19,23 z" fill="#ff2841" fill-opacity="1.0" id="xff2841_r255_g40_b65_a1.0_shape9"/>
    <path d="M 26,22 26,23 25,23 25,24 23,24 23,23 24,23 24,22 z" fill="#ff2841" fill-opacity="1.0" id="xff2841_r255_g40_b65_a1.0_shape10"/>
  </g>
  <g id="x000000_r0_g0_b0_a1.0">
    <path d="M 13,29 19,29 19,30 18,30 18,31 17,31 17,32 15,32 15,31 14,31 14,30 13,30 z" fill="#000000" fill-opacity="1.0" id="x000000_r0_g0_b0_a1.0_shape1"/>
  </g>
</svg>
