<?xml version="1.0" encoding="utf-8" ?>
<svg xmlns="http://www.w3.org/2000/svg" xmlns:ev="http://www.w3.org/2001/xml-events" xmlns:xlink="http://www.w3.org/1999/xlink" baseProfile="full" height="32px" version="1.1" viewBox="0 0 32 32" width="32px">
  <defs/>
  <g id="x000000_r0_g0_b0_a1.0">
    <path d="M 16,9 17,9 17,8 18,8 18,3 20,3 20,8 19,8 19,9 18,9 18,10 17,10 17,11 16,11 16,12 15,12 15,13 14,13 14,14 13,14 13,15 12,15 12,16 11,16 11,17 10,17 10,18 9,18 9,19 7,19 5,19 4,19 4,17 5,17 9,17 9,16 10,16 10,15 11,15 11,14 12,14 12,13 13,13 13,12 14,12 14,11 15,11 15,10 16,10 z" fill="#000000" fill-opacity="1.0" id="x000000_r0_g0_b0_a1.0_shape1"/>
    <path d="M 13,26 11,26 11,21 12,21 12,20 13,20 13,19 14,19 14,18 15,18 15,17 16,17 16,16 17,16 17,15 18,15 18,14 19,14 19,13 20,13 20,12 21,12 21,11 22,11 22,10 27,10 27,11 27,12 22,12 22,13 21,13 21,14 20,14 20,15 19,15 19,16 18,16 18,17 17,17 17,18 16,18 16,19 15,19 15,20 14,20 14,21 13,21 z" fill="#000000" fill-opacity="1.0" id="x000000_r0_g0_b0_a1.0_shape2"/>
    <path d="M 13,29 19,29 19,30 18,30 18,31 17,31 17,32 15,32 15,31 14,31 14,30 13,30 z" fill="#000000" fill-opacity="1.0" id="x000000_r0_g0_b0_a1.0_shape3"/>
  </g>
</svg>
