<?xml version="1.0" encoding="utf-8" ?>
<svg xmlns="http://www.w3.org/2000/svg" xmlns:ev="http://www.w3.org/2001/xml-events" xmlns:xlink="http://www.w3.org/1999/xlink" baseProfile="full" height="32px" version="1.1" viewBox="0 0 32 32" width="32px">
  <defs/>
  <g id="x000000_r0_g0_b0_a1.0">
    <path d="M 12,21 12,20 28,20 28,21 z" fill="#000000" fill-opacity="1.0" id="x000000_r0_g0_b0_a1.0_shape1"/>
    <path d="M 13,29 19,29 19,30 18,30 18,31 17,31 17,32 15,32 15,31 14,31 14,30 13,30 z" fill="#000000" fill-opacity="1.0" id="x000000_r0_g0_b0_a1.0_shape2"/>
    <path d="M 13,19 12,19 12,16 12,13 13,13 13,14 z" fill="#000000" fill-opacity="1.0" id="x000000_r0_g0_b0_a1.0_shape3"/>
    <path d="M 17,19 17,13 18,13 18,19 z" fill="#000000" fill-opacity="1.0" id="x000000_r0_g0_b0_a1.0_shape4"/>
    <path d="M 23,19 22,19 22,13 23,13 z" fill="#000000" fill-opacity="1.0" id="x000000_r0_g0_b0_a1.0_shape5"/>
    <path d="M 28,19 27,19 27,13 28,13 z" fill="#000000" fill-opacity="1.0" id="x000000_r0_g0_b0_a1.0_shape6"/>
    <path d="M 3,25 3,24 6,24 6,25 z" fill="#000000" fill-opacity="1.0" id="x000000_r0_g0_b0_a1.0_shape7"/>
    <path d="M 8,22 10,22 10,23 8,23 z" fill="#000000" fill-opacity="1.0" id="x000000_r0_g0_b0_a1.0_shape8"/>
    <path d="M 14,22 16,22 16,23 14,23 z" fill="#000000" fill-opacity="1.0" id="x000000_r0_g0_b0_a1.0_shape9"/>
    <path d="M 25,23 25,22 26,22 27,22 27,23 26,23 z" fill="#000000" fill-opacity="1.0" id="x000000_r0_g0_b0_a1.0_shape10"/>
    <path d="M 7,23 8,23 8,24 8,25 7,25 7,24 z" fill="#000000" fill-opacity="1.0" id="x000000_r0_g0_b0_a1.0_shape11"/>
    <path d="M 10,24 10,23 11,23 11,24 11,25 10,25 z" fill="#000000" fill-opacity="1.0" id="x000000_r0_g0_b0_a1.0_shape12"/>
    <path d="M 13,25 13,23 14,23 14,25 z" fill="#000000" fill-opacity="1.0" id="x000000_r0_g0_b0_a1.0_shape13"/>
    <path d="M 16,25 16,23 17,23 17,25 z" fill="#000000" fill-opacity="1.0" id="x000000_r0_g0_b0_a1.0_shape14"/>
    <path d="M 24,23 25,23 25,24 25,25 24,25 24,24 z" fill="#000000" fill-opacity="1.0" id="x000000_r0_g0_b0_a1.0_shape15"/>
    <path d="M 28,23 28,25 27,25 27,23 z" fill="#000000" fill-opacity="1.0" id="x000000_r0_g0_b0_a1.0_shape16"/>
    <path d="M 8,25 10,25 10,26 8,26 z" fill="#000000" fill-opacity="1.0" id="x000000_r0_g0_b0_a1.0_shape17"/>
    <path d="M 16,25 16,26 15,26 14,26 14,25 15,25 z" fill="#000000" fill-opacity="1.0" id="x000000_r0_g0_b0_a1.0_shape18"/>
    <path d="M 27,26 25,26 25,25 27,25 z" fill="#000000" fill-opacity="1.0" id="x000000_r0_g0_b0_a1.0_shape19"/>
  </g>
  <g id="xd81e00_r216_g30_b0_a1.0">
    <path d="M 4,12 11,12 11,21 11,22 7,22 7,23 6,23 6,24 4,24 4,22 3,22 3,18 4,18 z M 8,13 5,13 5,17 8,17 z" fill="#d81e00" fill-opacity="1.0" id="xd81e00_r216_g30_b0_a1.0_shape1"/>
  </g>
  <g id="x424242_r66_g66_b66_a1.0">
    <path d="M 12,22 12,21 28,21 28,22 z" fill="#424242" fill-opacity="1.0" id="x424242_r66_g66_b66_a1.0_shape1"/>
    <path d="M 9,24 8,24 8,23 9,23 z" fill="#424242" fill-opacity="1.0" id="x424242_r66_g66_b66_a1.0_shape2"/>
    <path d="M 15,24 14,24 14,23 15,23 z" fill="#424242" fill-opacity="1.0" id="x424242_r66_g66_b66_a1.0_shape3"/>
    <path d="M 26,23 26,24 25,24 25,23 z" fill="#424242" fill-opacity="1.0" id="x424242_r66_g66_b66_a1.0_shape4"/>
    <path d="M 9,25 9,24 10,24 10,25 z" fill="#424242" fill-opacity="1.0" id="x424242_r66_g66_b66_a1.0_shape5"/>
    <path d="M 16,25 15,25 15,24 16,24 z" fill="#424242" fill-opacity="1.0" id="x424242_r66_g66_b66_a1.0_shape6"/>
    <path d="M 26,25 26,24 27,24 27,25 z" fill="#424242" fill-opacity="1.0" id="x424242_r66_g66_b66_a1.0_shape7"/>
  </g>
  <g id="x797979_r121_g121_b121_a1.0">
    <path d="M 9,24 9,23 10,23 10,24 z" fill="#797979" fill-opacity="1.0" id="x797979_r121_g121_b121_a1.0_shape1"/>
    <path d="M 16,24 15,24 15,23 16,23 z" fill="#797979" fill-opacity="1.0" id="x797979_r121_g121_b121_a1.0_shape2"/>
    <path d="M 27,24 26,24 26,23 27,23 z" fill="#797979" fill-opacity="1.0" id="x797979_r121_g121_b121_a1.0_shape3"/>
    <path d="M 8,25 8,24 9,24 9,25 z" fill="#797979" fill-opacity="1.0" id="x797979_r121_g121_b121_a1.0_shape4"/>
    <path d="M 14,24 15,24 15,25 14,25 z" fill="#797979" fill-opacity="1.0" id="x797979_r121_g121_b121_a1.0_shape5"/>
    <path d="M 25,24 26,24 26,25 25,25 z" fill="#797979" fill-opacity="1.0" id="x797979_r121_g121_b121_a1.0_shape6"/>
  </g>
  <g id="xff2600_r255_g38_b0_a1.0">
    <path d="M 29,20 29,22 28,22 28,20 z" fill="#ff2600" fill-opacity="1.0" id="xff2600_r255_g38_b0_a1.0_shape1"/>
  </g>
  <g id="xfffb00_r255_g251_b0_a1.0">
    <path d="M 3,23 3,22 4,22 4,23 4,24 3,24 z" fill="#fffb00" fill-opacity="1.0" id="xfffb00_r255_g251_b0_a1.0_shape1"/>
  </g>
</svg>
