<?xml version="1.0" encoding="utf-8" ?>
<svg xmlns="http://www.w3.org/2000/svg" xmlns:ev="http://www.w3.org/2001/xml-events" xmlns:xlink="http://www.w3.org/1999/xlink" baseProfile="full" height="32px" version="1.1" viewBox="0 0 32 32" width="32px">
  <defs/>
  <g id="xffa941_r255_g169_b65_a1.0">
    <path d="M 14,10 11,10 11,6 21,6 21,10 18,10 18,22 21,22 21,26 11,26 11,22 14,22 z M 20,25 20,23 17,23 17,9 20,9 20,7 12,7 12,9 15,9 15,23 12,23 12,25 z" fill="#ffa941" fill-opacity="1.0" id="xffa941_r255_g169_b65_a1.0_shape1"/>
  </g>
  <g id="xff7c00_r255_g124_b0_a1.0">
    <path d="M 20,9 17,9 17,23 20,23 20,25 12,25 12,23 15,23 15,22 15,9 12,9 12,7 20,7 z" fill="#ff7c00" fill-opacity="1.0" id="xff7c00_r255_g124_b0_a1.0_shape1"/>
  </g>
</svg>
