<?xml version="1.0" encoding="utf-8" ?>
<svg xmlns="http://www.w3.org/2000/svg" xmlns:ev="http://www.w3.org/2001/xml-events" xmlns:xlink="http://www.w3.org/1999/xlink" baseProfile="full" height="32px" version="1.1" viewBox="0 0 32 32" width="32px">
  <defs/>
  <g id="xffa941_r255_g169_b65_a1.0">
    <path d="M 15,25 17,25 17,16 18,16 18,14 19,14 19,12 20,12 20,10 21,10 21,8 22,8 22,7 20,7 20,8 19,8 19,6 23,6 23,9 22,9 22,11 21,11 21,13 20,13 20,15 19,15 19,17 18,17 18,26 14,26 14,17 13,17 13,15 12,15 12,13 11,13 11,11 10,11 10,9 9,9 9,6 13,6 13,8 14,8 14,10 15,10 15,12 14,12 14,11 13,11 13,9 12,9 12,7 10,7 10,8 11,8 11,10 12,10 12,12 13,12 13,14 14,14 14,16 15,16 z" fill="#ffa941" fill-opacity="1.0" id="xffa941_r255_g169_b65_a1.0_shape1"/>
    <path d="M 18,8 19,8 19,9 19,10 18,10 18,9 z" fill="#ffa941" fill-opacity="1.0" id="xffa941_r255_g169_b65_a1.0_shape2"/>
    <path d="M 18,12 17,12 17,11 17,10 18,10 18,11 z" fill="#ffa941" fill-opacity="1.0" id="xffa941_r255_g169_b65_a1.0_shape3"/>
    <path d="M 15,13 15,12 16,12 17,12 17,13 16,13 z" fill="#ffa941" fill-opacity="1.0" id="xffa941_r255_g169_b65_a1.0_shape4"/>
  </g>
  <g id="xff7c00_r255_g124_b0_a1.0">
    <path d="M 17,25 15,25 15,16 14,16 14,14 13,14 13,12 12,12 12,10 11,10 11,8 10,8 10,7 12,7 12,8 12,9 13,9 13,10 13,11 14,11 14,12 15,12 15,13 16,13 17,13 17,12 18,12 18,10 19,10 19,8 20,8 20,7 22,7 22,8 21,8 21,9 21,10 20,10 20,11 20,12 19,12 19,13 19,14 18,14 18,15 18,16 17,16 17,17 z" fill="#ff7c00" fill-opacity="1.0" id="xff7c00_r255_g124_b0_a1.0_shape1"/>
  </g>
</svg>
