<?xml version="1.0" encoding="utf-8" ?>
<svg xmlns="http://www.w3.org/2000/svg" xmlns:ev="http://www.w3.org/2001/xml-events" xmlns:xlink="http://www.w3.org/1999/xlink" baseProfile="full" height="32px" version="1.1" viewBox="0 0 32 32" width="32px">
  <defs/>
  <g id="x7a4300_r122_g67_b0_a1.0">
    <path d="M 9,19 9,20 8,20 8,19 7,19 7,18 8,18 8,17 9,17 9,18 10,18 10,19 z" fill="#7a4300" fill-opacity="1.0" id="x7a4300_r122_g67_b0_a1.0_shape1"/>
    <path d="M 13,17 13,18 14,18 14,19 13,19 13,20 12,20 12,19 11,19 11,18 12,18 12,17 z" fill="#7a4300" fill-opacity="1.0" id="x7a4300_r122_g67_b0_a1.0_shape2"/>
    <path d="M 17,20 16,20 16,19 15,19 15,18 16,18 16,17 17,17 17,18 18,18 18,19 17,19 z" fill="#7a4300" fill-opacity="1.0" id="x7a4300_r122_g67_b0_a1.0_shape3"/>
    <path d="M 20,19 19,19 19,18 20,18 20,17 21,17 21,18 22,18 22,19 21,19 21,20 20,20 z" fill="#7a4300" fill-opacity="1.0" id="x7a4300_r122_g67_b0_a1.0_shape4"/>
    <path d="M 23,18 24,18 24,17 25,17 25,18 26,18 26,19 25,19 25,20 24,20 24,19 23,19 z" fill="#7a4300" fill-opacity="1.0" id="x7a4300_r122_g67_b0_a1.0_shape5"/>
    <path d="M 5,21 5,20 6,20 6,19 7,19 7,20 8,20 8,21 7,21 7,22 6,22 6,21 z" fill="#7a4300" fill-opacity="1.0" id="x7a4300_r122_g67_b0_a1.0_shape6"/>
    <path d="M 10,19 11,19 11,20 12,20 12,21 11,21 11,22 10,22 10,21 9,21 9,20 10,20 z" fill="#7a4300" fill-opacity="1.0" id="x7a4300_r122_g67_b0_a1.0_shape7"/>
    <path d="M 15,20 16,20 16,21 15,21 15,22 14,22 14,21 13,21 13,20 14,20 14,19 15,19 z" fill="#7a4300" fill-opacity="1.0" id="x7a4300_r122_g67_b0_a1.0_shape8"/>
    <path d="M 19,20 20,20 20,21 19,21 19,22 18,22 18,21 17,21 17,20 18,20 18,19 19,19 z" fill="#7a4300" fill-opacity="1.0" id="x7a4300_r122_g67_b0_a1.0_shape9"/>
    <path d="M 21,20 22,20 22,19 23,19 23,20 24,20 24,21 23,21 23,22 22,22 22,21 21,21 z" fill="#7a4300" fill-opacity="1.0" id="x7a4300_r122_g67_b0_a1.0_shape10"/>
    <path d="M 28,21 27,21 27,22 26,22 26,21 25,21 25,20 26,20 26,19 27,19 27,20 28,20 z" fill="#7a4300" fill-opacity="1.0" id="x7a4300_r122_g67_b0_a1.0_shape11"/>
    <path d="M 4,22 4,21 5,21 5,22 6,22 6,23 5,23 5,24 4,24 4,23 3,23 3,22 z" fill="#7a4300" fill-opacity="1.0" id="x7a4300_r122_g67_b0_a1.0_shape12"/>
    <path d="M 9,23 9,24 8,24 8,23 7,23 7,22 8,22 8,21 9,21 9,22 10,22 10,23 z" fill="#7a4300" fill-opacity="1.0" id="x7a4300_r122_g67_b0_a1.0_shape13"/>
    <path d="M 14,23 13,23 13,24 12,24 12,23 11,23 11,22 12,22 12,21 13,21 13,22 14,22 z" fill="#7a4300" fill-opacity="1.0" id="x7a4300_r122_g67_b0_a1.0_shape14"/>
    <path d="M 16,24 16,23 15,23 15,22 16,22 16,21 17,21 17,22 18,22 18,23 17,23 17,24 z" fill="#7a4300" fill-opacity="1.0" id="x7a4300_r122_g67_b0_a1.0_shape15"/>
    <path d="M 19,23 19,22 20,22 20,21 21,21 21,22 22,22 22,23 21,23 21,24 20,24 20,23 z" fill="#7a4300" fill-opacity="1.0" id="x7a4300_r122_g67_b0_a1.0_shape16"/>
    <path d="M 25,22 26,22 26,23 25,23 25,24 24,24 24,23 23,23 23,22 24,22 24,21 25,21 z" fill="#7a4300" fill-opacity="1.0" id="x7a4300_r122_g67_b0_a1.0_shape17"/>
    <path d="M 28,23 27,23 27,22 28,22 28,21 29,21 29,22 30,22 30,23 29,23 29,24 28,24 z" fill="#7a4300" fill-opacity="1.0" id="x7a4300_r122_g67_b0_a1.0_shape18"/>
    <path d="M 2,24 2,23 3,23 3,24 4,24 4,25 3,25 3,26 2,26 2,25 1,25 1,24 z" fill="#7a4300" fill-opacity="1.0" id="x7a4300_r122_g67_b0_a1.0_shape19"/>
    <path d="M 5,25 5,24 6,24 6,23 7,23 7,24 8,24 8,25 7,25 7,26 6,26 6,25 z" fill="#7a4300" fill-opacity="1.0" id="x7a4300_r122_g67_b0_a1.0_shape20"/>
    <path d="M 10,24 10,23 11,23 11,24 12,24 12,25 11,25 11,26 10,26 10,25 9,25 9,24 z" fill="#7a4300" fill-opacity="1.0" id="x7a4300_r122_g67_b0_a1.0_shape21"/>
    <path d="M 13,25 13,24 14,24 14,23 15,23 15,24 16,24 16,25 15,25 15,26 14,26 14,25 z" fill="#7a4300" fill-opacity="1.0" id="x7a4300_r122_g67_b0_a1.0_shape22"/>
    <path d="M 18,23 19,23 19,24 20,24 20,25 19,25 19,26 18,26 18,25 17,25 17,24 18,24 z" fill="#7a4300" fill-opacity="1.0" id="x7a4300_r122_g67_b0_a1.0_shape23"/>
    <path d="M 24,25 23,25 23,26 22,26 22,25 21,25 21,24 22,24 22,23 23,23 23,24 24,24 z" fill="#7a4300" fill-opacity="1.0" id="x7a4300_r122_g67_b0_a1.0_shape24"/>
    <path d="M 27,26 26,26 26,25 25,25 25,24 26,24 26,23 27,23 27,24 28,24 28,25 27,25 z" fill="#7a4300" fill-opacity="1.0" id="x7a4300_r122_g67_b0_a1.0_shape25"/>
    <path d="M 30,23 31,23 31,24 32,24 32,25 31,25 31,26 30,26 30,25 29,25 29,24 30,24 z" fill="#7a4300" fill-opacity="1.0" id="x7a4300_r122_g67_b0_a1.0_shape26"/>
  </g>
  <g id="x000000_r0_g0_b0_a1.0">
    <path d="M 13,29 19,29 19,30 18,30 18,31 17,31 17,32 15,32 15,31 14,31 14,30 13,30 z" fill="#000000" fill-opacity="1.0" id="x000000_r0_g0_b0_a1.0_shape1"/>
  </g>
</svg>
