<?xml version="1.0" encoding="utf-8" ?>
<svg xmlns="http://www.w3.org/2000/svg" xmlns:ev="http://www.w3.org/2001/xml-events" xmlns:xlink="http://www.w3.org/1999/xlink" baseProfile="full" height="32px" version="1.1" viewBox="0 0 32 32" width="32px">
  <defs/>
  <g id="x926d00_r146_g109_b0_a1.0">
    <path d="M 17,18 17,19 16,19 16,20 14,20 14,21 13,21 13,22 12,22 12,20 10,20 10,19 12,19 12,18 14,18 14,17 16,17 16,16 17,16 17,15 18,15 19,15 19,14 20,14 20,13 22,13 22,12 24,12 24,13 23,13 23,14 22,14 22,15 20,15 20,16 19,16 19,17 18,17 18,18 z" fill="#926d00" fill-opacity="1.0" id="x926d00_r146_g109_b0_a1.0_shape1"/>
    <path d="M 10,25 8,25 8,23 10,23 z" fill="#926d00" fill-opacity="1.0" id="x926d00_r146_g109_b0_a1.0_shape2"/>
    <path d="M 12,25 12,23 14,23 14,25 z" fill="#926d00" fill-opacity="1.0" id="x926d00_r146_g109_b0_a1.0_shape3"/>
    <path d="M 10,22 9,22 9,21 9,20 10,20 10,21 z" fill="#926d00" fill-opacity="1.0" id="x926d00_r146_g109_b0_a1.0_shape4"/>
    <path d="M 10,22 12,22 12,23 10,23 z" fill="#926d00" fill-opacity="1.0" id="x926d00_r146_g109_b0_a1.0_shape5"/>
    <path d="M 24,12 24,11 25,11 25,12 z" fill="#926d00" fill-opacity="1.0" id="x926d00_r146_g109_b0_a1.0_shape6"/>
  </g>
  <g id="x926d55_r146_g109_b85_a1.0">
    <path d="M 23,17 22,17 22,18 21,18 21,19 20,19 20,20 19,20 19,21 18,21 18,22 17,22 17,23 16,23 16,24 15,24 15,25 14,25 14,24 14,23 13,23 12,23 12,22 13,22 13,21 15,21 15,20 16,20 16,19 17,19 17,18 19,18 19,17 20,17 20,16 22,16 22,15 23,15 23,14 24,14 24,13 25,13 25,12 27,12 27,13 26,13 26,14 25,14 25,15 24,15 24,16 23,16 z" fill="#926d55" fill-opacity="1.0" id="x926d55_r146_g109_b85_a1.0_shape1"/>
    <path d="M 11,25 11,23 12,23 12,25 z" fill="#926d55" fill-opacity="1.0" id="x926d55_r146_g109_b85_a1.0_shape2"/>
    <path d="M 14,26 12,26 12,25 14,25 z" fill="#926d55" fill-opacity="1.0" id="x926d55_r146_g109_b85_a1.0_shape3"/>
  </g>
  <g id="xb69255_r182_g146_b85_a1.0">
    <path d="M 10,22 10,20 12,20 12,22 z" fill="#b69255" fill-opacity="1.0" id="xb69255_r182_g146_b85_a1.0_shape1"/>
    <path d="M 8,22 10,22 10,23 8,23 z" fill="#b69255" fill-opacity="1.0" id="xb69255_r182_g146_b85_a1.0_shape2"/>
    <path d="M 7,23 8,23 8,24 8,25 7,25 7,24 z" fill="#b69255" fill-opacity="1.0" id="xb69255_r182_g146_b85_a1.0_shape3"/>
    <path d="M 10,24 10,23 11,23 11,24 11,25 10,25 z" fill="#b69255" fill-opacity="1.0" id="xb69255_r182_g146_b85_a1.0_shape4"/>
    <path d="M 8,25 10,25 10,26 8,26 z" fill="#b69255" fill-opacity="1.0" id="xb69255_r182_g146_b85_a1.0_shape5"/>
    <path d="M 14,21 14,20 15,20 15,21 z" fill="#b69255" fill-opacity="1.0" id="xb69255_r182_g146_b85_a1.0_shape6"/>
  </g>
  <g id="x000000_r0_g0_b0_a1.0">
    <path d="M 13,29 19,29 19,30 18,30 18,31 17,31 17,32 15,32 15,31 14,31 14,30 13,30 z" fill="#000000" fill-opacity="1.0" id="x000000_r0_g0_b0_a1.0_shape1"/>
  </g>
</svg>
