<?xml version="1.0" encoding="utf-8" ?>
<svg xmlns="http://www.w3.org/2000/svg" xmlns:ev="http://www.w3.org/2001/xml-events" xmlns:xlink="http://www.w3.org/1999/xlink" baseProfile="full" height="32px" version="1.1" viewBox="0 0 32 32" width="32px">
  <defs/>
  <g id="x000000_r0_g0_b0_a1.0">
    <path d="M 3,19 3,18 16,18 16,19 z" fill="#000000" fill-opacity="1.0" id="x000000_r0_g0_b0_a1.0_shape1"/>
    <path d="M 16,22 16,23 4,23 3,23 3,22 4,22 z" fill="#000000" fill-opacity="1.0" id="x000000_r0_g0_b0_a1.0_shape2"/>
    <path d="M 13,29 19,29 19,30 18,30 18,31 17,31 17,32 15,32 15,31 14,31 14,30 13,30 z" fill="#000000" fill-opacity="1.0" id="x000000_r0_g0_b0_a1.0_shape3"/>
    <path d="M 18,16 18,24 17,24 17,18 16,18 16,17 17,17 17,14 18,14 z" fill="#000000" fill-opacity="1.0" id="x000000_r0_g0_b0_a1.0_shape4"/>
    <path d="M 16,16 16,17 15,17 15,16 15,12 16,12 z" fill="#000000" fill-opacity="1.0" id="x000000_r0_g0_b0_a1.0_shape5"/>
    <path d="M 24,18 24,19 22,19 21,19 21,18 22,18 z" fill="#000000" fill-opacity="1.0" id="x000000_r0_g0_b0_a1.0_shape6"/>
    <path d="M 2,19 3,19 3,21 3,22 2,22 2,21 z" fill="#000000" fill-opacity="1.0" id="x000000_r0_g0_b0_a1.0_shape7"/>
    <path d="M 30,20 28,20 28,19 30,19 z" fill="#000000" fill-opacity="1.0" id="x000000_r0_g0_b0_a1.0_shape8"/>
    <path d="M 25,21 27,21 27,22 25,22 z" fill="#000000" fill-opacity="1.0" id="x000000_r0_g0_b0_a1.0_shape9"/>
  </g>
  <g id="xff6d00_r255_g109_b0_a1.0">
    <path d="M 22,22 23,22 23,20 18,20 18,17 20,17 20,16 23,16 23,17 24,17 24,18 26,18 26,19 28,19 28,20 30,20 30,21 31,21 31,23 31,24 26,24 22,24 z M 24,19 24,18 22,18 21,18 21,19 22,19 z M 28,23 30,23 30,22 29,22 29,21 28,21 25,21 25,23 26,23 z" fill="#ff6d00" fill-opacity="1.0" id="xff6d00_r255_g109_b0_a1.0_shape1"/>
    <path d="M 17,24 16,24 16,18 17,18 z" fill="#ff6d00" fill-opacity="1.0" id="xff6d00_r255_g109_b0_a1.0_shape2"/>
  </g>
  <g id="xababab_r171_g171_b171_a1.0">
    <path d="M 16,19 16,22 3,22 3,19 z" fill="#ababab" fill-opacity="1.0" id="xababab_r171_g171_b171_a1.0_shape1"/>
  </g>
  <g id="xdb4900_r219_g73_b0_a1.0">
    <path d="M 23,20 23,22 22,22 22,24 18,24 18,21 18,20 z" fill="#db4900" fill-opacity="1.0" id="xdb4900_r219_g73_b0_a1.0_shape1"/>
  </g>
</svg>
