<?xml version="1.0" encoding="utf-8" ?>
<svg xmlns="http://www.w3.org/2000/svg" xmlns:ev="http://www.w3.org/2001/xml-events" xmlns:xlink="http://www.w3.org/1999/xlink" baseProfile="full" height="32px" version="1.1" viewBox="0 0 32 32" width="32px">
  <defs/>
  <g id="x38d5ff_r56_g213_b255_a1.0">
    <path d="M 11,22 11,21 9,21 9,20 5,20 5,19 4,19 4,17 6,17 6,16 10,16 10,17 16,17 16,16 21,16 28,16 28,19 27,19 27,21 26,21 26,22 19,22 19,23 18,23 18,22 z M 24,19 24,18 23,18 23,19 z M 20,20 20,19 19,19 19,18 18,18 18,19 19,19 19,20 z M 13,21 13,20 12,20 12,21 z M 13,19 13,20 14,20 14,19 z M 25,19 26,19 26,18 25,18 25,17 24,17 24,18 25,18 z M 17,19 17,20 18,20 18,19 z M 14,21 15,21 15,20 14,20 z" fill="#38d5ff" fill-opacity="1.0" id="x38d5ff_r56_g213_b255_a1.0_shape1"/>
  </g>
  <g id="x007aaa_r0_g122_b170_a1.0">
    <path d="M 2,16 3,16 3,15 5,15 5,14 9,14 11,14 11,15 13,15 15,15 15,14 18,14 22,14 29,14 29,15 30,15 30,20 29,20 29,23 27,23 27,24 21,24 20,24 20,25 19,25 17,25 17,24 15,24 10,24 10,23 8,23 8,22 4,22 4,21 3,21 3,20 2,20 z M 16,16 10,16 10,15 6,15 6,16 4,16 4,17 3,17 3,19 4,19 4,21 6,21 9,21 9,22 11,22 11,23 18,23 18,24 19,24 19,23 21,23 26,23 26,22 28,22 28,19 29,19 29,16 28,16 28,15 21,15 19,15 16,15 z" fill="#007aaa" fill-opacity="1.0" id="x007aaa_r0_g122_b170_a1.0_shape1"/>
  </g>
  <g id="x00aad6_r0_g170_b214_a1.0">
    <path d="M 28,15 28,16 23,16 16,16 16,15 20,15 z" fill="#00aad6" fill-opacity="1.0" id="x00aad6_r0_g170_b214_a1.0_shape1"/>
    <path d="M 18,22 18,23 12,23 11,23 11,22 12,22 z" fill="#00aad6" fill-opacity="1.0" id="x00aad6_r0_g170_b214_a1.0_shape2"/>
    <path d="M 26,22 26,23 21,23 19,23 19,22 21,22 z" fill="#00aad6" fill-opacity="1.0" id="x00aad6_r0_g170_b214_a1.0_shape3"/>
    <path d="M 16,17 10,17 10,16 16,16 z" fill="#00aad6" fill-opacity="1.0" id="x00aad6_r0_g170_b214_a1.0_shape4"/>
    <path d="M 9,21 4,21 4,19 5,19 5,20 8,20 9,20 z" fill="#00aad6" fill-opacity="1.0" id="x00aad6_r0_g170_b214_a1.0_shape5"/>
    <path d="M 6,16 6,15 8,15 10,15 10,16 9,16 z" fill="#00aad6" fill-opacity="1.0" id="x00aad6_r0_g170_b214_a1.0_shape6"/>
    <path d="M 27,19 28,19 28,22 26,22 26,21 27,21 z" fill="#00aad6" fill-opacity="1.0" id="x00aad6_r0_g170_b214_a1.0_shape7"/>
    <path d="M 28,16 29,16 29,19 28,19 z" fill="#00aad6" fill-opacity="1.0" id="x00aad6_r0_g170_b214_a1.0_shape8"/>
    <path d="M 4,17 4,16 5,16 6,16 6,17 5,17 z" fill="#00aad6" fill-opacity="1.0" id="x00aad6_r0_g170_b214_a1.0_shape9"/>
    <path d="M 3,17 4,17 4,18 4,19 3,19 3,18 z" fill="#00aad6" fill-opacity="1.0" id="x00aad6_r0_g170_b214_a1.0_shape10"/>
    <path d="M 11,21 11,22 10,22 9,22 9,21 10,21 z" fill="#00aad6" fill-opacity="1.0" id="x00aad6_r0_g170_b214_a1.0_shape11"/>
    <path d="M 24,18 24,17 25,17 25,18 z" fill="#00aad6" fill-opacity="1.0" id="x00aad6_r0_g170_b214_a1.0_shape12"/>
    <path d="M 18,19 18,18 19,18 19,19 z" fill="#00aad6" fill-opacity="1.0" id="x00aad6_r0_g170_b214_a1.0_shape13"/>
    <path d="M 23,19 23,18 24,18 24,19 z" fill="#00aad6" fill-opacity="1.0" id="x00aad6_r0_g170_b214_a1.0_shape14"/>
    <path d="M 26,18 26,19 25,19 25,18 z" fill="#00aad6" fill-opacity="1.0" id="x00aad6_r0_g170_b214_a1.0_shape15"/>
    <path d="M 13,20 13,19 14,19 14,20 z" fill="#00aad6" fill-opacity="1.0" id="x00aad6_r0_g170_b214_a1.0_shape16"/>
    <path d="M 18,20 17,20 17,19 18,19 z" fill="#00aad6" fill-opacity="1.0" id="x00aad6_r0_g170_b214_a1.0_shape17"/>
    <path d="M 19,19 20,19 20,20 19,20 z" fill="#00aad6" fill-opacity="1.0" id="x00aad6_r0_g170_b214_a1.0_shape18"/>
    <path d="M 13,21 12,21 12,20 13,20 z" fill="#00aad6" fill-opacity="1.0" id="x00aad6_r0_g170_b214_a1.0_shape19"/>
    <path d="M 14,21 14,20 15,20 15,21 z" fill="#00aad6" fill-opacity="1.0" id="x00aad6_r0_g170_b214_a1.0_shape20"/>
    <path d="M 19,23 19,24 18,24 18,23 z" fill="#00aad6" fill-opacity="1.0" id="x00aad6_r0_g170_b214_a1.0_shape21"/>
  </g>
  <g id="x000000_r0_g0_b0_a1.0">
    <path d="M 13,29 19,29 19,30 18,30 18,31 17,31 17,32 15,32 15,31 14,31 14,30 13,30 z" fill="#000000" fill-opacity="1.0" id="x000000_r0_g0_b0_a1.0_shape1"/>
  </g>
</svg>
