<?xml version="1.0" encoding="utf-8" ?>
<svg xmlns="http://www.w3.org/2000/svg" xmlns:ev="http://www.w3.org/2001/xml-events" xmlns:xlink="http://www.w3.org/1999/xlink" baseProfile="full" height="32px" version="1.1" viewBox="0 0 32 32" width="32px">
  <defs/>
  <g id="x499255_r73_g146_b85_a1.0">
    <path d="M 12,22 7,22 7,21 4,21 4,20 8,20 8,17 7,17 7,14 6,14 6,11 7,11 7,12 8,12 8,14 9,14 9,17 10,17 10,19 11,19 11,20 12,20 12,19 13,19 13,14 14,14 14,12 15,12 15,10 16,10 16,16 15,16 15,19 16,19 16,18 17,18 17,16 18,16 18,15 19,15 19,13 20,13 20,12 21,12 21,15 20,15 20,16 19,16 19,19 18,19 18,20 19,20 19,19 20,19 20,20 29,20 29,21 26,21 26,22 z" fill="#499255" fill-opacity="1.0" id="x499255_r73_g146_b85_a1.0_shape1"/>
  </g>
  <g id="x006d55_r0_g109_b85_a1.0">
    <path d="M 14,12 13,12 13,16 12,16 12,20 11,20 11,19 10,19 10,18 10,16 11,16 11,14 12,14 12,11 13,11 13,9 13,8 14,8 14,9 z" fill="#006d55" fill-opacity="1.0" id="x006d55_r0_g109_b85_a1.0_shape1"/>
    <path d="M 24,16 24,13 25,13 25,14 26,14 26,16 27,16 27,19 28,19 28,20 23,20 23,19 24,19 24,17 25,17 25,16 z" fill="#006d55" fill-opacity="1.0" id="x006d55_r0_g109_b85_a1.0_shape2"/>
    <path d="M 17,13 18,13 18,14 19,14 19,15 18,15 18,16 17,16 17,15 17,14 16,14 16,13 16,12 16,11 17,11 17,12 z" fill="#006d55" fill-opacity="1.0" id="x006d55_r0_g109_b85_a1.0_shape3"/>
    <path d="M 23,10 23,11 24,11 24,12 23,12 23,13 22,13 22,9 23,9 z" fill="#006d55" fill-opacity="1.0" id="x006d55_r0_g109_b85_a1.0_shape4"/>
    <path d="M 19,19 19,18 20,18 20,19 z" fill="#006d55" fill-opacity="1.0" id="x006d55_r0_g109_b85_a1.0_shape5"/>
    <path d="M 18,20 18,19 19,19 19,20 z" fill="#006d55" fill-opacity="1.0" id="x006d55_r0_g109_b85_a1.0_shape6"/>
  </g>
  <g id="x92dbaa_r146_g219_b170_a1.0">
    <path d="M 23,17 23,20 21,20 20,20 20,18 21,18 21,16 22,16 22,14 23,14 23,12 24,12 24,15 24,16 23,16 z" fill="#92dbaa" fill-opacity="1.0" id="x92dbaa_r146_g219_b170_a1.0_shape1"/>
    <path d="M 10,12 9,12 9,9 10,9 10,11 11,11 11,13 12,13 12,14 11,14 11,16 10,16 z" fill="#92dbaa" fill-opacity="1.0" id="x92dbaa_r146_g219_b170_a1.0_shape2"/>
    <path d="M 7,19 8,19 8,20 5,20 5,19 6,19 6,17 5,17 5,15 6,15 6,16 7,16 7,18 z" fill="#92dbaa" fill-opacity="1.0" id="x92dbaa_r146_g219_b170_a1.0_shape3"/>
  </g>
  <g id="x000000_r0_g0_b0_a1.0">
    <path d="M 13,29 19,29 19,30 18,30 18,31 17,31 17,32 15,32 15,31 14,31 14,30 13,30 z" fill="#000000" fill-opacity="1.0" id="x000000_r0_g0_b0_a1.0_shape1"/>
  </g>
</svg>
