<?xml version="1.0" encoding="utf-8" ?>
<svg xmlns="http://www.w3.org/2000/svg" xmlns:ev="http://www.w3.org/2001/xml-events" xmlns:xlink="http://www.w3.org/1999/xlink" baseProfile="full" height="32px" version="1.1" viewBox="0 0 32 32" width="32px">
  <defs/>
  <g id="x007aaa_r0_g122_b170_a1.0">
    <path d="M 28,20 28,21 4,21 4,20 z" fill="#007aaa" fill-opacity="1.0" id="x007aaa_r0_g122_b170_a1.0_shape1"/>
    <path d="M 25,22 25,23 7,23 7,22 z" fill="#007aaa" fill-opacity="1.0" id="x007aaa_r0_g122_b170_a1.0_shape2"/>
    <path d="M 22,24 22,25 14,25 11,25 11,24 13,24 z" fill="#007aaa" fill-opacity="1.0" id="x007aaa_r0_g122_b170_a1.0_shape3"/>
  </g>
  <g id="x009200_r0_g146_b0_a1.0">
    <path d="M 13,17 13,18 14,18 14,19 15,19 15,18 15,15 15,14 14,14 14,13 14,12 15,12 15,13 16,13 16,12 17,12 17,14 16,14 16,17 16,19 17,19 17,18 18,18 18,17 19,17 19,16 20,16 20,18 19,18 19,19 18,19 18,20 14,20 13,20 13,19 12,19 12,18 11,18 11,17 11,16 12,16 12,17 z" fill="#009200" fill-opacity="1.0" id="x009200_r0_g146_b0_a1.0_shape1"/>
  </g>
  <g id="x000000_r0_g0_b0_a1.0">
    <path d="M 13,29 19,29 19,30 18,30 18,31 17,31 17,32 15,32 15,31 14,31 14,30 13,30 z" fill="#000000" fill-opacity="1.0" id="x000000_r0_g0_b0_a1.0_shape1"/>
  </g>
</svg>
