<?xml version="1.0" encoding="utf-8" ?>
<svg xmlns="http://www.w3.org/2000/svg" xmlns:ev="http://www.w3.org/2001/xml-events" xmlns:xlink="http://www.w3.org/1999/xlink" baseProfile="full" height="32px" version="1.1" viewBox="0 0 32 32" width="32px">
  <defs/>
  <g id="xffdbaa_r255_g219_b170_a1.0">
    <path d="M 19,10 20,10 20,11 21,11 21,12 22,12 22,13 23,13 23,17 23,20 23,23 22,23 17,23 14,23 14,22 14,16 11,16 11,22 11,23 9,23 9,18 9,13 10,13 10,12 11,12 11,11 12,11 12,10 13,10 13,9 14,9 14,8 15,8 15,7 17,7 17,8 18,8 18,9 19,9 z M 16,16 16,19 21,19 21,16 z" fill="#ffdbaa" fill-opacity="1.0" id="xffdbaa_r255_g219_b170_a1.0_shape1"/>
  </g>
  <g id="xff0000_r255_g0_b0_a1.0">
    <path d="M 15,5 17,5 17,6 18,6 18,7 19,7 19,8 20,8 20,9 21,9 21,10 22,10 22,11 23,11 23,12 24,12 24,13 25,13 25,14 23,14 23,13 22,13 22,12 21,12 21,11 20,11 20,10 19,10 19,9 18,9 18,8 17,8 17,7 15,7 15,8 14,8 14,9 13,9 13,10 12,10 12,11 11,11 11,12 10,12 10,13 9,13 9,14 7,14 7,13 8,13 8,12 9,12 9,11 10,11 10,10 11,10 11,9 12,9 12,8 13,8 13,7 14,7 14,6 15,6 z" fill="#ff0000" fill-opacity="1.0" id="xff0000_r255_g0_b0_a1.0_shape1"/>
  </g>
  <g id="x000000_r0_g0_b0_a1.0">
    <path d="M 13,29 19,29 19,30 18,30 18,31 17,31 17,32 15,32 15,31 14,31 14,30 13,30 z" fill="#000000" fill-opacity="1.0" id="x000000_r0_g0_b0_a1.0_shape1"/>
  </g>
</svg>
