<?xml version="1.0" encoding="utf-8" ?>
<svg xmlns="http://www.w3.org/2000/svg" xmlns:ev="http://www.w3.org/2001/xml-events" xmlns:xlink="http://www.w3.org/1999/xlink" baseProfile="full" height="32px" version="1.1" viewBox="0 0 32 32" width="32px">
  <defs/>
  <g id="x797979_r121_g121_b121_a1.0">
    <path d="M 14,11 15,11 15,20 17,20 17,11 18,11 18,20 21,20 21,23 17,23 11,23 11,20 14,20 z M 12,21 12,22 20,22 20,21 z" fill="#797979" fill-opacity="1.0" id="x797979_r121_g121_b121_a1.0_shape1"/>
    <path d="M 16,10 17,10 17,11 16,11 15,11 15,10 z" fill="#797979" fill-opacity="1.0" id="x797979_r121_g121_b121_a1.0_shape2"/>
  </g>
  <g id="x000000_r0_g0_b0_a1.0">
    <path d="M 26,23 26,24 6,24 6,23 z" fill="#000000" fill-opacity="1.0" id="x000000_r0_g0_b0_a1.0_shape1"/>
    <path d="M 13,29 19,29 19,30 18,30 18,31 17,31 17,32 15,32 15,31 14,31 14,30 13,30 z" fill="#000000" fill-opacity="1.0" id="x000000_r0_g0_b0_a1.0_shape2"/>
  </g>
  <g id="xa9a9a9_r169_g169_b169_a1.0">
    <path d="M 17,20 15,20 15,11 17,11 z" fill="#a9a9a9" fill-opacity="1.0" id="xa9a9a9_r169_g169_b169_a1.0_shape1"/>
    <path d="M 20,21 20,22 13,22 12,22 12,21 13,21 z" fill="#a9a9a9" fill-opacity="1.0" id="xa9a9a9_r169_g169_b169_a1.0_shape2"/>
  </g>
</svg>
