<?xml version="1.0" encoding="utf-8" ?>
<svg xmlns="http://www.w3.org/2000/svg" xmlns:ev="http://www.w3.org/2001/xml-events" xmlns:xlink="http://www.w3.org/1999/xlink" baseProfile="full" height="32px" version="1.1" viewBox="0 0 32 32" width="32px">
  <defs/>
  <g id="xb69255_r182_g146_b85_a1.0">
    <path d="M 13,25 12,25 12,15 12,7 20,7 20,9 20,25 19,25 19,17 19,14 13,14 13,22 z M 18,9 14,9 14,10 18,10 z" fill="#b69255" fill-opacity="1.0" id="xb69255_r182_g146_b85_a1.0_shape1"/>
    <path d="M 17,15 17,16 16,16 15,16 15,15 16,15 z" fill="#b69255" fill-opacity="1.0" id="xb69255_r182_g146_b85_a1.0_shape2"/>
    <path d="M 16,17 17,17 17,18 16,18 15,18 15,17 z" fill="#b69255" fill-opacity="1.0" id="xb69255_r182_g146_b85_a1.0_shape3"/>
    <path d="M 17,19 17,20 16,20 15,20 15,19 16,19 z" fill="#b69255" fill-opacity="1.0" id="xb69255_r182_g146_b85_a1.0_shape4"/>
    <path d="M 15,21 17,21 17,22 15,22 z" fill="#b69255" fill-opacity="1.0" id="xb69255_r182_g146_b85_a1.0_shape5"/>
    <path d="M 17,24 15,24 15,23 17,23 z" fill="#b69255" fill-opacity="1.0" id="xb69255_r182_g146_b85_a1.0_shape6"/>
  </g>
  <g id="x000000_r0_g0_b0_a1.0">
    <path d="M 26,25 26,26 15,26 6,26 6,25 9,25 z" fill="#000000" fill-opacity="1.0" id="x000000_r0_g0_b0_a1.0_shape1"/>
    <path d="M 13,29 19,29 19,30 18,30 18,31 17,31 17,32 15,32 15,31 14,31 14,30 13,30 z" fill="#000000" fill-opacity="1.0" id="x000000_r0_g0_b0_a1.0_shape2"/>
  </g>
</svg>
