<?xml version="1.0" encoding="utf-8" ?>
<svg xmlns="http://www.w3.org/2000/svg" xmlns:ev="http://www.w3.org/2001/xml-events" xmlns:xlink="http://www.w3.org/1999/xlink" baseProfile="full" height="32px" version="1.1" viewBox="0 0 32 32" width="32px">
  <defs/>
  <g id="xffdb00_r255_g219_b0_a1.0">
    <path d="M 3,9 2,9 2,5 3,5 3,4 4,4 4,5 5,5 5,6 8,6 17,6 17,7 18,7 18,9 19,9 19,11 17,11 17,12 16,12 16,10 15,10 15,9 11,9 11,8 5,8 5,14 6,14 6,20 6,21 4,21 4,20 4,17 3,17 3,15 z" fill="#ffdb00" fill-opacity="1.0" id="xffdb00_r255_g219_b0_a1.0_shape1"/>
    <path d="M 22,20 22,16 30,16 30,18 27,18 27,19 26,19 26,20 30,20 30,21 16,21 16,20 z" fill="#ffdb00" fill-opacity="1.0" id="xffdb00_r255_g219_b0_a1.0_shape2"/>
  </g>
  <g id="x000000_r0_g0_b0_a1.0">
    <path d="M 22,20 16,20 16,15 17,15 17,11 22,11 z M 17,19 21,19 21,12 18,12 18,16 17,16 z" fill="#000000" fill-opacity="1.0" id="x000000_r0_g0_b0_a1.0_shape1"/>
    <path d="M 7,23 8,23 8,24 9,24 9,25 10,25 10,26 4,26 4,25 3,25 3,22 4,22 4,21 6,21 6,22 7,22 z" fill="#000000" fill-opacity="1.0" id="x000000_r0_g0_b0_a1.0_shape2"/>
    <path d="M 14,22 28,22 28,23 14,23 z" fill="#000000" fill-opacity="1.0" id="x000000_r0_g0_b0_a1.0_shape3"/>
    <path d="M 28,25 28,26 14,26 14,25 z" fill="#000000" fill-opacity="1.0" id="x000000_r0_g0_b0_a1.0_shape4"/>
    <path d="M 13,29 19,29 19,30 18,30 18,31 17,31 17,32 15,32 15,31 14,31 14,30 13,30 z" fill="#000000" fill-opacity="1.0" id="x000000_r0_g0_b0_a1.0_shape5"/>
    <path d="M 30,18 30,20 28,20 26,20 26,19 27,19 27,18 z" fill="#000000" fill-opacity="1.0" id="x000000_r0_g0_b0_a1.0_shape6"/>
    <path d="M 13,25 13,23 14,23 14,25 z" fill="#000000" fill-opacity="1.0" id="x000000_r0_g0_b0_a1.0_shape7"/>
    <path d="M 28,25 28,23 29,23 29,25 z" fill="#000000" fill-opacity="1.0" id="x000000_r0_g0_b0_a1.0_shape8"/>
  </g>
  <g id="x424242_r66_g66_b66_a1.0">
    <path d="M 28,23 28,25 18,25 14,25 14,23 16,23 z" fill="#424242" fill-opacity="1.0" id="x424242_r66_g66_b66_a1.0_shape1"/>
    <path d="M 21,12 21,19 17,19 17,16 18,16 18,13 18,12 z" fill="#424242" fill-opacity="1.0" id="x424242_r66_g66_b66_a1.0_shape2"/>
  </g>
</svg>
