<?xml version="1.0" encoding="utf-8" ?>
<svg xmlns="http://www.w3.org/2000/svg" xmlns:ev="http://www.w3.org/2001/xml-events" xmlns:xlink="http://www.w3.org/1999/xlink" baseProfile="full" height="32px" version="1.1" viewBox="0 0 32 32" width="32px">
  <defs/>
  <g id="x3b8fbe_r59_g143_b190_a1.0">
    <path d="M 15,4 16,4 16,3 18,3 18,4 19,4 19,6 18,6 18,9 19,9 19,11 20,11 20,12 22,12 22,14 23,14 23,15 21,15 21,14 20,14 20,13 19,13 19,12 18,12 18,13 17,13 17,16 18,16 18,17 19,17 19,18 20,18 20,19 21,19 21,24 22,24 22,25 21,25 21,26 20,26 20,25 19,25 19,20 18,20 18,19 17,19 17,18 16,18 16,17 15,17 15,21 14,21 14,22 13,22 13,24 12,24 12,26 10,26 10,23 11,23 11,22 12,22 12,20 13,20 13,15 14,15 14,11 13,11 13,12 12,12 12,10 14,10 14,9 15,9 15,8 16,8 16,6 15,6 z" fill="#3b8fbe" fill-opacity="1.0" id="x3b8fbe_r59_g143_b190_a1.0_shape1"/>
    <path d="M 11,13 11,12 12,12 12,13 12,16 11,16 z" fill="#3b8fbe" fill-opacity="1.0" id="x3b8fbe_r59_g143_b190_a1.0_shape2"/>
  </g>
  <g id="x7db5d4_r125_g181_b212_a1.0">
    <path d="M 12,12 13,12 13,13 14,13 14,15 12,15 z" fill="#7db5d4" fill-opacity="1.0" id="x7db5d4_r125_g181_b212_a1.0_shape1"/>
    <path d="M 11,16 10,16 10,13 11,13 z" fill="#7db5d4" fill-opacity="1.0" id="x7db5d4_r125_g181_b212_a1.0_shape2"/>
    <path d="M 17,13 18,13 18,15 18,16 17,16 17,15 z" fill="#7db5d4" fill-opacity="1.0" id="x7db5d4_r125_g181_b212_a1.0_shape3"/>
    <path d="M 12,17 13,17 13,19 13,20 12,20 12,19 z" fill="#7db5d4" fill-opacity="1.0" id="x7db5d4_r125_g181_b212_a1.0_shape4"/>
    <path d="M 17,18 17,19 15,19 15,17 16,17 16,18 z" fill="#7db5d4" fill-opacity="1.0" id="x7db5d4_r125_g181_b212_a1.0_shape5"/>
    <path d="M 18,20 19,20 19,23 18,23 z" fill="#7db5d4" fill-opacity="1.0" id="x7db5d4_r125_g181_b212_a1.0_shape6"/>
    <path d="M 21,24 21,21 22,21 22,24 z" fill="#7db5d4" fill-opacity="1.0" id="x7db5d4_r125_g181_b212_a1.0_shape7"/>
    <path d="M 10,26 9,26 9,23 10,23 z" fill="#7db5d4" fill-opacity="1.0" id="x7db5d4_r125_g181_b212_a1.0_shape8"/>
    <path d="M 18,8 18,7 19,7 19,8 19,9 18,9 z" fill="#7db5d4" fill-opacity="1.0" id="x7db5d4_r125_g181_b212_a1.0_shape9"/>
    <path d="M 12,10 12,12 11,12 11,10 z" fill="#7db5d4" fill-opacity="1.0" id="x7db5d4_r125_g181_b212_a1.0_shape10"/>
    <path d="M 11,22 11,20 12,20 12,22 z" fill="#7db5d4" fill-opacity="1.0" id="x7db5d4_r125_g181_b212_a1.0_shape11"/>
    <path d="M 15,3 16,3 16,4 15,4 z" fill="#7db5d4" fill-opacity="1.0" id="x7db5d4_r125_g181_b212_a1.0_shape12"/>
    <path d="M 18,3 19,3 19,4 18,4 z" fill="#7db5d4" fill-opacity="1.0" id="x7db5d4_r125_g181_b212_a1.0_shape13"/>
    <path d="M 15,8 15,7 16,7 16,8 z" fill="#7db5d4" fill-opacity="1.0" id="x7db5d4_r125_g181_b212_a1.0_shape14"/>
    <path d="M 14,9 14,8 15,8 15,9 z" fill="#7db5d4" fill-opacity="1.0" id="x7db5d4_r125_g181_b212_a1.0_shape15"/>
    <path d="M 13,9 14,9 14,10 13,10 z" fill="#7db5d4" fill-opacity="1.0" id="x7db5d4_r125_g181_b212_a1.0_shape16"/>
    <path d="M 19,11 19,10 20,10 20,11 z" fill="#7db5d4" fill-opacity="1.0" id="x7db5d4_r125_g181_b212_a1.0_shape17"/>
    <path d="M 23,13 23,14 22,14 22,13 z" fill="#7db5d4" fill-opacity="1.0" id="x7db5d4_r125_g181_b212_a1.0_shape18"/>
    <path d="M 19,17 18,17 18,16 19,16 z" fill="#7db5d4" fill-opacity="1.0" id="x7db5d4_r125_g181_b212_a1.0_shape19"/>
    <path d="M 20,17 20,18 19,18 19,17 z" fill="#7db5d4" fill-opacity="1.0" id="x7db5d4_r125_g181_b212_a1.0_shape20"/>
    <path d="M 20,19 20,18 21,18 21,19 z" fill="#7db5d4" fill-opacity="1.0" id="x7db5d4_r125_g181_b212_a1.0_shape21"/>
    <path d="M 18,20 17,20 17,19 18,19 z" fill="#7db5d4" fill-opacity="1.0" id="x7db5d4_r125_g181_b212_a1.0_shape22"/>
    <path d="M 14,22 14,21 15,21 15,22 z" fill="#7db5d4" fill-opacity="1.0" id="x7db5d4_r125_g181_b212_a1.0_shape23"/>
    <path d="M 11,22 11,23 10,23 10,22 z" fill="#7db5d4" fill-opacity="1.0" id="x7db5d4_r125_g181_b212_a1.0_shape24"/>
    <path d="M 13,22 14,22 14,23 13,23 z" fill="#7db5d4" fill-opacity="1.0" id="x7db5d4_r125_g181_b212_a1.0_shape25"/>
    <path d="M 13,24 13,25 12,25 12,24 z" fill="#7db5d4" fill-opacity="1.0" id="x7db5d4_r125_g181_b212_a1.0_shape26"/>
    <path d="M 20,25 20,26 19,26 19,25 z" fill="#7db5d4" fill-opacity="1.0" id="x7db5d4_r125_g181_b212_a1.0_shape27"/>
    <path d="M 21,25 22,25 22,26 21,26 z" fill="#7db5d4" fill-opacity="1.0" id="x7db5d4_r125_g181_b212_a1.0_shape28"/>
  </g>
  <g id="x000000_r0_g0_b0_a1.0">
    <path d="M 13,29 19,29 19,30 18,30 18,31 17,31 17,32 15,32 15,31 14,31 14,30 13,30 z" fill="#000000" fill-opacity="1.0" id="x000000_r0_g0_b0_a1.0_shape1"/>
  </g>
</svg>
