<?xml version="1.0" encoding="utf-8" ?>
<svg xmlns="http://www.w3.org/2000/svg" xmlns:ev="http://www.w3.org/2001/xml-events" xmlns:xlink="http://www.w3.org/1999/xlink" baseProfile="full" height="32px" version="1.1" viewBox="0 0 32 32" width="32px">
  <defs/>
  <g id="x006daa_r0_g109_b170_a1.0">
    <path d="M 12,3 12,2 15,2 15,3 16,3 16,6 15,6 15,7 14,7 14,10 20,10 20,12 16,12 14,12 14,14 15,14 22,14 22,16 23,16 23,18 24,18 24,20 25,20 25,21 28,21 28,22 27,22 27,23 25,23 25,24 24,24 24,23 23,23 23,21 22,21 22,19 21,19 21,16 12,16 12,14 12,6 11,6 11,3 z" fill="#006daa" fill-opacity="1.0" id="x006daa_r0_g109_b170_a1.0_shape1"/>
    <path d="M 11,25 9,25 9,24 8,24 8,22 7,22 7,20 6,20 6,17 7,17 7,14 8,14 8,13 9,13 9,12 10,12 10,11 11,11 11,14 10,14 10,15 9,15 9,17 8,17 8,20 9,20 9,22 10,22 10,23 11,23 11,24 18,24 18,23 19,23 19,22 20,22 20,21 22,21 22,23 21,23 21,24 20,24 20,25 18,25 18,26 11,26 z" fill="#006daa" fill-opacity="1.0" id="x006daa_r0_g109_b170_a1.0_shape2"/>
  </g>
  <g id="x000000_r0_g0_b0_a1.0">
    <path d="M 13,29 19,29 19,30 18,30 18,31 17,31 17,32 15,32 15,31 14,31 14,30 13,30 z" fill="#000000" fill-opacity="1.0" id="x000000_r0_g0_b0_a1.0_shape1"/>
  </g>
</svg>
