<?xml version="1.0" encoding="utf-8" ?>
<svg xmlns="http://www.w3.org/2000/svg" xmlns:ev="http://www.w3.org/2001/xml-events" xmlns:xlink="http://www.w3.org/1999/xlink" baseProfile="full" height="32px" version="1.1" viewBox="0 0 32 32" width="32px">
  <defs/>
  <g id="x926d55_r146_g109_b85_a1.0">
    <path d="M 24,19 24,18 23,18 21,18 21,17 19,17 19,16 18,16 18,13 18,12 21,12 21,11 24,11 26,11 26,12 27,12 27,13 28,13 28,16 27,16 27,19 25,19 z M 24,15 23,15 23,14 22,14 22,15 23,15 23,17 24,17 z M 24,18 25,18 25,17 24,17 z" fill="#926d55" fill-opacity="1.0" id="x926d55_r146_g109_b85_a1.0_shape1"/>
    <path d="M 12,10 12,12 11,12 11,15 7,15 7,14 7,13 6,13 6,12 6,11 7,11 7,10 z" fill="#926d55" fill-opacity="1.0" id="x926d55_r146_g109_b85_a1.0_shape2"/>
    <path d="M 17,16 15,16 15,15 12,15 12,14 13,14 13,11 13,10 14,10 14,11 17,11 17,13 z" fill="#926d55" fill-opacity="1.0" id="x926d55_r146_g109_b85_a1.0_shape3"/>
    <path d="M 13,16 15,16 15,19 15,26 14,26 14,22 14,21 13,21 13,20 z" fill="#926d55" fill-opacity="1.0" id="x926d55_r146_g109_b85_a1.0_shape4"/>
    <path d="M 27,23 26,23 26,24 26,25 25,25 25,24 25,23 24,23 24,24 24,25 22,25 22,24 23,24 23,22 24,22 24,20 27,20 27,22 z" fill="#926d55" fill-opacity="1.0" id="x926d55_r146_g109_b85_a1.0_shape5"/>
    <path d="M 4,13 5,13 5,15 7,15 7,17 6,17 6,18 4,18 z" fill="#926d55" fill-opacity="1.0" id="x926d55_r146_g109_b85_a1.0_shape6"/>
    <path d="M 17,19 17,17 19,17 19,19 z" fill="#926d55" fill-opacity="1.0" id="x926d55_r146_g109_b85_a1.0_shape7"/>
  </g>
  <g id="x797979_r121_g121_b121_a1.0">
    <path d="M 17,19 16,19 16,17 15,17 15,16 17,16 17,11 18,11 18,15 18,16 19,16 19,17 17,17 z" fill="#797979" fill-opacity="1.0" id="x797979_r121_g121_b121_a1.0_shape1"/>
    <path d="M 15,15 15,16 12,16 12,15 z" fill="#797979" fill-opacity="1.0" id="x797979_r121_g121_b121_a1.0_shape2"/>
    <path d="M 24,18 24,19 22,19 21,19 21,18 22,18 z" fill="#797979" fill-opacity="1.0" id="x797979_r121_g121_b121_a1.0_shape3"/>
    <path d="M 24,20 24,19 27,19 27,20 z" fill="#797979" fill-opacity="1.0" id="x797979_r121_g121_b121_a1.0_shape4"/>
    <path d="M 27,21 27,20 29,20 30,20 30,21 29,21 z" fill="#797979" fill-opacity="1.0" id="x797979_r121_g121_b121_a1.0_shape5"/>
    <path d="M 21,17 21,18 20,18 19,18 19,17 20,17 z" fill="#797979" fill-opacity="1.0" id="x797979_r121_g121_b121_a1.0_shape6"/>
    <path d="M 7,19 6,19 6,18 7,18 8,18 8,19 z" fill="#797979" fill-opacity="1.0" id="x797979_r121_g121_b121_a1.0_shape7"/>
    <path d="M 10,17 9,17 9,16 10,16 z" fill="#797979" fill-opacity="1.0" id="x797979_r121_g121_b121_a1.0_shape8"/>
    <path d="M 9,17 9,18 8,18 8,17 z" fill="#797979" fill-opacity="1.0" id="x797979_r121_g121_b121_a1.0_shape9"/>
    <path d="M 30,21 31,21 31,22 30,22 z" fill="#797979" fill-opacity="1.0" id="x797979_r121_g121_b121_a1.0_shape10"/>
  </g>
  <g id="x240000_r36_g0_b0_a1.0">
    <path d="M 12,11 12,10 13,10 13,11 13,14 12,14 12,16 12,17 11,17 10,17 10,15 11,15 11,13 11,12 12,12 z" fill="#240000" fill-opacity="1.0" id="x240000_r36_g0_b0_a1.0_shape1"/>
    <path d="M 7,13 7,15 5,15 5,13 z" fill="#240000" fill-opacity="1.0" id="x240000_r36_g0_b0_a1.0_shape2"/>
  </g>
  <g id="x000000_r0_g0_b0_a1.0">
    <path d="M 13,29 19,29 19,30 18,30 18,31 17,31 17,32 15,32 15,31 14,31 14,30 13,30 z" fill="#000000" fill-opacity="1.0" id="x000000_r0_g0_b0_a1.0_shape1"/>
  </g>
  <g id="xb69255_r182_g146_b85_a1.0">
    <path d="M 13,19 12,19 12,16 13,16 z" fill="#b69255" fill-opacity="1.0" id="xb69255_r182_g146_b85_a1.0_shape1"/>
    <path d="M 5,11 6,11 6,12 6,13 5,13 5,12 z" fill="#b69255" fill-opacity="1.0" id="xb69255_r182_g146_b85_a1.0_shape2"/>
    <path d="M 23,17 23,15 24,15 24,17 z" fill="#b69255" fill-opacity="1.0" id="xb69255_r182_g146_b85_a1.0_shape3"/>
    <path d="M 23,15 22,15 22,14 23,14 z" fill="#b69255" fill-opacity="1.0" id="xb69255_r182_g146_b85_a1.0_shape4"/>
    <path d="M 24,18 24,17 25,17 25,18 z" fill="#b69255" fill-opacity="1.0" id="xb69255_r182_g146_b85_a1.0_shape5"/>
  </g>
  <g id="x6d4900_r109_g73_b0_a1.0">
    <path d="M 16,18 16,19 15,19 15,18 15,17 16,17 z" fill="#6d4900" fill-opacity="1.0" id="x6d4900_r109_g73_b0_a1.0_shape1"/>
  </g>
</svg>
