<?xml version="1.0" encoding="utf-8" ?>
<svg xmlns="http://www.w3.org/2000/svg" xmlns:ev="http://www.w3.org/2001/xml-events" xmlns:xlink="http://www.w3.org/1999/xlink" baseProfile="full" height="32px" version="1.1" viewBox="0 0 32 32" width="32px">
  <defs/>
  <g id="xd6d6d6_r214_g214_b214_a1.0">
    <path d="M 18,12 14,12 14,11 18,11 z" fill="#d6d6d6" fill-opacity="1.0" id="xd6d6d6_r214_g214_b214_a1.0_shape1"/>
    <path d="M 13,17 12,17 12,16 12,13 13,13 13,15 z" fill="#d6d6d6" fill-opacity="1.0" id="xd6d6d6_r214_g214_b214_a1.0_shape2"/>
    <path d="M 20,17 19,17 19,14 19,13 20,13 20,14 z" fill="#d6d6d6" fill-opacity="1.0" id="xd6d6d6_r214_g214_b214_a1.0_shape3"/>
    <path d="M 14,19 14,18 17,18 18,18 18,19 17,19 z" fill="#d6d6d6" fill-opacity="1.0" id="xd6d6d6_r214_g214_b214_a1.0_shape4"/>
    <path d="M 13,12 14,12 14,13 13,13 z" fill="#d6d6d6" fill-opacity="1.0" id="xd6d6d6_r214_g214_b214_a1.0_shape5"/>
    <path d="M 18,13 18,12 19,12 19,13 z" fill="#d6d6d6" fill-opacity="1.0" id="xd6d6d6_r214_g214_b214_a1.0_shape6"/>
    <path d="M 14,18 13,18 13,17 14,17 z" fill="#d6d6d6" fill-opacity="1.0" id="xd6d6d6_r214_g214_b214_a1.0_shape7"/>
    <path d="M 19,18 18,18 18,17 19,17 z" fill="#d6d6d6" fill-opacity="1.0" id="xd6d6d6_r214_g214_b214_a1.0_shape8"/>
  </g>
  <g id="x424242_r66_g66_b66_a1.0">
    <path d="M 14,18 14,17 13,17 13,13 14,13 14,12 18,12 18,13 19,13 19,16 19,17 18,17 18,18 z M 15,13 15,14 14,14 14,16 15,16 15,17 17,17 17,16 18,16 18,14 17,14 17,13 z" fill="#424242" fill-opacity="1.0" id="x424242_r66_g66_b66_a1.0_shape1"/>
  </g>
  <g id="x242400_r36_g36_b0_a1.0">
    <path d="M 18,14 18,16 17,16 17,17 15,17 15,16 14,16 14,14 15,14 15,13 17,13 17,14 z" fill="#242400" fill-opacity="1.0" id="x242400_r36_g36_b0_a1.0_shape1"/>
  </g>
  <g id="x000000_r0_g0_b0_a1.0">
    <path d="M 13,29 19,29 19,30 18,30 18,31 17,31 17,32 15,32 15,31 14,31 14,30 13,30 z" fill="#000000" fill-opacity="1.0" id="x000000_r0_g0_b0_a1.0_shape1"/>
  </g>
</svg>
