<?xml version="1.0" encoding="utf-8" ?>
<svg xmlns="http://www.w3.org/2000/svg" xmlns:ev="http://www.w3.org/2001/xml-events" xmlns:xlink="http://www.w3.org/1999/xlink" baseProfile="full" height="32px" version="1.1" viewBox="0 0 32 32" width="32px">
  <defs/>
  <g id="x000000_r0_g0_b0_a1.0">
    <path d="M 26,23 26,24 6,24 6,23 z" fill="#000000" fill-opacity="1.0" id="x000000_r0_g0_b0_a1.0_shape1"/>
    <path d="M 13,29 19,29 19,30 18,30 18,31 17,31 17,32 15,32 15,31 14,31 14,30 13,30 z" fill="#000000" fill-opacity="1.0" id="x000000_r0_g0_b0_a1.0_shape2"/>
  </g>
  <g id="xe8bb6d_r232_g187_b109_a1.0">
    <path d="M 10,23 9,23 9,10 11,10 11,11 10,11 z" fill="#e8bb6d" fill-opacity="1.0" id="xe8bb6d_r232_g187_b109_a1.0_shape1"/>
    <path d="M 22,23 21,23 21,17 21,10 23,10 23,11 22,11 z" fill="#e8bb6d" fill-opacity="1.0" id="xe8bb6d_r232_g187_b109_a1.0_shape2"/>
  </g>
  <g id="xffffff_r255_g255_b255_a1.0">
    <path d="M 12,16 12,11 20,11 20,16 z M 19,15 19,14 17,14 16,14 16,15 17,15 z M 15,12 13,12 13,15 15,15 z M 16,12 16,13 19,13 19,12 z" fill="#ffffff" fill-opacity="1.0" id="xffffff_r255_g255_b255_a1.0_shape1"/>
  </g>
  <g id="xb69255_r182_g146_b85_a1.0">
    <path d="M 10,11 11,11 11,23 10,23 z" fill="#b69255" fill-opacity="1.0" id="xb69255_r182_g146_b85_a1.0_shape1"/>
    <path d="M 23,23 22,23 22,11 23,11 z" fill="#b69255" fill-opacity="1.0" id="xb69255_r182_g146_b85_a1.0_shape2"/>
  </g>
  <g id="x808080_r128_g128_b128_a1.0">
    <path d="M 13,12 15,12 15,15 13,15 z" fill="#808080" fill-opacity="1.0" id="x808080_r128_g128_b128_a1.0_shape1"/>
    <path d="M 19,12 19,13 16,13 16,12 z" fill="#808080" fill-opacity="1.0" id="x808080_r128_g128_b128_a1.0_shape2"/>
    <path d="M 16,14 19,14 19,15 16,15 z" fill="#808080" fill-opacity="1.0" id="x808080_r128_g128_b128_a1.0_shape3"/>
  </g>
</svg>
