<?xml version="1.0" encoding="utf-8" ?>
<svg xmlns="http://www.w3.org/2000/svg" xmlns:ev="http://www.w3.org/2001/xml-events" xmlns:xlink="http://www.w3.org/1999/xlink" baseProfile="full" height="32px" version="1.1" viewBox="0 0 32 32" width="32px">
  <defs/>
  <g id="x000000_r0_g0_b0_a1.0">
    <path d="M 15,23 21,23 21,18 22,18 22,23 26,23 26,24 6,24 6,23 z" fill="#000000" fill-opacity="1.0" id="x000000_r0_g0_b0_a1.0_shape1"/>
    <path d="M 13,29 19,29 19,30 18,30 18,31 17,31 17,32 15,32 15,31 14,31 14,30 13,30 z" fill="#000000" fill-opacity="1.0" id="x000000_r0_g0_b0_a1.0_shape2"/>
    <path d="M 14,16 14,17 13,17 9,17 9,16 11,16 z" fill="#000000" fill-opacity="1.0" id="x000000_r0_g0_b0_a1.0_shape3"/>
    <path d="M 10,5 11,5 11,6 10,6 z" fill="#000000" fill-opacity="1.0" id="x000000_r0_g0_b0_a1.0_shape4"/>
    <path d="M 15,8 16,8 16,9 15,9 z" fill="#000000" fill-opacity="1.0" id="x000000_r0_g0_b0_a1.0_shape5"/>
    <path d="M 19,8 19,9 18,9 18,8 z" fill="#000000" fill-opacity="1.0" id="x000000_r0_g0_b0_a1.0_shape6"/>
    <path d="M 12,9 13,9 13,10 12,10 z" fill="#000000" fill-opacity="1.0" id="x000000_r0_g0_b0_a1.0_shape7"/>
    <path d="M 18,12 17,12 17,11 18,11 z" fill="#000000" fill-opacity="1.0" id="x000000_r0_g0_b0_a1.0_shape8"/>
    <path d="M 16,12 16,13 15,13 15,12 z" fill="#000000" fill-opacity="1.0" id="x000000_r0_g0_b0_a1.0_shape9"/>
    <path d="M 12,14 13,14 13,15 12,15 z" fill="#000000" fill-opacity="1.0" id="x000000_r0_g0_b0_a1.0_shape10"/>
    <path d="M 16,15 16,16 15,16 15,15 z" fill="#000000" fill-opacity="1.0" id="x000000_r0_g0_b0_a1.0_shape11"/>
    <path d="M 8,19 8,20 7,20 7,19 z" fill="#000000" fill-opacity="1.0" id="x000000_r0_g0_b0_a1.0_shape12"/>
  </g>
  <g id="x0080ff_r0_g128_b255_a1.0">
    <path d="M 21,18 21,23 17,23 17,21 16,21 16,19 15,19 15,18 z" fill="#0080ff" fill-opacity="1.0" id="x0080ff_r0_g128_b255_a1.0_shape1"/>
    <path d="M 13,17 13,18 14,18 14,19 13,19 13,20 12,20 12,22 11,22 11,23 10,23 10,22 10,19 9,19 9,17 z" fill="#0080ff" fill-opacity="1.0" id="x0080ff_r0_g128_b255_a1.0_shape2"/>
  </g>
  <g id="x000643_r0_g6_b67_a1.0">
    <path d="M 16,19 16,21 17,21 17,23 12,23 12,22 13,22 13,20 14,20 14,19 z" fill="#000643" fill-opacity="1.0" id="x000643_r0_g6_b67_a1.0_shape1"/>
    <path d="M 16,18 15,18 15,17 16,17 z" fill="#000643" fill-opacity="1.0" id="x000643_r0_g6_b67_a1.0_shape2"/>
  </g>
  <g id="xffffff_r255_g255_b255_a1.0">
    <path d="M 10,23 7,23 7,20 8,20 8,19 9,19 10,19 z" fill="#ffffff" fill-opacity="1.0" id="xffffff_r255_g255_b255_a1.0_shape1"/>
  </g>
  <g id="xd6a841_r214_g168_b65_a1.0">
    <path d="M 17,17 18,17 18,16 19,16 19,15 20,15 20,14 21,14 21,13 22,13 22,15 21,15 21,16 20,16 20,17 19,17 19,18 18,18 17,18 z" fill="#d6a841" fill-opacity="1.0" id="xd6a841_r214_g168_b65_a1.0_shape1"/>
  </g>
  <g id="x7a4300_r122_g67_b0_a1.0">
    <path d="M 22,23 22,20 23,20 23,21 25,21 25,22 26,22 26,23 z" fill="#7a4300" fill-opacity="1.0" id="x7a4300_r122_g67_b0_a1.0_shape1"/>
  </g>
  <g id="x011279_r1_g18_b121_a1.0">
    <path d="M 14,18 13,18 13,17 15,17 15,19 14,19 z" fill="#011279" fill-opacity="1.0" id="x011279_r1_g18_b121_a1.0_shape1"/>
    <path d="M 13,20 13,22 12,22 12,20 z" fill="#011279" fill-opacity="1.0" id="x011279_r1_g18_b121_a1.0_shape2"/>
    <path d="M 13,20 13,19 14,19 14,20 z" fill="#011279" fill-opacity="1.0" id="x011279_r1_g18_b121_a1.0_shape3"/>
    <path d="M 11,22 12,22 12,23 11,23 z" fill="#011279" fill-opacity="1.0" id="x011279_r1_g18_b121_a1.0_shape4"/>
  </g>
  <g id="xaa7900_r170_g121_b0_a1.0">
    <path d="M 23,15 22,15 22,14 23,14 z" fill="#aa7900" fill-opacity="1.0" id="xaa7900_r170_g121_b0_a1.0_shape1"/>
    <path d="M 22,16 21,16 21,15 22,15 z" fill="#aa7900" fill-opacity="1.0" id="xaa7900_r170_g121_b0_a1.0_shape2"/>
    <path d="M 21,16 21,17 20,17 20,16 z" fill="#aa7900" fill-opacity="1.0" id="xaa7900_r170_g121_b0_a1.0_shape3"/>
    <path d="M 20,17 20,18 19,18 19,17 z" fill="#aa7900" fill-opacity="1.0" id="xaa7900_r170_g121_b0_a1.0_shape4"/>
  </g>
</svg>
